<svg width="25" height="25" viewBox="0 0 25 25" fill="none" xmlns="http://www.w3.org/2000/svg">
<path d="M3.82811 15.2083C3.04686 15.2083 2.38714 14.9374 1.84895 14.3956C1.31075 13.8538 1.04166 13.1959 1.04166 12.4219C1.04166 11.6479 1.31256 10.99 1.85436 10.4481C2.39619 9.90633 3.0541 9.63543 3.82811 9.63543V6.4323C3.82811 6.01564 3.98436 5.65105 4.29686 5.33855C4.60936 5.02605 4.97395 4.8698 5.39061 4.8698H9.71353C9.71353 4.08855 9.98443 3.42883 10.5262 2.89064C11.0681 2.35244 11.726 2.08334 12.5 2.08334C13.274 2.08334 13.9319 2.35425 14.4737 2.89605C15.0155 3.43787 15.2864 4.09579 15.2864 4.8698H19.6094C20.026 4.8698 20.3906 5.02605 20.7031 5.33855C21.0156 5.65105 21.1719 6.01564 21.1719 6.4323V9.63543C21.9531 9.63543 22.6128 9.90633 23.151 10.4481C23.6892 10.99 23.9583 11.6479 23.9583 12.4219C23.9583 13.1959 23.6874 13.8538 23.1456 14.3956C22.6038 14.9374 21.9459 15.2083 21.1719 15.2083V20.3125C21.1719 20.7292 21.0156 21.0938 20.7031 21.4063C20.3906 21.7188 20.026 21.875 19.6094 21.875H5.39061C4.97395 21.875 4.60936 21.7188 4.29686 21.4063C3.98436 21.0938 3.82811 20.7292 3.82811 20.3125V15.2083ZM8.9384 12.6042C9.22946 12.6042 9.47482 12.5023 9.67447 12.2986C9.87412 12.0948 9.97395 11.8474 9.97395 11.5564C9.97395 11.2653 9.87208 11.02 9.66835 10.8203C9.4646 10.6207 9.2172 10.5208 8.92616 10.5208C8.6351 10.5208 8.38975 10.6227 8.19009 10.8264C7.99044 11.0302 7.89061 11.2776 7.89061 11.5686C7.89061 11.8597 7.99248 12.105 8.19621 12.3047C8.39996 12.5044 8.64736 12.6042 8.9384 12.6042ZM16.0738 12.6042C16.3649 12.6042 16.6102 12.5023 16.8099 12.2986C17.0095 12.0948 17.1094 11.8474 17.1094 11.5564C17.1094 11.2653 17.0075 11.02 16.8038 10.8203C16.6 10.6207 16.3526 10.5208 16.0616 10.5208C15.7705 10.5208 15.5252 10.6227 15.3255 10.8264C15.1259 11.0302 15.026 11.2776 15.026 11.5686C15.026 11.8597 15.1279 12.105 15.3316 12.3047C15.5354 12.5044 15.7828 12.6042 16.0738 12.6042ZM8.12499 17.5781H16.875V16.0156H8.12499V17.5781ZM5.39061 20.3125H19.6094V6.4323H5.39061V20.3125Z" fill="white"/>
</svg>
