<svg width="98" height="35" viewBox="0 0 98 35" fill="none" xmlns="http://www.w3.org/2000/svg">
<g filter="url(#filter0_d_3_147)">
<path d="M25.34 25.928C25.148 25.928 24.956 25.912 24.764 25.88C24.572 25.88 24.364 25.864 24.14 25.832C24.108 25.832 24.028 25.784 23.9 25.688C23.772 25.624 23.676 25.592 23.612 25.592C23.42 25.592 23.212 25.576 22.988 25.544C22.796 25.544 22.588 25.528 22.364 25.496C22.332 25.464 22.3 25.416 22.268 25.352C22.268 25.32 22.236 25.304 22.172 25.304C22.14 25.304 22.124 25.304 22.124 25.304C22.156 25.336 22.156 25.352 22.124 25.352C22.092 25.352 22.012 25.32 21.884 25.256C21.788 25.192 21.708 25.144 21.644 25.112V25.016C21.516 24.984 21.436 24.936 21.404 24.872C21.372 24.84 21.34 24.824 21.308 24.824H21.212C21.148 24.824 21.116 24.808 21.116 24.776C20.988 24.712 20.828 24.616 20.636 24.488C20.444 24.392 20.316 24.296 20.252 24.2C20.124 24.168 20.044 24.12 20.012 24.056C19.98 24.024 19.932 23.976 19.868 23.912C19.836 23.848 19.804 23.816 19.772 23.816C19.772 23.848 19.756 23.848 19.724 23.816C19.596 23.624 19.436 23.464 19.244 23.336C19.244 23.304 19.228 23.272 19.196 23.24C19.196 23.24 19.196 23.224 19.196 23.192C19.132 23.192 19.084 23.176 19.052 23.144C19.02 23.08 19.004 23.032 19.004 23C19.004 22.936 18.972 22.904 18.908 22.904C18.876 22.744 18.828 22.632 18.764 22.568C18.7 22.504 18.636 22.408 18.572 22.28C18.54 22.216 18.524 22.152 18.524 22.088C18.524 21.992 18.492 21.944 18.428 21.944V21.896C18.46 21.832 18.412 21.656 18.284 21.368C18.188 21.048 18.14 20.776 18.14 20.552L18.044 20.504C17.948 20.344 17.884 20.152 17.852 19.928C17.852 19.704 17.868 19.48 17.9 19.256C17.964 19 17.964 18.888 17.9 18.92C17.836 18.952 17.836 18.792 17.9 18.44L18.236 17.768C18.236 17.704 18.22 17.64 18.188 17.576C18.156 17.512 18.14 17.464 18.14 17.432C18.14 17.4 18.156 17.368 18.188 17.336C18.22 17.304 18.236 17.272 18.236 17.24C18.268 17.176 18.284 17.08 18.284 16.952C18.284 16.824 18.3 16.744 18.332 16.712C18.364 16.648 18.412 16.6 18.476 16.568C18.54 16.504 18.588 16.456 18.62 16.424L18.86 15.848C18.924 15.784 18.972 15.736 19.004 15.704C19.068 15.64 19.116 15.576 19.148 15.512C19.212 15.416 19.26 15.336 19.292 15.272C19.324 15.176 19.372 15.08 19.436 14.984C19.468 14.92 19.516 14.856 19.58 14.792C19.676 14.728 19.74 14.68 19.772 14.648C19.932 14.552 20.06 14.504 20.156 14.504C20.284 14.504 20.364 14.632 20.396 14.888L20.348 15.128C20.22 15.288 20.092 15.432 19.964 15.56C19.836 15.656 19.692 15.768 19.532 15.896C19.532 15.928 19.516 15.976 19.484 16.04C19.484 16.072 19.484 16.12 19.484 16.184C19.42 16.184 19.388 16.216 19.388 16.28C19.388 16.312 19.372 16.36 19.34 16.424C19.34 16.456 19.292 16.52 19.196 16.616C19.164 16.68 19.132 16.76 19.1 16.856C19.1 16.92 19.084 16.984 19.052 17.048L18.908 17.144L18.86 18.296C18.892 18.328 18.924 18.328 18.956 18.296C18.988 18.36 19.004 18.456 19.004 18.584V18.632L18.956 18.68V19.064C18.924 19.096 18.908 19.128 18.908 19.16C18.908 19.192 18.924 19.24 18.956 19.304C18.988 19.336 19.004 19.384 19.004 19.448C18.972 19.48 18.956 19.528 18.956 19.592C18.956 19.656 18.988 19.72 19.052 19.784V19.928C19.116 20.024 19.196 20.12 19.292 20.216C19.388 20.28 19.468 20.344 19.532 20.408L19.916 20.552C20.492 20.968 20.924 21.256 21.212 21.416C21.5 21.576 21.98 21.752 22.652 21.944C22.908 22.008 23.164 22.088 23.42 22.184C23.676 22.248 23.932 22.28 24.188 22.28C24.22 22.28 24.236 22.296 24.236 22.328C24.236 22.328 24.252 22.328 24.284 22.328C24.412 22.328 24.524 22.344 24.62 22.376C24.748 22.408 24.876 22.424 25.004 22.424C25.036 22.424 25.068 22.424 25.1 22.424C25.132 22.392 25.164 22.376 25.196 22.376C25.26 22.376 25.308 22.392 25.34 22.424C25.372 22.424 25.404 22.424 25.436 22.424C25.692 22.424 25.948 22.424 26.204 22.424C26.46 22.424 26.7 22.408 26.924 22.376C27.18 22.376 27.436 22.344 27.692 22.28C27.948 22.216 28.188 22.184 28.412 22.184C28.86 22.152 29.292 22.072 29.708 21.944C30.156 21.784 30.588 21.64 31.004 21.512C31.036 21.48 31.308 21.368 31.82 21.176C32.364 20.952 32.924 20.712 33.5 20.456C33.628 20.072 33.692 19.608 33.692 19.064C33.692 18.168 33.5 17.368 33.116 16.664C33.116 16.664 33.036 16.616 32.876 16.52C32.716 16.392 32.62 16.328 32.588 16.328V16.232C32.588 16.072 32.508 15.992 32.348 15.992C32.188 15.96 32.044 15.864 31.916 15.704C31.852 15.608 31.772 15.528 31.676 15.464V15.416C31.58 15.352 31.564 15.304 31.628 15.272C31.724 15.208 31.788 15.16 31.82 15.128L31.724 15.032H31.676C31.612 14.968 31.532 14.92 31.436 14.888C31.34 14.856 31.26 14.792 31.196 14.696L30.956 14.504C30.924 14.44 30.86 14.408 30.764 14.408C30.668 14.408 30.588 14.392 30.524 14.36C30.396 14.264 30.252 14.152 30.092 14.024C29.932 13.896 29.772 13.8 29.612 13.736H29.564C29.436 13.672 29.308 13.592 29.18 13.496C29.084 13.4 28.956 13.32 28.796 13.256C28.764 13.192 28.716 13.192 28.652 13.256C28.62 13.288 28.588 13.288 28.556 13.256C28.428 13.192 28.316 13.096 28.22 12.968C28.124 12.808 27.996 12.728 27.836 12.728H27.788C27.692 12.664 27.612 12.568 27.548 12.44C27.516 12.28 27.468 12.168 27.404 12.104C27.116 11.944 26.828 11.832 26.54 11.768C26.252 11.704 25.964 11.624 25.676 11.528C25.484 11.432 25.244 11.384 24.956 11.384C24.7 11.352 24.492 11.32 24.332 11.288C24.14 11.224 24.044 11.128 24.044 11C24.044 10.84 24.204 10.68 24.524 10.52C24.652 10.456 24.796 10.424 24.956 10.424C25.116 10.392 25.26 10.376 25.388 10.376C25.74 10.376 26.284 10.28 27.02 10.088C27.788 9.896 28.652 9.64 29.612 9.32C30.572 8.968 31.5 8.6 32.396 8.216C32.588 8.152 32.732 8.088 32.828 8.024C32.956 7.96 33.052 7.976 33.116 8.072C33.052 8.072 33.02 8.12 33.02 8.216C33.18 8.216 33.276 8.168 33.308 8.072C33.372 7.944 33.436 7.816 33.5 7.688H33.548L34.46 7.208C34.588 7.176 34.7 7.192 34.796 7.256C34.924 7.288 35.036 7.272 35.132 7.208C35.1 7.144 35.052 7.096 34.988 7.064C34.956 7 34.988 6.936 35.084 6.872C35.148 6.808 35.196 6.776 35.228 6.776C35.42 6.648 35.596 6.568 35.756 6.536C35.948 6.472 36.092 6.344 36.188 6.152C36.7 5.8 37.132 5.432 37.484 5.048C37.836 4.632 38.012 4.248 38.012 3.896C38.012 3.448 37.692 3.064 37.052 2.744C36.444 2.392 35.34 2.104 33.74 1.88C33.676 1.88 33.612 1.88 33.548 1.88C33.484 1.848 33.42 1.832 33.356 1.832C32.94 1.832 32.54 1.736 32.156 1.544C32.188 1.672 32.124 1.736 31.964 1.736C31.516 1.704 31.068 1.688 30.62 1.688C30.172 1.656 29.74 1.64 29.324 1.64C28.62 1.64 27.964 1.656 27.356 1.688C26.78 1.72 26.364 1.752 26.108 1.784C25.852 1.816 25.58 1.848 25.292 1.88C25.036 1.88 24.78 1.912 24.524 1.976C24.332 1.912 24.14 1.944 23.948 2.072H23.9C23.676 2.104 23.452 2.136 23.228 2.168C23.004 2.2 22.764 2.248 22.508 2.312C22.38 2.344 22.236 2.376 22.076 2.408C21.916 2.408 21.756 2.44 21.596 2.504L20.636 2.696C20.508 2.792 20.364 2.872 20.204 2.936C20.076 2.968 19.932 2.968 19.772 2.936H19.724L18.812 3.176H18.764C18.668 3.176 18.556 3.112 18.428 2.984C18.332 2.824 18.268 2.68 18.236 2.552C18.204 2.744 18.156 2.952 18.092 3.176C18.028 3.4 17.916 3.512 17.756 3.512L16.412 3.944C16.284 3.976 16.14 3.992 15.98 3.992C15.82 3.992 15.66 3.992 15.5 3.992C15.34 3.992 15.212 4.008 15.116 4.04C15.02 4.072 14.956 4.152 14.924 4.28C14.924 4.376 14.876 4.456 14.78 4.52C14.652 4.648 14.492 4.744 14.3 4.808C14.108 4.84 13.932 4.888 13.772 4.952H13.724C13.66 4.952 13.564 4.92 13.436 4.856C13.34 4.792 13.26 4.776 13.196 4.808C13.164 4.84 13.132 4.92 13.1 5.048C13.068 5.176 13.02 5.256 12.956 5.288V5.336C12.764 5.4 12.556 5.48 12.332 5.576C12.108 5.672 11.9 5.768 11.708 5.864C11.516 5.96 11.292 6.072 11.036 6.2C10.812 6.296 10.62 6.36 10.46 6.392C10.396 6.392 10.364 6.328 10.364 6.2C10.396 6.072 10.38 6.04 10.316 6.104C10.124 6.2 9.932 6.376 9.74 6.632C9.548 6.888 9.372 7.064 9.212 7.16C9.052 7.288 8.876 7.352 8.684 7.352C8.524 7.352 8.364 7.416 8.204 7.544C8.108 7.64 8.012 7.8 7.916 8.024C7.852 8.216 7.772 8.36 7.676 8.456C7.42 8.712 7.164 9.016 6.908 9.368C6.876 9.432 6.828 9.496 6.764 9.56C6.7 9.624 6.668 9.704 6.668 9.8H6.62C6.428 10.184 6.332 10.552 6.332 10.904C6.332 11.608 6.588 12.12 7.1 12.44C7.644 12.76 8.252 13 8.924 13.16C9.052 13.192 9.164 13.24 9.26 13.304C9.388 13.368 9.516 13.384 9.644 13.352C9.772 13.288 9.884 13.256 9.98 13.256C10.14 13.256 10.268 13.32 10.364 13.448L11.084 13.592C11.468 13.688 11.66 13.784 11.66 13.88C11.66 13.944 11.564 14.008 11.372 14.072C11.212 14.104 11.052 14.12 10.892 14.12C10.316 14.12 9.612 14.008 8.78 13.784C7.948 13.528 7.196 13.16 6.524 12.68C5.852 12.168 5.468 11.544 5.372 10.808C5.372 10.776 5.324 10.696 5.228 10.568C5.164 10.44 5.116 10.328 5.084 10.232C4.988 9.944 4.94 9.656 4.94 9.368C4.94 8.824 5.052 8.312 5.276 7.832C5.532 7.352 5.868 6.904 6.284 6.488C6.444 6.328 6.588 6.216 6.716 6.152C6.876 6.088 7.052 5.992 7.244 5.864C7.436 5.736 7.532 5.624 7.532 5.528C7.532 5.432 7.628 5.32 7.82 5.192C8.076 5.032 8.428 4.84 8.876 4.616C9.356 4.392 9.724 4.216 9.98 4.088C10.172 4.088 10.348 4.008 10.508 3.848C11.148 3.56 11.82 3.304 12.524 3.08C13.228 2.824 13.932 2.584 14.636 2.36C14.828 2.264 15.02 2.216 15.212 2.216C15.404 2.216 15.548 2.264 15.644 2.36C15.644 2.296 15.628 2.248 15.596 2.216C15.596 2.152 15.628 2.104 15.692 2.072C16.492 1.816 17.292 1.608 18.092 1.448C18.892 1.256 19.66 1.096 20.396 0.967999H20.444C20.54 0.967999 20.684 0.935999 20.876 0.871999H20.924C20.988 0.871999 21.036 0.871999 21.068 0.871999C21.132 0.839999 21.196 0.823999 21.26 0.823999C21.452 0.919999 21.644 0.887999 21.836 0.727999C22.7 0.567999 23.5 0.455999 24.236 0.391999C24.972 0.295999 25.596 0.247998 26.108 0.247998H26.252C26.316 0.247998 26.38 0.247998 26.444 0.247998C26.54 0.215999 26.62 0.199999 26.684 0.199999H27.164C27.26 0.167999 27.356 0.167999 27.452 0.199999C27.58 0.199999 27.676 0.199999 27.74 0.199999H27.788C28.172 0.199999 28.572 0.215999 28.988 0.247998C29.436 0.247998 29.884 0.247998 30.332 0.247998H30.38C30.508 0.279999 30.604 0.327999 30.668 0.391999C30.764 0.455999 30.876 0.423999 31.004 0.295999C31.868 0.327999 32.732 0.423999 33.596 0.584C34.076 0.647999 34.652 0.775999 35.324 0.967999C36.028 1.128 36.7 1.368 37.34 1.688C37.98 1.976 38.508 2.344 38.924 2.792C39.372 3.24 39.596 3.784 39.596 4.424C39.596 4.68 39.548 4.952 39.452 5.24C39.356 5.528 39.18 5.8 38.924 6.056C38.668 6.28 38.412 6.52 38.156 6.776L37.58 7.304L37.244 7.4L36.86 7.592C36.156 7.912 35.388 8.28 34.556 8.696C33.724 9.08 32.844 9.384 31.916 9.608L31.484 9.704H31.436V9.752H31.388C31.324 9.784 31.244 9.8 31.148 9.8C31.052 9.768 30.956 9.784 30.86 9.848C29.292 10.264 27.804 10.552 26.396 10.712C26.076 10.744 25.916 10.808 25.916 10.904C25.916 10.968 26.028 11.048 26.252 11.144C26.508 11.208 26.7 11.272 26.828 11.336C27.436 11.528 28.076 11.736 28.748 11.96C29.42 12.152 30.108 12.392 30.812 12.68C31.004 12.712 31.196 12.776 31.388 12.872C31.612 12.968 31.772 13.112 31.868 13.304C31.9 13.24 31.948 13.224 32.012 13.256C32.076 13.288 32.124 13.304 32.156 13.304C32.572 13.496 32.972 13.704 33.356 13.928C33.74 14.152 34.092 14.392 34.412 14.648C34.476 14.808 34.508 14.888 34.508 14.888C34.732 14.888 34.892 14.952 34.988 15.08C35.084 15.208 35.196 15.352 35.324 15.512C35.676 15.896 35.948 16.312 36.14 16.76C36.332 17.176 36.428 17.624 36.428 18.104C36.428 18.232 36.412 18.36 36.38 18.488C36.38 18.616 36.364 18.76 36.332 18.92C37.068 18.504 37.612 17.96 37.964 17.288C38.028 17.192 38.108 17.144 38.204 17.144C38.396 17.144 38.46 17.256 38.396 17.48C38.236 17.896 37.932 18.36 37.484 18.872C37.068 19.352 36.588 19.72 36.044 19.976C36.044 20.008 36.028 20.04 35.996 20.072C35.836 20.456 35.676 20.744 35.516 20.936C35.484 21.064 35.42 21.16 35.324 21.224C35.26 21.288 35.212 21.368 35.18 21.464L35.132 21.512L34.94 21.608C34.908 21.64 34.876 21.688 34.844 21.752C34.844 21.816 34.812 21.88 34.748 21.944C34.812 22.008 34.796 22.04 34.7 22.04C33.9 23 32.876 23.8 31.628 24.44H31.58C31.356 24.568 31.276 24.6 31.34 24.536C31.404 24.504 31.404 24.456 31.34 24.392H31.292C31.036 24.52 30.876 24.616 30.812 24.68C30.716 24.68 30.604 24.712 30.476 24.776C30.38 24.84 30.332 24.872 30.332 24.872H30.092C30.06 24.872 29.98 24.904 29.852 24.968C29.756 25.064 29.676 25.128 29.612 25.16C29.452 25.16 29.34 25.208 29.276 25.304C29.212 25.304 29.132 25.304 29.036 25.304C28.94 25.304 28.844 25.32 28.748 25.352C28.716 25.384 28.556 25.4 28.268 25.4C28.012 25.432 27.852 25.464 27.788 25.496C27.756 25.528 27.644 25.576 27.452 25.64C27.26 25.704 27.132 25.736 27.068 25.736C27.036 25.736 27.004 25.72 26.972 25.688C26.972 25.688 26.956 25.688 26.924 25.688C26.892 25.688 26.86 25.704 26.828 25.736C26.796 25.8 26.748 25.832 26.684 25.832C26.62 25.832 26.556 25.816 26.492 25.784C26.428 25.752 26.364 25.736 26.3 25.736C26.268 25.736 26.204 25.752 26.108 25.784C26.044 25.848 25.98 25.88 25.916 25.88C25.852 25.88 25.788 25.864 25.724 25.832C25.692 25.832 25.628 25.848 25.532 25.88C25.468 25.912 25.404 25.928 25.34 25.928ZM13.388 26.456C13.164 26.456 13.052 26.216 13.052 25.736C13.052 25.416 13.116 25.016 13.244 24.536C13.404 24.088 13.596 23.56 13.82 22.952C14.076 22.728 14.204 22.44 14.204 22.088C14.268 22.12 14.3 22.12 14.3 22.088C14.332 22.024 14.348 21.992 14.348 21.992C14.412 21.896 14.444 21.8 14.444 21.704C14.444 21.576 14.46 21.464 14.492 21.368C15.068 19.928 15.804 18.36 16.7 16.664C16.764 16.536 16.828 16.504 16.892 16.568C16.988 16.6 17.052 16.584 17.084 16.52C17.116 16.488 17.132 16.408 17.132 16.28C17.132 16.184 17.116 16.088 17.084 15.992C17.084 15.896 17.132 15.784 17.228 15.656L17.9 14.456C18.828 12.792 19.756 11.192 20.684 9.656C21.644 8.12 22.54 6.936 23.372 6.104L23.516 6.008L23.66 5.768C23.66 5.768 23.692 5.752 23.756 5.72C23.82 5.688 23.868 5.704 23.9 5.768C23.9 5.8 23.868 5.864 23.804 5.96C23.772 6.056 23.756 6.12 23.756 6.152C23.852 6.312 23.964 6.328 24.092 6.2C24.124 6.136 24.124 5.992 24.092 5.768C24.06 5.544 24.06 5.432 24.092 5.432C24.156 5.4 24.188 5.4 24.188 5.432C24.22 5.464 24.252 5.48 24.284 5.48C24.348 5.48 24.38 5.432 24.38 5.336C24.38 5.24 24.396 5.176 24.428 5.144C24.78 5.016 25.1 4.952 25.388 4.952C25.548 4.952 25.772 5.032 26.06 5.192C26.38 5.352 26.54 5.576 26.54 5.864C26.54 6.024 26.46 6.216 26.3 6.44C26.268 6.472 26.236 6.536 26.204 6.632C26.172 6.696 26.124 6.76 26.06 6.824C26.028 6.856 25.996 6.872 25.964 6.872C25.964 6.84 25.932 6.84 25.868 6.872C25.836 6.904 25.788 6.92 25.724 6.92C25.692 6.888 25.644 6.872 25.58 6.872C25.516 6.872 25.5 6.92 25.532 7.016C25.596 7.112 25.612 7.176 25.58 7.208C25.548 7.24 25.516 7.24 25.484 7.208C25.452 7.176 25.404 7.192 25.34 7.256C25.308 7.288 25.324 7.32 25.388 7.352C25.484 7.352 25.5 7.384 25.436 7.448C25.244 7.64 25.004 7.848 24.716 8.072C24.46 8.264 24.204 8.456 23.948 8.648C23.916 8.68 23.884 8.68 23.852 8.648C23.82 8.584 23.788 8.568 23.756 8.6L23.42 9.08C23.1 9.4 22.78 9.736 22.46 10.088C22.14 10.44 21.804 10.84 21.452 11.288C21.356 11.48 21.244 11.656 21.116 11.816C20.988 11.976 20.812 12.04 20.588 12.008C20.588 12.04 20.62 12.088 20.684 12.152C20.748 12.184 20.748 12.248 20.684 12.344C20.14 13.112 19.596 13.912 19.052 14.744C18.508 15.576 17.996 16.44 17.516 17.336C17.292 17.72 17.02 18.216 16.7 18.824L16.268 19.688C16.236 19.784 16.188 19.832 16.124 19.832C16.092 19.8 16.044 19.784 15.98 19.784C16.044 19.912 16.076 20.024 16.076 20.12C16.076 20.376 15.932 20.648 15.644 20.936C15.228 21.896 14.844 22.808 14.492 23.672C14.14 24.536 13.868 25.336 13.676 26.072C13.612 26.328 13.516 26.456 13.388 26.456ZM25.532 25.112H25.628C25.692 25.144 25.772 25.112 25.868 25.016H26.06C26.188 24.952 26.268 24.92 26.3 24.92C26.364 24.92 26.412 24.952 26.444 25.016C26.476 25.112 26.556 25.112 26.684 25.016L26.876 24.968C26.94 24.904 27.004 24.872 27.068 24.872C27.132 24.872 27.196 24.856 27.26 24.824C27.324 24.792 27.356 24.744 27.356 24.68C27.388 24.648 27.436 24.648 27.5 24.68C27.564 24.68 27.596 24.68 27.596 24.68C27.628 24.712 27.66 24.728 27.692 24.728H27.74C27.836 24.728 27.964 24.68 28.124 24.584C28.284 24.488 28.364 24.44 28.364 24.44C28.428 24.44 28.492 24.392 28.556 24.296C28.62 24.232 28.668 24.2 28.7 24.2L29.084 24.104C29.276 24.008 29.42 23.96 29.516 23.96C29.548 23.896 29.644 23.832 29.804 23.768C29.964 23.704 30.044 23.656 30.044 23.624C30.108 23.56 30.204 23.512 30.332 23.48C30.46 23.448 30.54 23.416 30.572 23.384C30.7 23.384 31.004 23.192 31.484 22.808C31.996 22.424 32.428 21.928 32.78 21.32C32.812 21.256 32.716 21.272 32.492 21.368C32.268 21.464 32.028 21.576 31.772 21.704C31.548 21.8 31.42 21.848 31.388 21.848C31.356 21.848 31.276 21.912 31.148 22.04C31.02 22.136 30.94 22.184 30.908 22.184C30.844 22.248 30.78 22.28 30.716 22.28C30.716 22.28 30.652 22.248 30.524 22.184V22.28C30.46 22.28 30.412 22.296 30.38 22.328C30.348 22.328 30.3 22.328 30.236 22.328C30.172 22.328 30.076 22.36 29.948 22.424C29.82 22.488 29.74 22.52 29.708 22.52C29.676 22.52 29.628 22.536 29.564 22.568C29.532 22.568 29.484 22.552 29.42 22.52C29.292 22.648 29.052 22.744 28.7 22.808C28.348 22.872 28.092 22.904 27.932 22.904C27.9 22.904 27.884 22.904 27.884 22.904C27.916 22.872 27.916 22.856 27.884 22.856C27.852 22.856 27.82 22.872 27.788 22.904C27.756 22.904 27.708 22.904 27.644 22.904L27.548 23H27.164C27.068 23 26.956 23.016 26.828 23.048C26.732 23.08 26.652 23.08 26.588 23.048H26.492C26.46 23.048 26.412 23.048 26.348 23.048C26.316 23.08 26.268 23.096 26.204 23.096C26.172 23.096 26.14 23.08 26.108 23.048C26.108 23.016 26.076 22.984 26.012 22.952C25.98 22.952 25.948 22.968 25.916 23C25.884 23.064 25.836 23.096 25.772 23.096C25.74 23.096 25.708 23.08 25.676 23.048C25.676 23.048 25.66 23.048 25.628 23.048H25.436C25.436 23.08 25.404 23.096 25.34 23.096C25.308 23.096 25.292 23.08 25.292 23.048C25.292 23.048 25.276 23.048 25.244 23.048C25.18 23.048 25.1 23.064 25.004 23.096C24.94 23.128 24.876 23.144 24.812 23.144H24.716C24.716 23.08 24.684 23.032 24.62 23V23.048H24.188C23.996 23.016 23.804 22.952 23.612 22.856C23.42 22.76 23.244 22.696 23.084 22.664C23.052 22.664 23.02 22.68 22.988 22.712C22.988 22.744 22.972 22.76 22.94 22.76C22.908 22.76 22.876 22.744 22.844 22.712C22.844 22.68 22.828 22.664 22.796 22.664C22.764 22.664 22.732 22.68 22.7 22.712C22.7 22.712 22.668 22.68 22.604 22.616C22.54 22.616 22.412 22.584 22.22 22.52C22.22 22.424 22.172 22.376 22.076 22.376C22.076 22.312 21.884 22.232 21.5 22.136C21.116 22.04 20.892 21.976 20.828 21.944C20.796 21.912 20.732 21.864 20.636 21.8C20.572 21.736 20.524 21.736 20.492 21.8C20.396 21.768 20.268 21.688 20.108 21.56C19.948 21.4 19.82 21.32 19.724 21.32L19.532 21.032H19.484L19.34 21.272C19.34 21.304 19.356 21.384 19.388 21.512C19.452 21.64 19.468 21.736 19.436 21.8C19.5 21.832 19.532 21.896 19.532 21.992C19.532 22.088 19.564 22.136 19.628 22.136C19.628 22.328 19.692 22.52 19.82 22.712C19.82 22.744 19.9 22.808 20.06 22.904C20.252 23 20.332 23.064 20.3 23.096C20.428 23.224 20.492 23.32 20.492 23.384C20.62 23.512 20.684 23.608 20.684 23.672C20.716 23.704 20.732 23.72 20.732 23.72C20.764 23.72 20.78 23.72 20.78 23.72C20.812 23.784 20.892 23.896 21.02 24.056C21.18 24.216 21.292 24.296 21.356 24.296H21.452C21.484 24.328 21.548 24.392 21.644 24.488C21.772 24.584 21.852 24.632 21.884 24.632H21.932C22.188 24.632 22.444 24.664 22.7 24.728C22.988 24.824 23.26 24.888 23.516 24.92C23.516 24.92 23.548 24.936 23.612 24.968C23.708 25 23.804 25.032 23.9 25.064C24.156 25.096 24.46 25.096 24.812 25.064C25.164 25.064 25.404 25.08 25.532 25.112ZM42.6166 23.096C41.8166 23.096 41.1126 22.872 40.5046 22.424C39.8966 21.976 39.5926 21.208 39.5926 20.12C39.5926 19.704 39.6406 19.288 39.7366 18.872C39.8326 18.424 39.9446 17.992 40.0726 17.576C40.1366 17.16 40.2326 16.792 40.3606 16.472C40.3926 16.344 40.4086 16.28 40.4086 16.28C40.4406 16.248 40.5206 16.2 40.6486 16.136L41.0326 15.56V15.368C41.0006 15.368 40.9846 15.368 40.9846 15.368C40.9846 15.336 40.9846 15.32 40.9846 15.32C40.9846 15.224 41.0646 15.112 41.2246 14.984C41.3846 14.856 41.4646 14.792 41.4646 14.792C41.4966 14.632 41.5446 14.552 41.6086 14.552C41.6726 14.552 41.7526 14.504 41.8486 14.408H42.3766V14.312C42.3766 14.152 42.2966 14.088 42.1366 14.12C42.0086 14.12 41.9446 14.104 41.9446 14.072C41.9446 14.04 41.9926 13.976 42.0886 13.88C42.2166 13.752 42.2966 13.672 42.3286 13.64C42.4246 13.512 42.5046 13.4 42.5686 13.304C42.6326 13.176 42.7286 13.08 42.8566 13.016C43.4326 12.312 43.7846 11.864 43.9126 11.672C44.0726 11.48 44.2326 11.336 44.3926 11.24C44.4566 11.24 44.5046 11.272 44.5366 11.336C44.6006 11.368 44.6006 11.416 44.5366 11.48C44.6006 11.576 44.6486 11.592 44.6806 11.528C44.7446 11.464 44.7766 11.432 44.7766 11.432L44.9686 11.336C44.9046 11.272 44.8726 11.192 44.8726 11.096C44.8726 10.936 44.9046 10.808 44.9686 10.712C45.0326 10.584 45.1446 10.456 45.3046 10.328C45.4966 10.2 45.5926 10.12 45.5926 10.088C45.7846 10.024 45.9286 9.96 46.0246 9.896C46.1526 9.832 46.2806 9.8 46.4086 9.8C46.6326 9.8 46.8566 9.88 47.0806 10.04C47.6886 10.36 48.2006 10.68 48.6166 11C49.0326 11.32 49.2406 11.768 49.2406 12.344C49.2406 12.952 48.9846 13.48 48.4726 13.928C47.9926 14.344 47.4006 14.696 46.6966 14.984C45.9926 15.272 45.2886 15.512 44.5846 15.704C43.9126 15.864 43.3846 15.992 43.0006 16.088C42.7766 16.12 42.6646 16.216 42.6646 16.376C42.6966 16.504 42.6806 16.648 42.6166 16.808L42.2806 17.336L41.9926 18.008L41.7526 18.44C41.5286 18.632 41.4486 18.776 41.5126 18.872C41.5766 18.968 41.6886 18.952 41.8486 18.824C41.8806 18.856 41.8966 18.904 41.8966 18.968C41.8966 19.096 41.8646 19.256 41.8006 19.448C41.7366 19.608 41.6886 19.736 41.6566 19.832C41.6246 19.96 41.6246 20.024 41.6566 20.024C41.7206 19.992 41.7526 20.056 41.7526 20.216L41.8006 20.888C41.9926 21.496 42.4246 21.848 43.0966 21.944C43.1606 21.944 43.2246 21.96 43.2886 21.992C43.3846 21.992 43.4646 21.992 43.5286 21.992C44.1046 21.992 44.4086 21.944 44.4406 21.848C44.5046 21.752 44.5846 21.688 44.6806 21.656C44.9686 21.592 45.2086 21.528 45.4006 21.464C45.6246 21.4 45.8486 21.304 46.0726 21.176C46.4566 21.016 46.8246 20.808 47.1766 20.552C47.5286 20.296 47.8966 20.04 48.2806 19.784L48.7606 19.448C48.7926 19.384 48.7926 19.336 48.7606 19.304C48.7286 19.272 48.7286 19.24 48.7606 19.208C48.8246 19.176 48.8726 19.176 48.9046 19.208C48.9686 19.208 49.0166 19.192 49.0486 19.16C49.1126 19.128 49.1766 19.08 49.2406 19.016C49.3046 18.92 49.3686 18.84 49.4326 18.776C49.4966 18.712 49.5286 18.648 49.5286 18.584C49.5606 18.52 49.6086 18.456 49.6726 18.392C49.9286 18.136 50.1846 17.864 50.4406 17.576C50.7286 17.288 50.9686 17.032 51.1606 16.808C51.3846 16.488 51.5606 16.328 51.6886 16.328C51.7526 16.328 51.7846 16.36 51.7846 16.424C51.7846 16.584 51.6726 16.824 51.4486 17.144C50.9046 17.944 50.2806 18.728 49.5766 19.496C48.8726 20.232 48.1046 20.904 47.2726 21.512C46.6646 21.928 45.9446 22.296 45.1126 22.616C44.2806 22.936 43.4486 23.096 42.6166 23.096ZM43.3366 15.368C43.8166 15.336 44.4406 15.208 45.2086 14.984C45.9766 14.728 46.6166 14.392 47.1286 13.976C47.6726 13.528 47.9446 13.032 47.9446 12.488C47.9446 11.976 47.6726 11.48 47.1286 11C46.6806 11.32 46.1846 11.784 45.6406 12.392C45.1286 12.968 44.6646 13.544 44.2486 14.12C43.8326 14.664 43.5286 15.08 43.3366 15.368ZM59.1613 23.144C58.9693 23.144 58.8733 23.032 58.8733 22.808C58.8733 22.648 58.9213 22.456 59.0173 22.232C59.2733 21.688 59.5613 20.92 59.8813 19.928C60.2333 18.936 60.6653 18.088 61.1773 17.384C61.5293 16.68 61.8493 15.992 62.1373 15.32C62.4573 14.616 62.7613 13.912 63.0493 13.208C63.0493 13.208 63.0173 13.192 62.9532 13.16C62.8893 13.096 62.8573 13.032 62.8573 12.968C62.6973 12.84 62.5052 12.664 62.2812 12.44C62.0573 12.184 62.0413 11.928 62.2333 11.672C62.2973 11.608 62.3293 11.576 62.3293 11.576C62.3613 11.576 62.3773 11.576 62.3773 11.576C62.3773 11.544 62.3613 11.528 62.3293 11.528C62.3293 11.528 62.3293 11.512 62.3293 11.48L62.2812 11.432C62.2493 11.432 62.2173 11.432 62.1853 11.432C62.1853 11.4 62.1693 11.384 62.1373 11.384C62.0093 11.384 61.8653 11.416 61.7053 11.48C61.5453 11.512 61.3853 11.528 61.2253 11.528C61.0333 11.528 60.7773 11.608 60.4573 11.768C60.1373 11.896 59.8493 12.008 59.5933 12.104C59.4653 12.136 59.3853 12.152 59.3533 12.152C59.3533 12.12 59.2893 12.136 59.1613 12.2C59.1293 12.232 59.1293 12.184 59.1613 12.056C59.2253 11.896 59.2573 11.784 59.2573 11.72C59.2573 11.688 59.2413 11.672 59.2093 11.672C59.1453 11.672 59.0173 11.768 58.8253 11.96C58.6333 12.12 58.5053 12.216 58.4413 12.248C58.4093 12.28 58.3933 12.328 58.3933 12.392C58.4253 12.456 58.4413 12.52 58.4413 12.584C58.4413 12.68 58.3613 12.792 58.2013 12.92C58.0413 13.016 57.9293 13.096 57.8653 13.16C57.7373 13.256 57.5773 13.32 57.3853 13.352C57.2253 13.352 57.0653 13.416 56.9053 13.544C56.7133 13.672 56.6172 13.768 56.6172 13.832C56.6493 13.896 56.5533 14.008 56.3293 14.168C56.0413 14.392 55.6413 14.728 55.1293 15.176C54.6493 15.624 54.2813 16.024 54.0253 16.376C53.4173 17.112 52.8573 17.96 52.3453 18.92C51.8653 19.88 51.6253 20.632 51.6253 21.176C51.6253 21.592 51.8013 21.8 52.1533 21.8C52.2173 21.8 52.2813 21.8 52.3453 21.8C52.4093 21.768 52.4893 21.736 52.5853 21.704L53.8333 20.984L54.1213 20.936V20.888L54.3133 21.032C54.3453 21 54.3293 20.952 54.2653 20.888C54.2333 20.792 54.2333 20.744 54.2653 20.744C54.2973 20.744 54.3133 20.76 54.3133 20.792C54.3453 20.792 54.3773 20.792 54.4093 20.792L54.5053 20.648C54.5053 20.648 54.5533 20.664 54.6493 20.696C54.7773 20.696 54.8733 20.664 54.9373 20.6C55.0333 20.568 55.0493 20.52 54.9853 20.456C54.9533 20.392 54.9053 20.344 54.8413 20.312L55.1773 20.024C55.2093 19.96 55.3373 19.896 55.5613 19.832C56.1053 19.48 56.5533 19.064 56.9053 18.584C57.2893 18.072 57.7213 17.608 58.2013 17.192H58.2493L58.8253 16.616L58.7773 16.472L59.4013 15.752H59.4973C59.5293 15.688 59.5933 15.608 59.6893 15.512C59.8173 15.416 59.8973 15.336 59.9293 15.272C59.9933 15.24 60.1373 15.08 60.3613 14.792C60.6173 14.472 60.8573 14.216 61.0813 14.024C61.3373 13.832 61.4813 13.736 61.5133 13.736C61.5453 13.736 61.5613 13.752 61.5613 13.784C61.5613 13.88 61.5133 14.024 61.4173 14.216C61.3533 14.408 61.2893 14.536 61.2253 14.6C61.0013 14.952 60.7133 15.352 60.3613 15.8C60.0093 16.216 59.8013 16.472 59.7373 16.568C59.3533 16.984 58.8893 17.544 58.3453 18.248C57.8013 18.92 57.2093 19.592 56.5693 20.264C55.9293 20.936 55.2893 21.512 54.6493 21.992C54.0413 22.44 53.4653 22.664 52.9213 22.664C52.4093 22.664 51.8653 22.504 51.2893 22.184C50.7133 21.864 50.4253 21.256 50.4253 20.36C50.4253 20.072 50.4573 19.752 50.5213 19.4C50.6173 19.016 50.7613 18.616 50.9533 18.2C50.9533 18.2 50.9853 18.168 51.0493 18.104C51.1133 18.008 51.1613 17.976 51.1933 18.008C51.2573 17.912 51.2733 17.816 51.2413 17.72C51.2413 17.592 51.2413 17.512 51.2413 17.48L51.3373 17.384C51.4013 17.032 51.6413 16.712 52.0573 16.424C52.4733 16.136 52.6973 15.912 52.7293 15.752C52.7613 15.72 52.7773 15.672 52.7773 15.608L52.9693 14.984V14.792H53.1613L53.3053 14.6L53.3533 14.504C53.2893 14.472 53.3053 14.424 53.4013 14.36C53.5293 14.264 53.5933 14.216 53.5933 14.216C53.6253 14.152 53.6573 14.104 53.6893 14.072C53.7533 14.04 53.8013 14.008 53.8333 13.976H54.1693C54.2333 13.88 54.2013 13.832 54.0733 13.832C53.9453 13.832 53.8813 13.832 53.8813 13.832C53.8813 13.8 53.8813 13.784 53.8813 13.784C53.9133 13.752 53.9293 13.72 53.9293 13.688L54.4573 13.256C54.6173 13.128 54.7773 13.016 54.9373 12.92C55.0973 12.824 55.2413 12.712 55.3693 12.584C55.4653 12.584 55.4813 12.632 55.4173 12.728C55.4493 12.792 55.4813 12.792 55.5133 12.728C55.5773 12.664 55.6093 12.632 55.6093 12.632L55.8493 12.584V12.536C55.8493 12.472 55.8653 12.376 55.8973 12.248C55.9293 12.12 55.9453 12.04 55.9453 12.008C56.6173 11.496 57.3213 11.048 58.0573 10.664C58.7933 10.248 59.5133 10.04 60.2173 10.04C61.0493 10.04 61.8013 10.36 62.4733 11L62.7133 11.144C62.7453 11.144 62.7613 11.128 62.7613 11.096C62.8253 10.648 63.1933 10.312 63.8653 10.088C64.5693 9.864 65.1933 9.752 65.7373 9.752C66.3133 9.752 66.6013 9.832 66.6013 9.992C66.6013 10.056 66.5053 10.168 66.3133 10.328C66.2173 10.392 66.0573 10.536 65.8333 10.76C65.6093 10.984 65.3853 11.256 65.1613 11.576C65.1293 11.672 65.0813 11.768 65.0173 11.864C64.9533 11.96 64.8893 12.056 64.8253 12.152C64.7933 12.216 64.7453 12.296 64.6813 12.392C64.6493 12.456 64.6013 12.52 64.5373 12.584C63.9933 13.512 63.5613 14.296 63.2413 14.936C62.9213 15.576 62.5373 16.392 62.0893 17.384C62.0253 17.576 61.9933 17.688 61.9933 17.72C61.9933 17.976 62.1373 18.104 62.4253 18.104C62.6173 18.104 62.8093 18.056 63.0013 17.96L63.4813 17.768C64.2493 17.064 65.0493 16.472 65.8813 15.992C65.9133 15.992 65.9293 15.992 65.9293 15.992C65.9613 15.96 65.9933 15.944 66.0253 15.944C66.1213 15.944 66.1853 16.008 66.2173 16.136C66.2493 16.232 66.2173 16.312 66.1213 16.376C65.1933 16.888 64.3293 17.544 63.5293 18.344C63.4973 18.408 63.4653 18.472 63.4333 18.536C63.4013 18.6 63.3533 18.664 63.2893 18.728C63.1933 18.792 63.0973 18.904 63.0013 19.064C62.9053 19.224 62.8573 19.32 62.8573 19.352C62.8253 19.448 62.7773 19.48 62.7133 19.448C62.6813 19.416 62.5853 19.464 62.4253 19.592C62.3933 19.624 62.3613 19.688 62.3293 19.784C62.3293 19.88 62.3133 19.96 62.2812 20.024C62.2173 20.12 62.1533 20.2 62.0893 20.264C62.0253 20.296 61.9933 20.328 61.9933 20.36C61.9613 20.488 61.8973 20.568 61.8013 20.6C61.7373 20.6 61.6733 20.632 61.6093 20.696C61.5773 20.696 61.5613 20.712 61.5613 20.744C61.5613 21.032 61.5293 21.16 61.4653 21.128C61.4013 21.096 61.3373 21.128 61.2733 21.224C61.2093 21.352 61.1293 21.416 61.0333 21.416C60.8413 21.48 60.7613 21.528 60.7933 21.56C60.8573 21.592 60.9053 21.624 60.9373 21.656C61.0013 21.656 60.9533 21.704 60.7933 21.8C60.7293 21.832 60.6653 21.928 60.6013 22.088C60.5373 22.216 60.4733 22.312 60.4093 22.376C60.3133 22.44 60.2173 22.488 60.1213 22.52C60.0253 22.552 59.9453 22.616 59.8813 22.712C59.5933 23 59.3533 23.144 59.1613 23.144ZM67.391 23.144C67.199 23.144 67.103 23.032 67.103 22.808C67.103 22.648 67.151 22.456 67.247 22.232C67.503 21.688 67.791 20.92 68.111 19.928C68.463 18.936 68.895 18.088 69.407 17.384L71.807 12.44C71.615 12.44 71.423 12.488 71.231 12.584C71.071 12.68 70.991 12.76 70.991 12.824C70.991 12.952 70.815 13.08 70.463 13.208C70.111 13.336 69.919 13.416 69.887 13.448C69.407 13.576 68.959 13.72 68.543 13.88C68.223 14.232 67.903 14.584 67.583 14.936C67.295 15.288 67.023 15.64 66.767 15.992C66.735 16.024 66.703 16.04 66.671 16.04C66.383 16.36 66.143 16.6 65.951 16.76C65.759 16.92 65.551 17.064 65.327 17.192C65.199 17.288 65.071 17.32 64.943 17.288C64.783 17.224 64.767 17.16 64.895 17.096C65.055 17.032 65.311 16.808 65.663 16.424C66.015 16.04 66.287 15.752 66.479 15.56C66.639 15.464 66.687 15.464 66.623 15.56C66.591 15.656 66.639 15.64 66.767 15.512L67.967 13.976L68.015 13.928C67.855 13.832 67.775 13.576 67.775 13.16C67.775 12.84 67.839 12.584 67.967 12.392C67.967 12.36 67.999 12.344 68.063 12.344L69.071 12.056C69.167 12.056 69.231 12.04 69.263 12.008C69.327 11.944 69.391 11.864 69.455 11.768C69.551 11.64 69.663 11.48 69.791 11.288L70.367 10.52L70.751 9.992C70.751 9.896 70.815 9.784 70.943 9.656C71.103 9.496 71.231 9.384 71.327 9.32C71.455 9.128 71.535 8.984 71.567 8.888C71.631 8.76 71.727 8.6 71.855 8.408C71.855 8.376 71.903 8.36 71.999 8.36C72.095 8.328 72.143 8.296 72.143 8.264C72.175 7.944 72.223 7.8 72.287 7.832C72.383 7.832 72.431 7.784 72.431 7.688C72.431 7.592 72.495 7.512 72.623 7.448L72.863 7.16C72.863 7.128 72.911 7.064 73.007 6.968V6.92C73.007 6.856 73.007 6.776 73.007 6.68C73.007 6.584 73.039 6.488 73.103 6.392C73.167 6.328 73.215 6.296 73.247 6.296C73.279 6.296 73.295 6.296 73.295 6.296C73.295 6.264 73.279 6.248 73.247 6.248C73.247 6.216 73.247 6.2 73.247 6.2C73.247 6.072 73.311 5.992 73.439 5.96C73.567 5.928 73.631 5.88 73.631 5.816C73.695 5.368 74.079 5.032 74.783 4.808C75.487 4.584 76.111 4.472 76.655 4.472C77.199 4.472 77.471 4.552 77.471 4.712C77.471 4.776 77.375 4.888 77.183 5.048C77.087 5.08 76.927 5.224 76.703 5.48C76.479 5.704 76.271 5.976 76.079 6.296L75.695 6.872C75.663 6.936 75.615 7.016 75.551 7.112C75.519 7.176 75.471 7.24 75.407 7.304C75.183 7.688 74.879 8.232 74.495 8.936C74.143 9.608 73.759 10.36 73.343 11.192L74.591 11.048C74.687 11.048 74.719 11.064 74.687 11.096C74.687 11.128 74.735 11.128 74.831 11.096C74.991 11.096 75.103 11.08 75.167 11.048C75.231 10.984 75.343 10.936 75.503 10.904C75.759 10.872 76.047 10.856 76.367 10.856C76.719 10.824 76.991 10.808 77.183 10.808C77.311 10.808 77.471 10.808 77.663 10.808C77.855 10.808 77.999 10.824 78.095 10.856C78.159 10.856 78.175 10.888 78.143 10.952C78.143 10.984 78.159 11 78.191 11C78.255 11 78.303 10.984 78.335 10.952C78.399 10.92 78.463 10.904 78.527 10.904C78.559 10.872 78.607 10.872 78.671 10.904C78.767 10.904 78.831 10.904 78.863 10.904L79.343 11.048C79.535 11.08 79.631 11.192 79.631 11.384C79.663 11.576 79.583 11.64 79.391 11.576C79.263 11.512 79.151 11.48 79.055 11.48H77.855C77.631 11.48 77.423 11.48 77.231 11.48C77.039 11.48 76.847 11.496 76.655 11.528C76.591 11.56 76.559 11.528 76.559 11.432C76.591 11.336 76.575 11.288 76.511 11.288C76.479 11.288 76.431 11.336 76.367 11.432C76.303 11.496 76.255 11.528 76.223 11.528L75.983 11.672C75.471 11.8 74.927 11.944 74.351 12.104C73.775 12.232 73.215 12.376 72.671 12.536C72.191 13.528 71.727 14.472 71.279 15.368C70.863 16.232 70.543 16.904 70.319 17.384C70.255 17.576 70.223 17.688 70.223 17.72C70.223 17.976 70.367 18.104 70.655 18.104C70.847 18.104 71.039 18.056 71.231 17.96L71.711 17.768C72.479 17.064 73.279 16.472 74.111 15.992C74.143 15.992 74.159 15.992 74.159 15.992C74.191 15.96 74.223 15.944 74.255 15.944C74.351 15.944 74.415 16.008 74.447 16.136C74.479 16.232 74.447 16.312 74.351 16.376C73.423 16.888 72.559 17.544 71.759 18.344C71.727 18.408 71.695 18.472 71.663 18.536C71.631 18.6 71.583 18.664 71.519 18.728C71.455 18.792 71.359 18.904 71.231 19.064C71.135 19.224 71.087 19.32 71.087 19.352C71.055 19.448 71.007 19.48 70.943 19.448C70.911 19.416 70.815 19.464 70.655 19.592C70.623 19.624 70.591 19.688 70.559 19.784C70.559 19.88 70.543 19.96 70.511 20.024C70.447 20.12 70.383 20.2 70.319 20.264C70.255 20.296 70.223 20.328 70.223 20.36C70.191 20.488 70.127 20.568 70.031 20.6C69.967 20.6 69.903 20.632 69.839 20.696C69.807 20.696 69.791 20.712 69.791 20.744C69.791 21.032 69.759 21.16 69.695 21.128C69.631 21.096 69.583 21.128 69.551 21.224C69.423 21.352 69.327 21.416 69.263 21.416C69.071 21.48 68.991 21.528 69.023 21.56C69.087 21.592 69.135 21.624 69.167 21.656C69.231 21.656 69.183 21.704 69.023 21.8C68.959 21.832 68.895 21.928 68.831 22.088C68.767 22.216 68.703 22.312 68.639 22.376C68.543 22.44 68.447 22.488 68.351 22.52C68.255 22.552 68.175 22.616 68.111 22.712C67.823 23 67.583 23.144 67.391 23.144ZM70.127 11.864C70.255 11.832 70.367 11.8 70.463 11.768C70.591 11.736 70.719 11.688 70.847 11.624L72.287 11.384C72.671 10.616 73.007 9.928 73.295 9.32C73.583 8.68 73.791 8.216 73.919 7.928C73.919 7.928 73.887 7.912 73.823 7.88C73.791 7.816 73.775 7.752 73.775 7.688C73.711 7.656 73.631 7.608 73.535 7.544C73.471 7.48 73.407 7.432 73.343 7.4L72.911 7.832L72.383 8.552C72.383 8.584 72.335 8.616 72.239 8.648C72.175 8.648 72.143 8.664 72.143 8.696C72.143 8.792 72.095 8.888 71.999 8.984C71.935 9.08 71.871 9.112 71.807 9.08L71.615 9.56C71.615 9.656 71.567 9.736 71.471 9.8L71.135 10.232C71.135 10.264 71.119 10.296 71.087 10.328C71.087 10.328 71.087 10.36 71.087 10.424C71.055 10.488 71.007 10.568 70.943 10.664C70.879 10.76 70.799 10.856 70.703 10.952C70.671 10.952 70.655 10.968 70.655 11C70.655 11 70.639 11 70.607 11L70.463 11.288C70.335 11.352 70.255 11.384 70.223 11.384L70.175 11.48C70.175 11.672 70.159 11.8 70.127 11.864ZM76.49 25.784C76.362 25.784 76.234 25.72 76.106 25.592C75.978 25.464 75.93 25.384 75.962 25.352C75.994 25.192 76.042 25.032 76.106 24.872C76.17 24.712 76.234 24.568 76.298 24.44C76.65 23.704 77.13 23.016 77.738 22.376C78.378 21.704 79.05 21.064 79.754 20.456C79.498 20.392 79.338 20.36 79.274 20.36C78.986 20.392 78.762 20.456 78.602 20.552C78.474 20.648 78.234 20.744 77.882 20.84C77.754 20.872 77.642 20.904 77.546 20.936C77.45 20.936 77.37 20.936 77.306 20.936C77.05 20.936 76.922 20.856 76.922 20.696C76.922 20.632 76.954 20.552 77.018 20.456C77.114 20.328 77.178 20.248 77.21 20.216C77.594 19.8 78.026 19.448 78.506 19.16C78.986 18.872 79.498 18.728 80.042 18.728C80.49 18.728 80.97 18.856 81.482 19.112L82.058 18.632C82.378 18.376 82.698 18.12 83.018 17.864C83.338 17.576 83.658 17.288 83.978 17C83.85 17 83.834 16.984 83.93 16.952C84.026 16.888 84.01 16.856 83.882 16.856H83.786C83.37 16.856 83.162 16.92 83.162 17.048C83.162 17.112 83.002 17.192 82.682 17.288C82.362 17.352 82.186 17.384 82.154 17.384L80.618 17.72C80.394 17.72 80.282 17.56 80.282 17.24C80.25 17.08 80.298 16.936 80.426 16.808C80.458 16.776 80.49 16.76 80.522 16.76L81.434 16.616C81.626 16.584 81.882 16.552 82.202 16.52C82.522 16.488 82.794 16.44 83.018 16.376L84.41 16.232H84.698C85.05 15.848 85.386 15.512 85.706 15.224C85.77 15.192 85.834 15.208 85.898 15.272C85.962 15.304 86.01 15.304 86.042 15.272C86.106 15.208 86.138 15.128 86.138 15.032C86.17 14.936 86.234 14.856 86.33 14.792C86.65 14.536 86.954 14.232 87.242 13.88C87.562 13.528 87.898 13.192 88.25 12.872H88.106C87.818 12.872 87.562 12.792 87.338 12.632H87.194C87.002 12.632 86.762 12.6 86.474 12.536C86.218 12.44 86.106 12.328 86.138 12.2L86.042 12.056C86.01 12.056 85.962 12.072 85.898 12.104C85.866 12.104 85.818 12.104 85.754 12.104C85.626 12.104 85.338 12.04 84.89 11.912C84.442 11.784 83.994 11.656 83.546 11.528C83.354 11.464 83.162 11.432 82.97 11.432C82.81 11.432 82.698 11.384 82.634 11.288H82.538C82.122 11.512 81.754 11.784 81.434 12.104C81.114 12.392 80.922 12.712 80.858 13.064C80.826 13.192 80.73 13.256 80.57 13.256C80.442 13.224 80.394 13.144 80.426 13.016C80.49 12.568 80.698 12.168 81.05 11.816C81.434 11.464 81.834 11.176 82.25 10.952C82.282 10.92 82.298 10.904 82.298 10.904C82.298 10.872 82.298 10.856 82.298 10.856C82.426 10.664 82.65 10.472 82.97 10.28C83.29 10.056 83.562 9.912 83.786 9.848C83.818 9.784 83.866 9.736 83.93 9.704C84.026 9.672 84.09 9.64 84.122 9.608C84.218 9.544 84.33 9.512 84.458 9.512C84.522 9.512 84.586 9.528 84.65 9.56C84.714 9.56 84.81 9.576 84.938 9.608C85.066 9.544 85.178 9.512 85.274 9.512C85.402 9.48 85.514 9.464 85.61 9.464C85.674 9.464 85.834 9.496 86.09 9.56C86.346 9.592 86.554 9.736 86.714 9.992C87.514 11.08 88.49 11.72 89.642 11.912C89.77 11.944 89.978 11.944 90.266 11.912C90.586 11.88 90.81 11.88 90.938 11.912C91.514 11.592 91.994 11.24 92.378 10.856C92.698 10.6 92.874 10.344 92.906 10.088C92.906 10.024 92.954 9.992 93.05 9.992C93.146 9.96 93.194 9.928 93.194 9.896C93.29 9.768 93.386 9.704 93.482 9.704C93.738 9.704 93.802 9.816 93.674 10.04L93.29 10.52C93.29 10.584 93.242 10.648 93.146 10.712C92.57 11.224 92.026 11.8 91.514 12.44C91.034 13.048 90.474 13.56 89.834 13.976C89.802 14.008 89.738 14.024 89.642 14.024C89.482 14.024 89.29 13.992 89.066 13.928C88.874 13.832 88.714 13.816 88.586 13.88C88.106 14.232 87.626 14.6 87.146 14.984C86.666 15.336 86.17 15.72 85.658 16.136L86.378 16.04C86.474 16.008 86.506 16.008 86.474 16.04C86.474 16.072 86.522 16.088 86.618 16.088C86.778 16.056 86.874 16.04 86.906 16.04C86.97 16.008 87.066 15.992 87.194 15.992C87.77 15.928 88.282 15.896 88.73 15.896C88.858 15.896 89.002 15.896 89.162 15.896C89.322 15.896 89.45 15.912 89.546 15.944C89.61 15.944 89.626 15.96 89.594 15.992C89.594 15.992 89.61 16.008 89.642 16.04C89.706 16.04 89.754 16.04 89.786 16.04C89.818 16.008 89.866 15.976 89.93 15.944C89.962 15.944 90.01 15.944 90.074 15.944C90.138 15.944 90.186 15.96 90.218 15.992C90.442 15.992 90.586 16.008 90.65 16.04C90.81 16.072 90.89 16.136 90.89 16.232C90.922 16.328 90.858 16.36 90.698 16.328C90.666 16.328 90.618 16.328 90.554 16.328C90.522 16.296 90.474 16.28 90.41 16.28H90.074C89.818 16.28 89.514 16.28 89.162 16.28C88.842 16.28 88.538 16.296 88.25 16.328C88.218 16.328 88.202 16.312 88.202 16.28C88.202 16.216 88.17 16.184 88.106 16.184C88.106 16.184 88.074 16.216 88.01 16.28C87.946 16.312 87.898 16.328 87.866 16.328C87.834 16.328 87.802 16.344 87.77 16.376C87.738 16.376 87.69 16.376 87.626 16.376L84.698 16.904L84.65 16.952C84.266 17.336 83.866 17.704 83.45 18.056C83.034 18.408 82.602 18.76 82.154 19.112C82.122 19.144 82.09 19.192 82.058 19.256C82.026 19.288 81.978 19.32 81.914 19.352C82.49 19.736 83.018 20.2 83.498 20.744C84.01 21.288 84.442 21.736 84.794 22.088C85.498 22.76 86.41 23.208 87.53 23.432C88.65 23.656 89.61 23.72 90.41 23.624C90.698 23.56 90.938 23.432 91.13 23.24C91.354 23.048 91.53 22.84 91.658 22.616V22.568C91.658 22.536 91.69 22.488 91.754 22.424C91.85 22.36 91.914 22.36 91.946 22.424C91.978 22.424 91.946 22.488 91.85 22.616C91.786 22.744 91.754 22.808 91.754 22.808C91.818 22.84 91.85 22.904 91.85 23C91.85 23.128 91.866 23.192 91.898 23.192C91.962 23.192 92.026 23.144 92.09 23.048C92.186 22.952 92.234 22.888 92.234 22.856C92.33 22.696 92.394 22.536 92.426 22.376C92.49 22.184 92.538 22.024 92.57 21.896C92.666 21.512 92.714 21.08 92.714 20.6C92.714 20.12 92.634 19.672 92.474 19.256C92.314 18.808 92.01 18.552 91.562 18.488C91.498 18.488 91.466 18.456 91.466 18.392C91.466 18.328 91.514 18.248 91.61 18.152C91.706 18.056 91.802 18.024 91.898 18.056C92.442 18.12 92.794 18.392 92.954 18.872C93.146 19.32 93.242 19.816 93.242 20.36C93.242 20.84 93.194 21.304 93.098 21.752C93.066 21.944 93.002 22.168 92.906 22.424C92.842 22.648 92.73 22.872 92.57 23.096C92.378 23.992 91.946 24.632 91.274 25.016C90.634 25.4 89.93 25.592 89.162 25.592C88.49 25.592 87.834 25.464 87.194 25.208C86.554 24.952 86.026 24.6 85.61 24.152C85.226 23.704 84.842 23.224 84.458 22.712C84.074 22.2 83.658 21.736 83.21 21.32C82.986 21.096 82.746 20.888 82.49 20.696C82.234 20.472 81.93 20.36 81.578 20.36C81.386 20.36 81.242 20.376 81.146 20.408C80.858 20.504 80.618 20.552 80.426 20.552L79.322 21.416C79.034 21.64 78.762 21.896 78.506 22.184C78.25 22.472 77.994 22.744 77.738 23C77.706 23.032 77.642 23.112 77.546 23.24C77.482 23.4 77.434 23.48 77.402 23.48C77.114 23.864 76.922 24.2 76.826 24.488C76.826 24.52 76.858 24.616 76.922 24.776C76.986 24.968 77.002 25.112 76.97 25.208L76.634 25.736C76.602 25.768 76.554 25.784 76.49 25.784Z" fill="black"/>
</g>
<defs>
<filter id="filter0_d_3_147" x="0.940002" y="0.152008" width="96.926" height="34.304" filterUnits="userSpaceOnUse" color-interpolation-filters="sRGB">
<feFlood flood-opacity="0" result="BackgroundImageFix"/>
<feColorMatrix in="SourceAlpha" type="matrix" values="0 0 0 0 0 0 0 0 0 0 0 0 0 0 0 0 0 0 127 0" result="hardAlpha"/>
<feOffset dy="4"/>
<feGaussianBlur stdDeviation="2"/>
<feComposite in2="hardAlpha" operator="out"/>
<feColorMatrix type="matrix" values="0 0 0 0 0 0 0 0 0 0 0 0 0 0 0 0 0 0 0.25 0"/>
<feBlend mode="normal" in2="BackgroundImageFix" result="effect1_dropShadow_3_147"/>
<feBlend mode="normal" in="SourceGraphic" in2="effect1_dropShadow_3_147" result="shape"/>
</filter>
</defs>
</svg>
