<svg width="360" height="640" viewBox="0 0 360 640" fill="none" xmlns="http://www.w3.org/2000/svg">
<g clip-path="url(#clip0_5_2)">
<rect width="360" height="640" fill="#151515"/>
<path d="M-13 529C9.09139 529 27 511.091 27 489C27 466.909 9.09139 449 -13 449C-35.0914 449 -53 466.909 -53 489C-53 511.091 -35.0914 529 -13 529Z" fill="#E1E6FB"/>
<path d="M300.412 140.699C304.398 140.699 307.629 137.468 307.629 133.482C307.629 129.496 304.398 126.264 300.412 126.264C296.426 126.264 293.194 129.496 293.194 133.482C293.194 137.468 296.426 140.699 300.412 140.699Z" fill="#E1E6FB"/>
<path d="M246.559 82.9599C254.531 82.9599 260.994 76.4973 260.994 68.5251C260.994 60.553 254.531 54.0903 246.559 54.0903C238.587 54.0903 232.124 60.553 232.124 68.5251C232.124 76.4973 238.587 82.9599 246.559 82.9599Z" fill="#E1E6FB"/>
<path d="M344.435 538.87C352.407 538.87 358.87 532.407 358.87 524.435C358.87 516.463 352.407 510 344.435 510C336.463 510 330 516.463 330 524.435C330 532.407 336.463 538.87 344.435 538.87Z" fill="#E1E6FB"/>
<path d="M20.4348 567.87C28.4069 567.87 34.8696 561.407 34.8696 553.435C34.8696 545.463 28.4069 539 20.4348 539C12.4627 539 6 545.463 6 553.435C6 561.407 12.4627 567.87 20.4348 567.87Z" fill="#E1E6FB"/>
<path d="M114.147 36.8796C117.98 36.8796 121.087 33.7726 121.087 29.9398C121.087 26.1071 117.98 23 114.147 23C110.314 23 107.207 26.1071 107.207 29.9398C107.207 33.7726 110.314 36.8796 114.147 36.8796Z" fill="#E1E6FB"/>
<path d="M41.9398 146.88C45.7726 146.88 48.8796 143.773 48.8796 139.94C48.8796 136.107 45.7726 133 41.9398 133C38.1071 133 35 136.107 35 139.94C35 143.773 38.1071 146.88 41.9398 146.88Z" fill="#E1E6FB"/>
<path d="M315.679 94.6188C319.512 94.6188 322.619 91.5118 322.619 87.679C322.619 83.8463 319.512 80.7392 315.679 80.7392C311.847 80.7392 308.74 83.8463 308.74 87.679C308.74 91.5118 311.847 94.6188 315.679 94.6188Z" fill="#BAC5F4"/>
<path d="M41.9398 581.88C45.7726 581.88 48.8796 578.773 48.8796 574.94C48.8796 571.107 45.7726 568 41.9398 568C38.1071 568 35 571.107 35 574.94C35 578.773 38.1071 581.88 41.9398 581.88Z" fill="#BAC5F4"/>
<path d="M330.495 201.99C334.634 201.99 337.99 198.634 337.99 194.495C337.99 190.356 334.634 187 330.495 187C326.356 187 323 190.356 323 194.495C323 198.634 326.356 201.99 330.495 201.99Z" fill="#BAC5F4"/>
<path d="M300.495 567.99C304.634 567.99 307.99 564.634 307.99 560.495C307.99 556.356 304.634 553 300.495 553C296.356 553 293 556.356 293 560.495C293 564.634 296.356 567.99 300.495 567.99Z" fill="#BAC5F4"/>
<path d="M321.231 213.428C323.531 213.428 325.395 211.564 325.395 209.264C325.395 206.965 323.531 205.101 321.231 205.101C318.931 205.101 317.067 206.965 317.067 209.264C317.067 211.564 318.931 213.428 321.231 213.428Z" fill="#BAC5F4"/>
<path d="M62.1037 120.207C68.2361 120.207 73.2074 115.236 73.2074 109.104C73.2074 102.971 68.2361 98 62.1037 98C55.9713 98 51 102.971 51 109.104C51 115.236 55.9713 120.207 62.1037 120.207Z" fill="#BAC5F4"/>
<path d="M328.104 510.207C334.236 510.207 339.207 505.236 339.207 499.104C339.207 492.971 334.236 488 328.104 488C321.971 488 317 492.971 317 499.104C317 505.236 321.971 510.207 328.104 510.207Z" fill="#BAC5F4"/>
<path d="M63.1639 139.328C65.4635 139.328 67.3278 137.464 67.3278 135.164C67.3278 132.864 65.4635 131 63.1639 131C60.8642 131 59 132.864 59 135.164C59 137.464 60.8642 139.328 63.1639 139.328Z" fill="#BAC5F4"/>
</g>
<path d="M13.3244 42.6489C20.6833 42.6489 26.6489 36.6833 26.6489 29.3244C26.6489 21.9656 20.6833 16 13.3244 16C5.96555 16 0 21.9656 0 29.3244C0 36.6833 5.96555 42.6489 13.3244 42.6489Z" fill="#E1E6FB"/>
<defs>
<clipPath id="clip0_5_2">
<rect width="360" height="640" fill="white"/>
</clipPath>
</defs>
</svg>
