<svg width="69" height="27" viewBox="0 0 69 27" fill="none" xmlns="http://www.w3.org/2000/svg">
<g filter="url(#filter0_d_5_62)">
<path d="M18.56 17.952C18.432 17.952 18.304 17.9413 18.176 17.92C18.048 17.92 17.9093 17.9093 17.76 17.888C17.7387 17.888 17.6853 17.856 17.6 17.792C17.5147 17.7493 17.4507 17.728 17.408 17.728C17.28 17.728 17.1413 17.7173 16.992 17.696C16.864 17.696 16.7253 17.6853 16.576 17.664C16.5547 17.6427 16.5333 17.6107 16.512 17.568C16.512 17.5467 16.4907 17.536 16.448 17.536C16.4267 17.536 16.416 17.536 16.416 17.536C16.4373 17.5573 16.4373 17.568 16.416 17.568C16.3947 17.568 16.3413 17.5467 16.256 17.504C16.192 17.4613 16.1387 17.4293 16.096 17.408V17.344C16.0107 17.3227 15.9573 17.2907 15.936 17.248C15.9147 17.2267 15.8933 17.216 15.872 17.216H15.808C15.7653 17.216 15.744 17.2053 15.744 17.184C15.6587 17.1413 15.552 17.0773 15.424 16.992C15.296 16.928 15.2107 16.864 15.168 16.8C15.0827 16.7787 15.0293 16.7467 15.008 16.704C14.9867 16.6827 14.9547 16.6507 14.912 16.608C14.8907 16.5653 14.8693 16.544 14.848 16.544C14.848 16.5653 14.8373 16.5653 14.816 16.544C14.7307 16.416 14.624 16.3093 14.496 16.224C14.496 16.2027 14.4853 16.1813 14.464 16.16C14.464 16.16 14.464 16.1493 14.464 16.128C14.4213 16.128 14.3893 16.1173 14.368 16.096C14.3467 16.0533 14.336 16.0213 14.336 16C14.336 15.9573 14.3147 15.936 14.272 15.936C14.2507 15.8293 14.2187 15.7547 14.176 15.712C14.1333 15.6693 14.0907 15.6053 14.048 15.52C14.0267 15.4773 14.016 15.4347 14.016 15.392C14.016 15.328 13.9947 15.296 13.952 15.296V15.264C13.9733 15.2213 13.9413 15.104 13.856 14.912C13.792 14.6987 13.76 14.5173 13.76 14.368L13.696 14.336C13.632 14.2293 13.5893 14.1013 13.568 13.952C13.568 13.8027 13.5787 13.6533 13.6 13.504C13.6427 13.3333 13.6427 13.2587 13.6 13.28C13.5573 13.3013 13.5573 13.1947 13.6 12.96L13.824 12.512C13.824 12.4693 13.8133 12.4267 13.792 12.384C13.7707 12.3413 13.76 12.3093 13.76 12.288C13.76 12.2667 13.7707 12.2453 13.792 12.224C13.8133 12.2027 13.824 12.1813 13.824 12.16C13.8453 12.1173 13.856 12.0533 13.856 11.968C13.856 11.8827 13.8667 11.8293 13.888 11.808C13.9093 11.7653 13.9413 11.7333 13.984 11.712C14.0267 11.6693 14.0587 11.6373 14.08 11.616L14.24 11.232C14.2827 11.1893 14.3147 11.1573 14.336 11.136C14.3787 11.0933 14.4107 11.0507 14.432 11.008C14.4747 10.944 14.5067 10.8907 14.528 10.848C14.5493 10.784 14.5813 10.72 14.624 10.656C14.6453 10.6133 14.6773 10.5707 14.72 10.528C14.784 10.4853 14.8267 10.4533 14.848 10.432C14.9547 10.368 15.04 10.336 15.104 10.336C15.1893 10.336 15.2427 10.4213 15.264 10.592L15.232 10.752C15.1467 10.8587 15.0613 10.9547 14.976 11.04C14.8907 11.104 14.7947 11.1787 14.688 11.264C14.688 11.2853 14.6773 11.3173 14.656 11.36C14.656 11.3813 14.656 11.4133 14.656 11.456C14.6133 11.456 14.592 11.4773 14.592 11.52C14.592 11.5413 14.5813 11.5733 14.56 11.616C14.56 11.6373 14.528 11.68 14.464 11.744C14.4427 11.7867 14.4213 11.84 14.4 11.904C14.4 11.9467 14.3893 11.9893 14.368 12.032L14.272 12.096L14.24 12.864C14.2613 12.8853 14.2827 12.8853 14.304 12.864C14.3253 12.9067 14.336 12.9707 14.336 13.056V13.088L14.304 13.12V13.376C14.2827 13.3973 14.272 13.4187 14.272 13.44C14.272 13.4613 14.2827 13.4933 14.304 13.536C14.3253 13.5573 14.336 13.5893 14.336 13.632C14.3147 13.6533 14.304 13.6853 14.304 13.728C14.304 13.7707 14.3253 13.8133 14.368 13.856V13.952C14.4107 14.016 14.464 14.08 14.528 14.144C14.592 14.1867 14.6453 14.2293 14.688 14.272L14.944 14.368C15.328 14.6453 15.616 14.8373 15.808 14.944C16 15.0507 16.32 15.168 16.768 15.296C16.9387 15.3387 17.1093 15.392 17.28 15.456C17.4507 15.4987 17.6213 15.52 17.792 15.52C17.8133 15.52 17.824 15.5307 17.824 15.552C17.824 15.552 17.8347 15.552 17.856 15.552C17.9413 15.552 18.016 15.5627 18.08 15.584C18.1653 15.6053 18.2507 15.616 18.336 15.616C18.3573 15.616 18.3787 15.616 18.4 15.616C18.4213 15.5947 18.4427 15.584 18.464 15.584C18.5067 15.584 18.5387 15.5947 18.56 15.616C18.5813 15.616 18.6027 15.616 18.624 15.616C18.7947 15.616 18.9653 15.616 19.136 15.616C19.3067 15.616 19.4667 15.6053 19.616 15.584C19.7867 15.584 19.9573 15.5627 20.128 15.52C20.2987 15.4773 20.4587 15.456 20.608 15.456C20.9067 15.4347 21.1947 15.3813 21.472 15.296C21.7707 15.1893 22.0587 15.0933 22.336 15.008C22.3573 14.9867 22.5387 14.912 22.88 14.784C23.2427 14.6347 23.616 14.4747 24 14.304C24.0853 14.048 24.128 13.7387 24.128 13.376C24.128 12.7787 24 12.2453 23.744 11.776C23.744 11.776 23.6907 11.744 23.584 11.68C23.4773 11.5947 23.4133 11.552 23.392 11.552V11.488C23.392 11.3813 23.3387 11.328 23.232 11.328C23.1253 11.3067 23.0293 11.2427 22.944 11.136C22.9013 11.072 22.848 11.0187 22.784 10.976V10.944C22.72 10.9013 22.7093 10.8693 22.752 10.848C22.816 10.8053 22.8587 10.7733 22.88 10.752L22.816 10.688H22.784C22.7413 10.6453 22.688 10.6133 22.624 10.592C22.56 10.5707 22.5067 10.528 22.464 10.464L22.304 10.336C22.2827 10.2933 22.24 10.272 22.176 10.272C22.112 10.272 22.0587 10.2613 22.016 10.24C21.9307 10.176 21.8347 10.1013 21.728 10.016C21.6213 9.93067 21.5147 9.86667 21.408 9.824H21.376C21.2907 9.78133 21.2053 9.728 21.12 9.664C21.056 9.6 20.9707 9.54667 20.864 9.504C20.8427 9.46133 20.8107 9.46133 20.768 9.504C20.7467 9.52533 20.7253 9.52533 20.704 9.504C20.6187 9.46133 20.544 9.39733 20.48 9.312C20.416 9.20533 20.3307 9.152 20.224 9.152H20.192C20.128 9.10933 20.0747 9.04533 20.032 8.96C20.0107 8.85333 19.9787 8.77867 19.936 8.736C19.744 8.62933 19.552 8.55467 19.36 8.512C19.168 8.46933 18.976 8.416 18.784 8.352C18.656 8.288 18.496 8.256 18.304 8.256C18.1333 8.23467 17.9947 8.21333 17.888 8.192C17.76 8.14933 17.696 8.08533 17.696 8C17.696 7.89333 17.8027 7.78667 18.016 7.68C18.1013 7.63733 18.1973 7.616 18.304 7.616C18.4107 7.59467 18.5067 7.584 18.592 7.584C18.8267 7.584 19.1893 7.52 19.68 7.392C20.192 7.264 20.768 7.09333 21.408 6.88C22.048 6.64533 22.6667 6.4 23.264 6.144C23.392 6.10133 23.488 6.05867 23.552 6.016C23.6373 5.97333 23.7013 5.984 23.744 6.048C23.7013 6.048 23.68 6.08 23.68 6.144C23.7867 6.144 23.8507 6.112 23.872 6.048C23.9147 5.96267 23.9573 5.87733 24 5.792H24.032L24.64 5.472C24.7253 5.45067 24.8 5.46133 24.864 5.504C24.9493 5.52533 25.024 5.51467 25.088 5.472C25.0667 5.42933 25.0347 5.39733 24.992 5.376C24.9707 5.33333 24.992 5.29067 25.056 5.248C25.0987 5.20533 25.1307 5.184 25.152 5.184C25.28 5.09867 25.3973 5.04533 25.504 5.024C25.632 4.98133 25.728 4.896 25.792 4.768C26.1333 4.53333 26.4213 4.288 26.656 4.032C26.8907 3.75467 27.008 3.49867 27.008 3.264C27.008 2.96533 26.7947 2.70933 26.368 2.496C25.9627 2.26133 25.2267 2.06933 24.16 1.92C24.1173 1.92 24.0747 1.92 24.032 1.92C23.9893 1.89867 23.9467 1.888 23.904 1.888C23.6267 1.888 23.36 1.824 23.104 1.696C23.1253 1.78133 23.0827 1.824 22.976 1.824C22.6773 1.80267 22.3787 1.792 22.08 1.792C21.7813 1.77067 21.4933 1.76 21.216 1.76C20.7467 1.76 20.3093 1.77067 19.904 1.792C19.52 1.81333 19.2427 1.83467 19.072 1.856C18.9013 1.87733 18.72 1.89867 18.528 1.92C18.3573 1.92 18.1867 1.94133 18.016 1.984C17.888 1.94133 17.76 1.96267 17.632 2.048H17.6C17.4507 2.06933 17.3013 2.09067 17.152 2.112C17.0027 2.13333 16.8427 2.16533 16.672 2.208C16.5867 2.22933 16.4907 2.25067 16.384 2.272C16.2773 2.272 16.1707 2.29333 16.064 2.336L15.424 2.464C15.3387 2.528 15.2427 2.58133 15.136 2.624C15.0507 2.64533 14.9547 2.64533 14.848 2.624H14.816L14.208 2.784H14.176C14.112 2.784 14.0373 2.74133 13.952 2.656C13.888 2.54933 13.8453 2.45333 13.824 2.368C13.8027 2.496 13.7707 2.63467 13.728 2.784C13.6853 2.93333 13.6107 3.008 13.504 3.008L12.608 3.296C12.5227 3.31733 12.4267 3.328 12.32 3.328C12.2133 3.328 12.1067 3.328 12 3.328C11.8933 3.328 11.808 3.33867 11.744 3.36C11.68 3.38133 11.6373 3.43467 11.616 3.52C11.616 3.584 11.584 3.63733 11.52 3.68C11.4347 3.76533 11.328 3.82933 11.2 3.872C11.072 3.89333 10.9547 3.92533 10.848 3.968H10.816C10.7733 3.968 10.7093 3.94667 10.624 3.904C10.56 3.86133 10.5067 3.85067 10.464 3.872C10.4427 3.89333 10.4213 3.94667 10.4 4.032C10.3787 4.11733 10.3467 4.17067 10.304 4.192V4.224C10.176 4.26667 10.0373 4.32 9.888 4.384C9.73867 4.448 9.6 4.512 9.472 4.576C9.344 4.64 9.19467 4.71467 9.024 4.8C8.87467 4.864 8.74667 4.90667 8.64 4.928C8.59733 4.928 8.576 4.88533 8.576 4.8C8.59733 4.71467 8.58667 4.69333 8.544 4.736C8.416 4.8 8.288 4.91733 8.16 5.088C8.032 5.25867 7.91467 5.376 7.808 5.44C7.70133 5.52533 7.584 5.568 7.456 5.568C7.34933 5.568 7.24267 5.61067 7.136 5.696C7.072 5.76 7.008 5.86667 6.944 6.016C6.90133 6.144 6.848 6.24 6.784 6.304C6.61333 6.47467 6.44267 6.67733 6.272 6.912C6.25067 6.95467 6.21867 6.99733 6.176 7.04C6.13333 7.08267 6.112 7.136 6.112 7.2H6.08C5.952 7.456 5.888 7.70133 5.888 7.936C5.888 8.40533 6.05867 8.74667 6.4 8.96C6.76267 9.17333 7.168 9.33333 7.616 9.44C7.70133 9.46133 7.776 9.49333 7.84 9.536C7.92533 9.57867 8.01067 9.58933 8.096 9.568C8.18133 9.52533 8.256 9.504 8.32 9.504C8.42667 9.504 8.512 9.54667 8.576 9.632L9.056 9.728C9.312 9.792 9.44 9.856 9.44 9.92C9.44 9.96267 9.376 10.0053 9.248 10.048C9.14133 10.0693 9.03467 10.08 8.928 10.08C8.544 10.08 8.07467 10.0053 7.52 9.856C6.96533 9.68533 6.464 9.44 6.016 9.12C5.568 8.77867 5.312 8.36267 5.248 7.872C5.248 7.85067 5.216 7.79733 5.152 7.712C5.10933 7.62667 5.07733 7.552 5.056 7.488C4.992 7.296 4.96 7.104 4.96 6.912C4.96 6.54933 5.03467 6.208 5.184 5.888C5.35467 5.568 5.57867 5.26933 5.856 4.992C5.96267 4.88533 6.05867 4.81067 6.144 4.768C6.25067 4.72533 6.368 4.66133 6.496 4.576C6.624 4.49067 6.688 4.416 6.688 4.352C6.688 4.288 6.752 4.21333 6.88 4.128C7.05067 4.02133 7.28533 3.89333 7.584 3.744C7.904 3.59467 8.14933 3.47733 8.32 3.392C8.448 3.392 8.56533 3.33867 8.672 3.232C9.09867 3.04 9.54667 2.86933 10.016 2.72C10.4853 2.54933 10.9547 2.38933 11.424 2.24C11.552 2.176 11.68 2.144 11.808 2.144C11.936 2.144 12.032 2.176 12.096 2.24C12.096 2.19733 12.0853 2.16533 12.064 2.144C12.064 2.10133 12.0853 2.06933 12.128 2.048C12.6613 1.87733 13.1947 1.73867 13.728 1.632C14.2613 1.504 14.7733 1.39733 15.264 1.312H15.296C15.36 1.312 15.456 1.29067 15.584 1.248H15.616C15.6587 1.248 15.6907 1.248 15.712 1.248C15.7547 1.22667 15.7973 1.216 15.84 1.216C15.968 1.28 16.096 1.25867 16.224 1.152C16.8 1.04533 17.3333 0.970666 17.824 0.927999C18.3147 0.863999 18.7307 0.831999 19.072 0.831999H19.168C19.2107 0.831999 19.2533 0.831999 19.296 0.831999C19.36 0.810666 19.4133 0.799999 19.456 0.799999H19.776C19.84 0.778666 19.904 0.778666 19.968 0.799999C20.0533 0.799999 20.1173 0.799999 20.16 0.799999H20.192C20.448 0.799999 20.7147 0.810666 20.992 0.831999C21.2907 0.831999 21.5893 0.831999 21.888 0.831999H21.92C22.0053 0.853333 22.0693 0.885333 22.112 0.927999C22.176 0.970666 22.2507 0.949333 22.336 0.863999C22.912 0.885332 23.488 0.949333 24.064 1.056C24.384 1.09867 24.768 1.184 25.216 1.312C25.6853 1.41867 26.1333 1.57867 26.56 1.792C26.9867 1.984 27.3387 2.22933 27.616 2.528C27.9147 2.82667 28.064 3.18933 28.064 3.616C28.064 3.78667 28.032 3.968 27.968 4.16C27.904 4.352 27.7867 4.53333 27.616 4.704C27.4453 4.85333 27.2747 5.01333 27.104 5.184L26.72 5.536L26.496 5.6L26.24 5.728C25.7707 5.94133 25.2587 6.18667 24.704 6.464C24.1493 6.72 23.5627 6.92267 22.944 7.072L22.656 7.136H22.624V7.168H22.592C22.5493 7.18933 22.496 7.2 22.432 7.2C22.368 7.17867 22.304 7.18933 22.24 7.232C21.1947 7.50933 20.2027 7.70133 19.264 7.808C19.0507 7.82933 18.944 7.872 18.944 7.936C18.944 7.97867 19.0187 8.032 19.168 8.096C19.3387 8.13867 19.4667 8.18133 19.552 8.224C19.9573 8.352 20.384 8.49067 20.832 8.64C21.28 8.768 21.7387 8.928 22.208 9.12C22.336 9.14133 22.464 9.184 22.592 9.248C22.7413 9.312 22.848 9.408 22.912 9.536C22.9333 9.49333 22.9653 9.48267 23.008 9.504C23.0507 9.52533 23.0827 9.536 23.104 9.536C23.3813 9.664 23.648 9.80267 23.904 9.952C24.16 10.1013 24.3947 10.2613 24.608 10.432C24.6507 10.5387 24.672 10.592 24.672 10.592C24.8213 10.592 24.928 10.6347 24.992 10.72C25.056 10.8053 25.1307 10.9013 25.216 11.008C25.4507 11.264 25.632 11.5413 25.76 11.84C25.888 12.1173 25.952 12.416 25.952 12.736C25.952 12.8213 25.9413 12.9067 25.92 12.992C25.92 13.0773 25.9093 13.1733 25.888 13.28C26.3787 13.0027 26.7413 12.64 26.976 12.192C27.0187 12.128 27.072 12.096 27.136 12.096C27.264 12.096 27.3067 12.1707 27.264 12.32C27.1573 12.5973 26.9547 12.9067 26.656 13.248C26.3787 13.568 26.0587 13.8133 25.696 13.984C25.696 14.0053 25.6853 14.0267 25.664 14.048C25.5573 14.304 25.4507 14.496 25.344 14.624C25.3227 14.7093 25.28 14.7733 25.216 14.816C25.1733 14.8587 25.1413 14.912 25.12 14.976L25.088 15.008L24.96 15.072C24.9387 15.0933 24.9173 15.1253 24.896 15.168C24.896 15.2107 24.8747 15.2533 24.832 15.296C24.8747 15.3387 24.864 15.36 24.8 15.36C24.2667 16 23.584 16.5333 22.752 16.96H22.72C22.5707 17.0453 22.5173 17.0667 22.56 17.024C22.6027 17.0027 22.6027 16.9707 22.56 16.928H22.528C22.3573 17.0133 22.2507 17.0773 22.208 17.12C22.144 17.12 22.0693 17.1413 21.984 17.184C21.92 17.2267 21.888 17.248 21.888 17.248H21.728C21.7067 17.248 21.6533 17.2693 21.568 17.312C21.504 17.376 21.4507 17.4187 21.408 17.44C21.3013 17.44 21.2267 17.472 21.184 17.536C21.1413 17.536 21.088 17.536 21.024 17.536C20.96 17.536 20.896 17.5467 20.832 17.568C20.8107 17.5893 20.704 17.6 20.512 17.6C20.3413 17.6213 20.2347 17.6427 20.192 17.664C20.1707 17.6853 20.096 17.7173 19.968 17.76C19.84 17.8027 19.7547 17.824 19.712 17.824C19.6907 17.824 19.6693 17.8133 19.648 17.792C19.648 17.792 19.6373 17.792 19.616 17.792C19.5947 17.792 19.5733 17.8027 19.552 17.824C19.5307 17.8667 19.4987 17.888 19.456 17.888C19.4133 17.888 19.3707 17.8773 19.328 17.856C19.2853 17.8347 19.2427 17.824 19.2 17.824C19.1787 17.824 19.136 17.8347 19.072 17.856C19.0293 17.8987 18.9867 17.92 18.944 17.92C18.9013 17.92 18.8587 17.9093 18.816 17.888C18.7947 17.888 18.752 17.8987 18.688 17.92C18.6453 17.9413 18.6027 17.952 18.56 17.952ZM10.592 18.304C10.4427 18.304 10.368 18.144 10.368 17.824C10.368 17.6107 10.4107 17.344 10.496 17.024C10.6027 16.7253 10.7307 16.3733 10.88 15.968C11.0507 15.8187 11.136 15.6267 11.136 15.392C11.1787 15.4133 11.2 15.4133 11.2 15.392C11.2213 15.3493 11.232 15.328 11.232 15.328C11.2747 15.264 11.296 15.2 11.296 15.136C11.296 15.0507 11.3067 14.976 11.328 14.912C11.712 13.952 12.2027 12.9067 12.8 11.776C12.8427 11.6907 12.8853 11.6693 12.928 11.712C12.992 11.7333 13.0347 11.7227 13.056 11.68C13.0773 11.6587 13.088 11.6053 13.088 11.52C13.088 11.456 13.0773 11.392 13.056 11.328C13.056 11.264 13.088 11.1893 13.152 11.104L13.6 10.304C14.2187 9.19467 14.8373 8.128 15.456 7.104C16.096 6.08 16.6933 5.29067 17.248 4.736L17.344 4.672L17.44 4.512C17.44 4.512 17.4613 4.50133 17.504 4.48C17.5467 4.45867 17.5787 4.46933 17.6 4.512C17.6 4.53333 17.5787 4.576 17.536 4.64C17.5147 4.704 17.504 4.74667 17.504 4.768C17.568 4.87467 17.6427 4.88533 17.728 4.8C17.7493 4.75733 17.7493 4.66133 17.728 4.512C17.7067 4.36267 17.7067 4.288 17.728 4.288C17.7707 4.26667 17.792 4.26667 17.792 4.288C17.8133 4.30933 17.8347 4.32 17.856 4.32C17.8987 4.32 17.92 4.288 17.92 4.224C17.92 4.16 17.9307 4.11733 17.952 4.096C18.1867 4.01067 18.4 3.968 18.592 3.968C18.6987 3.968 18.848 4.02133 19.04 4.128C19.2533 4.23467 19.36 4.384 19.36 4.576C19.36 4.68267 19.3067 4.81067 19.2 4.96C19.1787 4.98133 19.1573 5.024 19.136 5.088C19.1147 5.13067 19.0827 5.17333 19.04 5.216C19.0187 5.23733 18.9973 5.248 18.976 5.248C18.976 5.22667 18.9547 5.22667 18.912 5.248C18.8907 5.26933 18.8587 5.28 18.816 5.28C18.7947 5.25867 18.7627 5.248 18.72 5.248C18.6773 5.248 18.6667 5.28 18.688 5.344C18.7307 5.408 18.7413 5.45067 18.72 5.472C18.6987 5.49333 18.6773 5.49333 18.656 5.472C18.6347 5.45067 18.6027 5.46133 18.56 5.504C18.5387 5.52533 18.5493 5.54667 18.592 5.568C18.656 5.568 18.6667 5.58933 18.624 5.632C18.496 5.76 18.336 5.89867 18.144 6.048C17.9733 6.176 17.8027 6.304 17.632 6.432C17.6107 6.45333 17.5893 6.45333 17.568 6.432C17.5467 6.38933 17.5253 6.37867 17.504 6.4L17.28 6.72C17.0667 6.93333 16.8533 7.15733 16.64 7.392C16.4267 7.62667 16.2027 7.89333 15.968 8.192C15.904 8.32 15.8293 8.43733 15.744 8.544C15.6587 8.65067 15.5413 8.69333 15.392 8.672C15.392 8.69333 15.4133 8.72533 15.456 8.768C15.4987 8.78933 15.4987 8.832 15.456 8.896C15.0933 9.408 14.7307 9.94133 14.368 10.496C14.0053 11.0507 13.664 11.6267 13.344 12.224C13.1947 12.48 13.0133 12.8107 12.8 13.216L12.512 13.792C12.4907 13.856 12.4587 13.888 12.416 13.888C12.3947 13.8667 12.3627 13.856 12.32 13.856C12.3627 13.9413 12.384 14.016 12.384 14.08C12.384 14.2507 12.288 14.432 12.096 14.624C11.8187 15.264 11.5627 15.872 11.328 16.448C11.0933 17.024 10.912 17.5573 10.784 18.048C10.7413 18.2187 10.6773 18.304 10.592 18.304ZM18.688 17.408H18.752C18.7947 17.4293 18.848 17.408 18.912 17.344H19.04C19.1253 17.3013 19.1787 17.28 19.2 17.28C19.2427 17.28 19.2747 17.3013 19.296 17.344C19.3173 17.408 19.3707 17.408 19.456 17.344L19.584 17.312C19.6267 17.2693 19.6693 17.248 19.712 17.248C19.7547 17.248 19.7973 17.2373 19.84 17.216C19.8827 17.1947 19.904 17.1627 19.904 17.12C19.9253 17.0987 19.9573 17.0987 20 17.12C20.0427 17.12 20.064 17.12 20.064 17.12C20.0853 17.1413 20.1067 17.152 20.128 17.152H20.16C20.224 17.152 20.3093 17.12 20.416 17.056C20.5227 16.992 20.576 16.96 20.576 16.96C20.6187 16.96 20.6613 16.928 20.704 16.864C20.7467 16.8213 20.7787 16.8 20.8 16.8L21.056 16.736C21.184 16.672 21.28 16.64 21.344 16.64C21.3653 16.5973 21.4293 16.5547 21.536 16.512C21.6427 16.4693 21.696 16.4373 21.696 16.416C21.7387 16.3733 21.8027 16.3413 21.888 16.32C21.9733 16.2987 22.0267 16.2773 22.048 16.256C22.1333 16.256 22.336 16.128 22.656 15.872C22.9973 15.616 23.2853 15.2853 23.52 14.88C23.5413 14.8373 23.4773 14.848 23.328 14.912C23.1787 14.976 23.0187 15.0507 22.848 15.136C22.6987 15.2 22.6133 15.232 22.592 15.232C22.5707 15.232 22.5173 15.2747 22.432 15.36C22.3467 15.424 22.2933 15.456 22.272 15.456C22.2293 15.4987 22.1867 15.52 22.144 15.52C22.144 15.52 22.1013 15.4987 22.016 15.456V15.52C21.9733 15.52 21.9413 15.5307 21.92 15.552C21.8987 15.552 21.8667 15.552 21.824 15.552C21.7813 15.552 21.7173 15.5733 21.632 15.616C21.5467 15.6587 21.4933 15.68 21.472 15.68C21.4507 15.68 21.4187 15.6907 21.376 15.712C21.3547 15.712 21.3227 15.7013 21.28 15.68C21.1947 15.7653 21.0347 15.8293 20.8 15.872C20.5653 15.9147 20.3947 15.936 20.288 15.936C20.2667 15.936 20.256 15.936 20.256 15.936C20.2773 15.9147 20.2773 15.904 20.256 15.904C20.2347 15.904 20.2133 15.9147 20.192 15.936C20.1707 15.936 20.1387 15.936 20.096 15.936L20.032 16H19.776C19.712 16 19.6373 16.0107 19.552 16.032C19.488 16.0533 19.4347 16.0533 19.392 16.032H19.328C19.3067 16.032 19.2747 16.032 19.232 16.032C19.2107 16.0533 19.1787 16.064 19.136 16.064C19.1147 16.064 19.0933 16.0533 19.072 16.032C19.072 16.0107 19.0507 15.9893 19.008 15.968C18.9867 15.968 18.9653 15.9787 18.944 16C18.9227 16.0427 18.8907 16.064 18.848 16.064C18.8267 16.064 18.8053 16.0533 18.784 16.032C18.784 16.032 18.7733 16.032 18.752 16.032H18.624C18.624 16.0533 18.6027 16.064 18.56 16.064C18.5387 16.064 18.528 16.0533 18.528 16.032C18.528 16.032 18.5173 16.032 18.496 16.032C18.4533 16.032 18.4 16.0427 18.336 16.064C18.2933 16.0853 18.2507 16.096 18.208 16.096H18.144C18.144 16.0533 18.1227 16.0213 18.08 16V16.032H17.792C17.664 16.0107 17.536 15.968 17.408 15.904C17.28 15.84 17.1627 15.7973 17.056 15.776C17.0347 15.776 17.0133 15.7867 16.992 15.808C16.992 15.8293 16.9813 15.84 16.96 15.84C16.9387 15.84 16.9173 15.8293 16.896 15.808C16.896 15.7867 16.8853 15.776 16.864 15.776C16.8427 15.776 16.8213 15.7867 16.8 15.808C16.8 15.808 16.7787 15.7867 16.736 15.744C16.6933 15.744 16.608 15.7227 16.48 15.68C16.48 15.616 16.448 15.584 16.384 15.584C16.384 15.5413 16.256 15.488 16 15.424C15.744 15.36 15.5947 15.3173 15.552 15.296C15.5307 15.2747 15.488 15.2427 15.424 15.2C15.3813 15.1573 15.3493 15.1573 15.328 15.2C15.264 15.1787 15.1787 15.1253 15.072 15.04C14.9653 14.9333 14.88 14.88 14.816 14.88L14.688 14.688H14.656L14.56 14.848C14.56 14.8693 14.5707 14.9227 14.592 15.008C14.6347 15.0933 14.6453 15.1573 14.624 15.2C14.6667 15.2213 14.688 15.264 14.688 15.328C14.688 15.392 14.7093 15.424 14.752 15.424C14.752 15.552 14.7947 15.68 14.88 15.808C14.88 15.8293 14.9333 15.872 15.04 15.936C15.168 16 15.2213 16.0427 15.2 16.064C15.2853 16.1493 15.328 16.2133 15.328 16.256C15.4133 16.3413 15.456 16.4053 15.456 16.448C15.4773 16.4693 15.488 16.48 15.488 16.48C15.5093 16.48 15.52 16.48 15.52 16.48C15.5413 16.5227 15.5947 16.5973 15.68 16.704C15.7867 16.8107 15.8613 16.864 15.904 16.864H15.968C15.9893 16.8853 16.032 16.928 16.096 16.992C16.1813 17.056 16.2347 17.088 16.256 17.088H16.288C16.4587 17.088 16.6293 17.1093 16.8 17.152C16.992 17.216 17.1733 17.2587 17.344 17.28C17.344 17.28 17.3653 17.2907 17.408 17.312C17.472 17.3333 17.536 17.3547 17.6 17.376C17.7707 17.3973 17.9733 17.3973 18.208 17.376C18.4427 17.376 18.6027 17.3867 18.688 17.408ZM30.0778 16.064C29.5444 16.064 29.0751 15.9147 28.6698 15.616C28.2644 15.3173 28.0617 14.8053 28.0617 14.08C28.0617 13.8027 28.0938 13.5253 28.1578 13.248C28.2218 12.9493 28.2964 12.6613 28.3818 12.384C28.4244 12.1067 28.4884 11.8613 28.5738 11.648C28.5951 11.5627 28.6058 11.52 28.6058 11.52C28.6271 11.4987 28.6804 11.4667 28.7658 11.424L29.0218 11.04V10.912C29.0004 10.912 28.9898 10.912 28.9898 10.912C28.9898 10.8907 28.9898 10.88 28.9898 10.88C28.9898 10.816 29.0431 10.7413 29.1497 10.656C29.2564 10.5707 29.3098 10.528 29.3098 10.528C29.3311 10.4213 29.3631 10.368 29.4058 10.368C29.4484 10.368 29.5018 10.336 29.5658 10.272H29.9178V10.208C29.9178 10.1013 29.8644 10.0587 29.7578 10.08C29.6724 10.08 29.6298 10.0693 29.6298 10.048C29.6298 10.0267 29.6618 9.984 29.7258 9.92C29.8111 9.83467 29.8644 9.78133 29.8858 9.76C29.9498 9.67467 30.0031 9.6 30.0458 9.536C30.0884 9.45067 30.1524 9.38667 30.2378 9.344C30.6218 8.87467 30.8564 8.576 30.9418 8.448C31.0484 8.32 31.1551 8.224 31.2618 8.16C31.3044 8.16 31.3364 8.18133 31.3578 8.224C31.4004 8.24533 31.4004 8.27733 31.3578 8.32C31.4004 8.384 31.4324 8.39467 31.4538 8.352C31.4964 8.30933 31.5178 8.288 31.5178 8.288L31.6458 8.224C31.6031 8.18133 31.5818 8.128 31.5818 8.064C31.5818 7.95733 31.6031 7.872 31.6458 7.808C31.6884 7.72267 31.7631 7.63733 31.8698 7.552C31.9978 7.46667 32.0618 7.41333 32.0618 7.392C32.1898 7.34933 32.2858 7.30667 32.3498 7.264C32.4351 7.22133 32.5204 7.2 32.6058 7.2C32.7551 7.2 32.9044 7.25333 33.0538 7.36C33.4591 7.57333 33.8004 7.78667 34.0778 8C34.3551 8.21333 34.4938 8.512 34.4938 8.896C34.4938 9.30133 34.3231 9.65333 33.9818 9.952C33.6618 10.2293 33.2671 10.464 32.7977 10.656C32.3284 10.848 31.8591 11.008 31.3898 11.136C30.9418 11.2427 30.5898 11.328 30.3338 11.392C30.1844 11.4133 30.1098 11.4773 30.1098 11.584C30.1311 11.6693 30.1204 11.7653 30.0778 11.872L29.8538 12.224L29.6618 12.672L29.5018 12.96C29.3524 13.088 29.2991 13.184 29.3418 13.248C29.3844 13.312 29.4591 13.3013 29.5658 13.216C29.5871 13.2373 29.5978 13.2693 29.5978 13.312C29.5978 13.3973 29.5764 13.504 29.5338 13.632C29.4911 13.7387 29.4591 13.824 29.4378 13.888C29.4164 13.9733 29.4164 14.016 29.4378 14.016C29.4804 13.9947 29.5018 14.0373 29.5018 14.144L29.5338 14.592C29.6618 14.9973 29.9498 15.232 30.3978 15.296C30.4404 15.296 30.4831 15.3067 30.5258 15.328C30.5898 15.328 30.6431 15.328 30.6858 15.328C31.0698 15.328 31.2724 15.296 31.2938 15.232C31.3364 15.168 31.3898 15.1253 31.4538 15.104C31.6458 15.0613 31.8058 15.0187 31.9338 14.976C32.0831 14.9333 32.2324 14.8693 32.3818 14.784C32.6378 14.6773 32.8831 14.5387 33.1178 14.368C33.3524 14.1973 33.5978 14.0267 33.8538 13.856L34.1738 13.632C34.1951 13.5893 34.1951 13.5573 34.1738 13.536C34.1524 13.5147 34.1524 13.4933 34.1738 13.472C34.2164 13.4507 34.2484 13.4507 34.2698 13.472C34.3124 13.472 34.3444 13.4613 34.3658 13.44C34.4084 13.4187 34.4511 13.3867 34.4938 13.344C34.5364 13.28 34.5791 13.2267 34.6218 13.184C34.6644 13.1413 34.6858 13.0987 34.6858 13.056C34.7071 13.0133 34.7391 12.9707 34.7818 12.928C34.9524 12.7573 35.1231 12.576 35.2938 12.384C35.4858 12.192 35.6458 12.0213 35.7738 11.872C35.9231 11.6587 36.0404 11.552 36.1258 11.552C36.1684 11.552 36.1898 11.5733 36.1898 11.616C36.1898 11.7227 36.1151 11.8827 35.9658 12.096C35.6031 12.6293 35.1871 13.152 34.7178 13.664C34.2484 14.1547 33.7364 14.6027 33.1818 15.008C32.7764 15.2853 32.2964 15.5307 31.7418 15.744C31.1871 15.9573 30.6324 16.064 30.0778 16.064ZM30.5578 10.912C30.8778 10.8907 31.2938 10.8053 31.8058 10.656C32.3178 10.4853 32.7444 10.2613 33.0858 9.984C33.4484 9.68533 33.6298 9.35467 33.6298 8.992C33.6298 8.65067 33.4484 8.32 33.0858 8C32.7871 8.21333 32.4564 8.52267 32.0938 8.928C31.7524 9.312 31.4431 9.696 31.1658 10.08C30.8884 10.4427 30.6858 10.72 30.5578 10.912ZM41.1075 16.096C40.9795 16.096 40.9155 16.0213 40.9155 15.872C40.9155 15.7653 40.9475 15.6373 41.0115 15.488C41.1822 15.1253 41.3742 14.6133 41.5875 13.952C41.8222 13.2907 42.1102 12.7253 42.4515 12.256C42.6862 11.7867 42.8995 11.328 43.0915 10.88C43.3048 10.4107 43.5075 9.94133 43.6995 9.472C43.6995 9.472 43.6782 9.46133 43.6355 9.44C43.5928 9.39733 43.5715 9.35467 43.5715 9.312C43.4648 9.22667 43.3368 9.10933 43.1875 8.96C43.0382 8.78933 43.0275 8.61867 43.1555 8.448C43.1982 8.40533 43.2195 8.384 43.2195 8.384C43.2408 8.384 43.2515 8.384 43.2515 8.384C43.2515 8.36267 43.2408 8.352 43.2195 8.352C43.2195 8.352 43.2195 8.34133 43.2195 8.32L43.1875 8.288C43.1662 8.288 43.1448 8.288 43.1235 8.288C43.1235 8.26667 43.1128 8.256 43.0915 8.256C43.0062 8.256 42.9102 8.27733 42.8035 8.32C42.6968 8.34133 42.5902 8.352 42.4835 8.352C42.3555 8.352 42.1848 8.40533 41.9715 8.512C41.7582 8.59733 41.5662 8.672 41.3955 8.736C41.3102 8.75733 41.2568 8.768 41.2355 8.768C41.2355 8.74667 41.1928 8.75733 41.1075 8.8C41.0862 8.82133 41.0862 8.78933 41.1075 8.704C41.1502 8.59733 41.1715 8.52267 41.1715 8.48C41.1715 8.45867 41.1608 8.448 41.1395 8.448C41.0968 8.448 41.0115 8.512 40.8835 8.64C40.7555 8.74667 40.6702 8.81067 40.6275 8.832C40.6062 8.85333 40.5955 8.88533 40.5955 8.928C40.6168 8.97067 40.6275 9.01333 40.6275 9.056C40.6275 9.12 40.5742 9.19467 40.4675 9.28C40.3608 9.344 40.2862 9.39733 40.2435 9.44C40.1582 9.504 40.0515 9.54667 39.9235 9.568C39.8168 9.568 39.7102 9.61067 39.6035 9.696C39.4755 9.78133 39.4115 9.84533 39.4115 9.888C39.4328 9.93067 39.3688 10.0053 39.2195 10.112C39.0275 10.2613 38.7608 10.4853 38.4195 10.784C38.0995 11.0827 37.8542 11.3493 37.6835 11.584C37.2782 12.0747 36.9048 12.64 36.5635 13.28C36.2435 13.92 36.0835 14.4213 36.0835 14.784C36.0835 15.0613 36.2008 15.2 36.4355 15.2C36.4782 15.2 36.5208 15.2 36.5635 15.2C36.6062 15.1787 36.6595 15.1573 36.7235 15.136L37.5555 14.656L37.7475 14.624V14.592L37.8755 14.688C37.8968 14.6667 37.8862 14.6347 37.8435 14.592C37.8222 14.528 37.8222 14.496 37.8435 14.496C37.8648 14.496 37.8755 14.5067 37.8755 14.528C37.8968 14.528 37.9182 14.528 37.9395 14.528L38.0035 14.432C38.0035 14.432 38.0355 14.4427 38.0995 14.464C38.1848 14.464 38.2488 14.4427 38.2915 14.4C38.3555 14.3787 38.3662 14.3467 38.3235 14.304C38.3022 14.2613 38.2702 14.2293 38.2275 14.208L38.4515 14.016C38.4728 13.9733 38.5582 13.9307 38.7075 13.888C39.0702 13.6533 39.3688 13.376 39.6035 13.056C39.8595 12.7147 40.1475 12.4053 40.4675 12.128H40.4995L40.8835 11.744L40.8515 11.648L41.2675 11.168H41.3315C41.3528 11.1253 41.3955 11.072 41.4595 11.008C41.5448 10.944 41.5982 10.8907 41.6195 10.848C41.6622 10.8267 41.7582 10.72 41.9075 10.528C42.0782 10.3147 42.2382 10.144 42.3875 10.016C42.5582 9.888 42.6542 9.824 42.6755 9.824C42.6968 9.824 42.7075 9.83467 42.7075 9.856C42.7075 9.92 42.6755 10.016 42.6115 10.144C42.5688 10.272 42.5262 10.3573 42.4835 10.4C42.3342 10.6347 42.1422 10.9013 41.9075 11.2C41.6728 11.4773 41.5342 11.648 41.4915 11.712C41.2355 11.9893 40.9262 12.3627 40.5635 12.832C40.2008 13.28 39.8062 13.728 39.3795 14.176C38.9528 14.624 38.5262 15.008 38.0995 15.328C37.6942 15.6267 37.3102 15.776 36.9475 15.776C36.6062 15.776 36.2435 15.6693 35.8595 15.456C35.4755 15.2427 35.2835 14.8373 35.2835 14.24C35.2835 14.048 35.3048 13.8347 35.3475 13.6C35.4115 13.344 35.5075 13.0773 35.6355 12.8C35.6355 12.8 35.6568 12.7787 35.6995 12.736C35.7422 12.672 35.7742 12.6507 35.7955 12.672C35.8382 12.608 35.8488 12.544 35.8275 12.48C35.8275 12.3947 35.8275 12.3413 35.8275 12.32L35.8915 12.256C35.9342 12.0213 36.0942 11.808 36.3715 11.616C36.6488 11.424 36.7982 11.2747 36.8195 11.168C36.8408 11.1467 36.8515 11.1147 36.8515 11.072L36.9795 10.656V10.528H37.1075L37.2035 10.4L37.2355 10.336C37.1928 10.3147 37.2035 10.2827 37.2675 10.24C37.3528 10.176 37.3955 10.144 37.3955 10.144C37.4168 10.1013 37.4382 10.0693 37.4595 10.048C37.5022 10.0267 37.5342 10.0053 37.5555 9.984H37.7795C37.8222 9.92 37.8008 9.888 37.7155 9.888C37.6302 9.888 37.5875 9.888 37.5875 9.888C37.5875 9.86667 37.5875 9.856 37.5875 9.856C37.6088 9.83467 37.6195 9.81333 37.6195 9.792L37.9715 9.504C38.0782 9.41867 38.1848 9.344 38.2915 9.28C38.3982 9.216 38.4942 9.14133 38.5795 9.056C38.6435 9.056 38.6542 9.088 38.6115 9.152C38.6328 9.19467 38.6542 9.19467 38.6755 9.152C38.7182 9.10933 38.7395 9.088 38.7395 9.088L38.8995 9.056V9.024C38.8995 8.98133 38.9102 8.91733 38.9315 8.832C38.9528 8.74667 38.9635 8.69333 38.9635 8.672C39.4115 8.33067 39.8808 8.032 40.3715 7.776C40.8622 7.49867 41.3422 7.36 41.8115 7.36C42.3662 7.36 42.8675 7.57333 43.3155 8L43.4755 8.096C43.4968 8.096 43.5075 8.08533 43.5075 8.064C43.5502 7.76533 43.7955 7.54133 44.2435 7.392C44.7128 7.24267 45.1288 7.168 45.4915 7.168C45.8755 7.168 46.0675 7.22133 46.0675 7.328C46.0675 7.37067 46.0035 7.44533 45.8755 7.552C45.8115 7.59467 45.7048 7.69067 45.5555 7.84C45.4062 7.98933 45.2568 8.17067 45.1075 8.384C45.0862 8.448 45.0542 8.512 45.0115 8.576C44.9688 8.64 44.9262 8.704 44.8835 8.768C44.8622 8.81067 44.8302 8.864 44.7875 8.928C44.7662 8.97067 44.7342 9.01333 44.6915 9.056C44.3288 9.67467 44.0408 10.1973 43.8275 10.624C43.6142 11.0507 43.3582 11.5947 43.0595 12.256C43.0168 12.384 42.9955 12.4587 42.9955 12.48C42.9955 12.6507 43.0915 12.736 43.2835 12.736C43.4115 12.736 43.5395 12.704 43.6675 12.64L43.9875 12.512C44.4995 12.0427 45.0328 11.648 45.5875 11.328C45.6088 11.328 45.6195 11.328 45.6195 11.328C45.6408 11.3067 45.6622 11.296 45.6835 11.296C45.7475 11.296 45.7902 11.3387 45.8115 11.424C45.8328 11.488 45.8115 11.5413 45.7475 11.584C45.1288 11.9253 44.5528 12.3627 44.0195 12.896C43.9982 12.9387 43.9768 12.9813 43.9555 13.024C43.9342 13.0667 43.9022 13.1093 43.8595 13.152C43.7955 13.1947 43.7315 13.2693 43.6675 13.376C43.6035 13.4827 43.5715 13.5467 43.5715 13.568C43.5502 13.632 43.5182 13.6533 43.4755 13.632C43.4542 13.6107 43.3902 13.6427 43.2835 13.728C43.2622 13.7493 43.2408 13.792 43.2195 13.856C43.2195 13.92 43.2088 13.9733 43.1875 14.016C43.1448 14.08 43.1022 14.1333 43.0595 14.176C43.0168 14.1973 42.9955 14.2187 42.9955 14.24C42.9742 14.3253 42.9315 14.3787 42.8675 14.4C42.8248 14.4 42.7822 14.4213 42.7395 14.464C42.7182 14.464 42.7075 14.4747 42.7075 14.496C42.7075 14.688 42.6862 14.7733 42.6435 14.752C42.6008 14.7307 42.5582 14.752 42.5155 14.816C42.4728 14.9013 42.4195 14.944 42.3555 14.944C42.2275 14.9867 42.1742 15.0187 42.1955 15.04C42.2382 15.0613 42.2702 15.0827 42.2915 15.104C42.3342 15.104 42.3022 15.136 42.1955 15.2C42.1528 15.2213 42.1102 15.2853 42.0675 15.392C42.0248 15.4773 41.9822 15.5413 41.9395 15.584C41.8755 15.6267 41.8115 15.6587 41.7475 15.68C41.6835 15.7013 41.6302 15.744 41.5875 15.808C41.3955 16 41.2355 16.096 41.1075 16.096ZM46.594 16.096C46.466 16.096 46.402 16.0213 46.402 15.872C46.402 15.7653 46.434 15.6373 46.498 15.488C46.6687 15.1253 46.8607 14.6133 47.074 13.952C47.3087 13.2907 47.5967 12.7253 47.938 12.256L49.538 8.96C49.41 8.96 49.282 8.992 49.154 9.056C49.0473 9.12 48.994 9.17333 48.994 9.216C48.994 9.30133 48.8767 9.38667 48.642 9.472C48.4073 9.55733 48.2793 9.61067 48.258 9.632C47.938 9.71733 47.6393 9.81333 47.362 9.92C47.1487 10.1547 46.9353 10.3893 46.722 10.624C46.53 10.8587 46.3487 11.0933 46.178 11.328C46.1567 11.3493 46.1353 11.36 46.114 11.36C45.922 11.5733 45.762 11.7333 45.634 11.84C45.506 11.9467 45.3673 12.0427 45.218 12.128C45.1327 12.192 45.0473 12.2133 44.962 12.192C44.8553 12.1493 44.8447 12.1067 44.93 12.064C45.0367 12.0213 45.2073 11.872 45.442 11.616C45.6767 11.36 45.858 11.168 45.986 11.04C46.0927 10.976 46.1247 10.976 46.082 11.04C46.0607 11.104 46.0927 11.0933 46.178 11.008L46.978 9.984L47.01 9.952C46.9033 9.888 46.85 9.71733 46.85 9.44C46.85 9.22667 46.8927 9.056 46.978 8.928C46.978 8.90667 46.9993 8.896 47.042 8.896L47.714 8.704C47.778 8.704 47.8207 8.69333 47.842 8.672C47.8847 8.62933 47.9273 8.576 47.97 8.512C48.034 8.42667 48.1087 8.32 48.194 8.192L48.578 7.68L48.834 7.328C48.834 7.264 48.8767 7.18933 48.962 7.104C49.0687 6.99733 49.154 6.92267 49.218 6.88C49.3033 6.752 49.3567 6.656 49.378 6.592C49.4207 6.50667 49.4847 6.4 49.57 6.272C49.57 6.25067 49.602 6.24 49.666 6.24C49.73 6.21867 49.762 6.19733 49.762 6.176C49.7833 5.96267 49.8153 5.86667 49.858 5.888C49.922 5.888 49.954 5.856 49.954 5.792C49.954 5.728 49.9967 5.67467 50.082 5.632L50.242 5.44C50.242 5.41867 50.274 5.376 50.338 5.312V5.28C50.338 5.23733 50.338 5.184 50.338 5.12C50.338 5.056 50.3593 4.992 50.402 4.928C50.4447 4.88533 50.4767 4.864 50.498 4.864C50.5193 4.864 50.53 4.864 50.53 4.864C50.53 4.84267 50.5193 4.832 50.498 4.832C50.498 4.81067 50.498 4.8 50.498 4.8C50.498 4.71467 50.5407 4.66133 50.626 4.64C50.7113 4.61867 50.754 4.58667 50.754 4.544C50.7967 4.24533 51.0527 4.02133 51.522 3.872C51.9913 3.72267 52.4073 3.648 52.77 3.648C53.1327 3.648 53.314 3.70133 53.314 3.808C53.314 3.85067 53.25 3.92533 53.122 4.032C53.058 4.05333 52.9513 4.14933 52.802 4.32C52.6527 4.46933 52.514 4.65067 52.386 4.864L52.13 5.248C52.1087 5.29067 52.0767 5.344 52.034 5.408C52.0127 5.45067 51.9807 5.49333 51.938 5.536C51.7887 5.792 51.586 6.15467 51.33 6.624C51.0953 7.072 50.8393 7.57333 50.562 8.128L51.394 8.032C51.458 8.032 51.4793 8.04267 51.458 8.064C51.458 8.08533 51.49 8.08533 51.554 8.064C51.6607 8.064 51.7353 8.05333 51.778 8.032C51.8207 7.98933 51.8953 7.95733 52.002 7.936C52.1727 7.91467 52.3647 7.904 52.578 7.904C52.8127 7.88267 52.994 7.872 53.122 7.872C53.2073 7.872 53.314 7.872 53.442 7.872C53.57 7.872 53.666 7.88267 53.73 7.904C53.7727 7.904 53.7833 7.92533 53.762 7.968C53.762 7.98933 53.7727 8 53.794 8C53.8367 8 53.8687 7.98933 53.89 7.968C53.9327 7.94667 53.9753 7.936 54.018 7.936C54.0393 7.91467 54.0713 7.91467 54.114 7.936C54.178 7.936 54.2207 7.936 54.242 7.936L54.562 8.032C54.69 8.05333 54.754 8.128 54.754 8.256C54.7753 8.384 54.722 8.42667 54.594 8.384C54.5087 8.34133 54.434 8.32 54.37 8.32H53.57C53.4207 8.32 53.282 8.32 53.154 8.32C53.026 8.32 52.898 8.33067 52.77 8.352C52.7273 8.37333 52.706 8.352 52.706 8.288C52.7273 8.224 52.7167 8.192 52.674 8.192C52.6527 8.192 52.6207 8.224 52.578 8.288C52.5353 8.33067 52.5033 8.352 52.482 8.352L52.322 8.448C51.9807 8.53333 51.618 8.62933 51.234 8.736C50.85 8.82133 50.4767 8.91733 50.114 9.024C49.794 9.68533 49.4847 10.3147 49.186 10.912C48.9087 11.488 48.6953 11.936 48.546 12.256C48.5033 12.384 48.482 12.4587 48.482 12.48C48.482 12.6507 48.578 12.736 48.77 12.736C48.898 12.736 49.026 12.704 49.154 12.64L49.474 12.512C49.986 12.0427 50.5193 11.648 51.074 11.328C51.0953 11.328 51.106 11.328 51.106 11.328C51.1273 11.3067 51.1487 11.296 51.17 11.296C51.234 11.296 51.2767 11.3387 51.298 11.424C51.3193 11.488 51.298 11.5413 51.234 11.584C50.6153 11.9253 50.0393 12.3627 49.506 12.896C49.4847 12.9387 49.4633 12.9813 49.442 13.024C49.4207 13.0667 49.3887 13.1093 49.346 13.152C49.3033 13.1947 49.2393 13.2693 49.154 13.376C49.09 13.4827 49.058 13.5467 49.058 13.568C49.0367 13.632 49.0047 13.6533 48.962 13.632C48.9407 13.6107 48.8767 13.6427 48.77 13.728C48.7487 13.7493 48.7273 13.792 48.706 13.856C48.706 13.92 48.6953 13.9733 48.674 14.016C48.6313 14.08 48.5887 14.1333 48.546 14.176C48.5033 14.1973 48.482 14.2187 48.482 14.24C48.4607 14.3253 48.418 14.3787 48.354 14.4C48.3113 14.4 48.2687 14.4213 48.226 14.464C48.2047 14.464 48.194 14.4747 48.194 14.496C48.194 14.688 48.1727 14.7733 48.13 14.752C48.0873 14.7307 48.0553 14.752 48.034 14.816C47.9487 14.9013 47.8847 14.944 47.842 14.944C47.714 14.9867 47.6607 15.0187 47.682 15.04C47.7247 15.0613 47.7567 15.0827 47.778 15.104C47.8207 15.104 47.7887 15.136 47.682 15.2C47.6393 15.2213 47.5967 15.2853 47.554 15.392C47.5113 15.4773 47.4687 15.5413 47.426 15.584C47.362 15.6267 47.298 15.6587 47.234 15.68C47.17 15.7013 47.1167 15.744 47.074 15.808C46.882 16 46.722 16.096 46.594 16.096ZM48.418 8.576C48.5033 8.55467 48.578 8.53333 48.642 8.512C48.7273 8.49067 48.8127 8.45867 48.898 8.416L49.858 8.256C50.114 7.744 50.338 7.28533 50.53 6.88C50.722 6.45333 50.8607 6.144 50.946 5.952C50.946 5.952 50.9247 5.94133 50.882 5.92C50.8607 5.87733 50.85 5.83467 50.85 5.792C50.8073 5.77067 50.754 5.73867 50.69 5.696C50.6473 5.65333 50.6047 5.62133 50.562 5.6L50.274 5.888L49.922 6.368C49.922 6.38933 49.89 6.41067 49.826 6.432C49.7833 6.432 49.762 6.44267 49.762 6.464C49.762 6.528 49.73 6.592 49.666 6.656C49.6233 6.72 49.5807 6.74133 49.538 6.72L49.41 7.04C49.41 7.104 49.378 7.15733 49.314 7.2L49.09 7.488C49.09 7.50933 49.0793 7.53067 49.058 7.552C49.058 7.552 49.058 7.57333 49.058 7.616C49.0367 7.65867 49.0047 7.712 48.962 7.776C48.9193 7.84 48.866 7.904 48.802 7.968C48.7807 7.968 48.77 7.97867 48.77 8C48.77 8 48.7593 8 48.738 8L48.642 8.192C48.5567 8.23467 48.5033 8.256 48.482 8.256L48.45 8.32C48.45 8.448 48.4393 8.53333 48.418 8.576ZM52.66 17.856C52.5747 17.856 52.4893 17.8133 52.404 17.728C52.3187 17.6427 52.2867 17.5893 52.308 17.568C52.3293 17.4613 52.3613 17.3547 52.404 17.248C52.4467 17.1413 52.4893 17.0453 52.532 16.96C52.7667 16.4693 53.0867 16.0107 53.492 15.584C53.9187 15.136 54.3667 14.7093 54.836 14.304C54.6653 14.2613 54.5587 14.24 54.516 14.24C54.324 14.2613 54.1747 14.304 54.068 14.368C53.9827 14.432 53.8227 14.496 53.588 14.56C53.5027 14.5813 53.428 14.6027 53.364 14.624C53.3 14.624 53.2467 14.624 53.204 14.624C53.0333 14.624 52.948 14.5707 52.948 14.464C52.948 14.4213 52.9693 14.368 53.012 14.304C53.076 14.2187 53.1187 14.1653 53.14 14.144C53.396 13.8667 53.684 13.632 54.004 13.44C54.324 13.248 54.6653 13.152 55.028 13.152C55.3267 13.152 55.6467 13.2373 55.988 13.408L56.372 13.088C56.5853 12.9173 56.7987 12.7467 57.012 12.576C57.2253 12.384 57.4387 12.192 57.652 12C57.5667 12 57.556 11.9893 57.62 11.968C57.684 11.9253 57.6733 11.904 57.588 11.904H57.524C57.2467 11.904 57.108 11.9467 57.108 12.032C57.108 12.0747 57.0013 12.128 56.788 12.192C56.5747 12.2347 56.4573 12.256 56.436 12.256L55.412 12.48C55.2627 12.48 55.188 12.3733 55.188 12.16C55.1667 12.0533 55.1987 11.9573 55.284 11.872C55.3053 11.8507 55.3267 11.84 55.348 11.84L55.956 11.744C56.084 11.7227 56.2547 11.7013 56.468 11.68C56.6813 11.6587 56.8627 11.6267 57.012 11.584L57.94 11.488H58.132C58.3667 11.232 58.5907 11.008 58.804 10.816C58.8467 10.7947 58.8893 10.8053 58.932 10.848C58.9747 10.8693 59.0067 10.8693 59.028 10.848C59.0707 10.8053 59.092 10.752 59.092 10.688C59.1133 10.624 59.156 10.5707 59.22 10.528C59.4333 10.3573 59.636 10.1547 59.828 9.92C60.0413 9.68533 60.2653 9.46133 60.5 9.248H60.404C60.212 9.248 60.0413 9.19467 59.892 9.088H59.796C59.668 9.088 59.508 9.06667 59.316 9.024C59.1453 8.96 59.0707 8.88533 59.092 8.8L59.028 8.704C59.0067 8.704 58.9747 8.71467 58.932 8.736C58.9107 8.736 58.8787 8.736 58.836 8.736C58.7507 8.736 58.5587 8.69333 58.26 8.608C57.9613 8.52267 57.6627 8.43733 57.364 8.352C57.236 8.30933 57.108 8.288 56.98 8.288C56.8733 8.288 56.7987 8.256 56.756 8.192H56.692C56.4147 8.34133 56.1693 8.52267 55.956 8.736C55.7427 8.928 55.6147 9.14133 55.572 9.376C55.5507 9.46133 55.4867 9.504 55.38 9.504C55.2947 9.48267 55.2627 9.42933 55.284 9.344C55.3267 9.04533 55.4653 8.77867 55.7 8.544C55.956 8.30933 56.2227 8.11733 56.5 7.968C56.5213 7.94667 56.532 7.936 56.532 7.936C56.532 7.91467 56.532 7.904 56.532 7.904C56.6173 7.776 56.7667 7.648 56.98 7.52C57.1933 7.37067 57.3747 7.27467 57.524 7.232C57.5453 7.18933 57.5773 7.15733 57.62 7.136C57.684 7.11467 57.7267 7.09333 57.748 7.072C57.812 7.02933 57.8867 7.008 57.972 7.008C58.0147 7.008 58.0573 7.01867 58.1 7.04C58.1427 7.04 58.2067 7.05067 58.292 7.072C58.3773 7.02933 58.452 7.008 58.516 7.008C58.6013 6.98667 58.676 6.976 58.74 6.976C58.7827 6.976 58.8893 6.99733 59.06 7.04C59.2307 7.06133 59.3693 7.15733 59.476 7.328C60.0093 8.05333 60.66 8.48 61.428 8.608C61.5133 8.62933 61.652 8.62933 61.844 8.608C62.0573 8.58667 62.2067 8.58667 62.292 8.608C62.676 8.39467 62.996 8.16 63.252 7.904C63.4653 7.73333 63.5827 7.56267 63.604 7.392C63.604 7.34933 63.636 7.328 63.7 7.328C63.764 7.30667 63.796 7.28533 63.796 7.264C63.86 7.17867 63.924 7.136 63.988 7.136C64.1587 7.136 64.2013 7.21067 64.116 7.36L63.86 7.68C63.86 7.72267 63.828 7.76533 63.764 7.808C63.38 8.14933 63.0173 8.53333 62.676 8.96C62.356 9.36533 61.9827 9.70667 61.556 9.984C61.5347 10.0053 61.492 10.016 61.428 10.016C61.3213 10.016 61.1933 9.99467 61.044 9.952C60.916 9.888 60.8093 9.87733 60.724 9.92C60.404 10.1547 60.084 10.4 59.764 10.656C59.444 10.8907 59.1133 11.1467 58.772 11.424L59.252 11.36C59.316 11.3387 59.3373 11.3387 59.316 11.36C59.316 11.3813 59.348 11.392 59.412 11.392C59.5187 11.3707 59.5827 11.36 59.604 11.36C59.6467 11.3387 59.7107 11.328 59.796 11.328C60.18 11.2853 60.5213 11.264 60.82 11.264C60.9053 11.264 61.0013 11.264 61.108 11.264C61.2147 11.264 61.3 11.2747 61.364 11.296C61.4067 11.296 61.4173 11.3067 61.396 11.328C61.396 11.328 61.4067 11.3387 61.428 11.36C61.4707 11.36 61.5027 11.36 61.524 11.36C61.5453 11.3387 61.5773 11.3173 61.62 11.296C61.6413 11.296 61.6733 11.296 61.716 11.296C61.7587 11.296 61.7907 11.3067 61.812 11.328C61.9613 11.328 62.0573 11.3387 62.1 11.36C62.2067 11.3813 62.26 11.424 62.26 11.488C62.2813 11.552 62.2387 11.5733 62.132 11.552C62.1107 11.552 62.0787 11.552 62.036 11.552C62.0147 11.5307 61.9827 11.52 61.94 11.52H61.716C61.5453 11.52 61.3427 11.52 61.108 11.52C60.8947 11.52 60.692 11.5307 60.5 11.552C60.4787 11.552 60.468 11.5413 60.468 11.52C60.468 11.4773 60.4467 11.456 60.404 11.456C60.404 11.456 60.3827 11.4773 60.34 11.52C60.2973 11.5413 60.2653 11.552 60.244 11.552C60.2227 11.552 60.2013 11.5627 60.18 11.584C60.1587 11.584 60.1267 11.584 60.084 11.584L58.132 11.936L58.1 11.968C57.844 12.224 57.5773 12.4693 57.3 12.704C57.0227 12.9387 56.7347 13.1733 56.436 13.408C56.4147 13.4293 56.3933 13.4613 56.372 13.504C56.3507 13.5253 56.3187 13.5467 56.276 13.568C56.66 13.824 57.012 14.1333 57.332 14.496C57.6733 14.8587 57.9613 15.1573 58.196 15.392C58.6653 15.84 59.2733 16.1387 60.02 16.288C60.7667 16.4373 61.4067 16.48 61.94 16.416C62.132 16.3733 62.292 16.288 62.42 16.16C62.5693 16.032 62.6867 15.8933 62.772 15.744V15.712C62.772 15.6907 62.7933 15.6587 62.836 15.616C62.9 15.5733 62.9427 15.5733 62.964 15.616C62.9853 15.616 62.964 15.6587 62.9 15.744C62.8573 15.8293 62.836 15.872 62.836 15.872C62.8787 15.8933 62.9 15.936 62.9 16C62.9 16.0853 62.9107 16.128 62.932 16.128C62.9747 16.128 63.0173 16.096 63.06 16.032C63.124 15.968 63.156 15.9253 63.156 15.904C63.22 15.7973 63.2627 15.6907 63.284 15.584C63.3267 15.456 63.3587 15.3493 63.38 15.264C63.444 15.008 63.476 14.72 63.476 14.4C63.476 14.08 63.4227 13.7813 63.316 13.504C63.2093 13.2053 63.0067 13.0347 62.708 12.992C62.6653 12.992 62.644 12.9707 62.644 12.928C62.644 12.8853 62.676 12.832 62.74 12.768C62.804 12.704 62.868 12.6827 62.932 12.704C63.2947 12.7467 63.5293 12.928 63.636 13.248C63.764 13.5467 63.828 13.8773 63.828 14.24C63.828 14.56 63.796 14.8693 63.732 15.168C63.7107 15.296 63.668 15.4453 63.604 15.616C63.5613 15.7653 63.4867 15.9147 63.38 16.064C63.252 16.6613 62.964 17.088 62.516 17.344C62.0893 17.6 61.62 17.728 61.108 17.728C60.66 17.728 60.2227 17.6427 59.796 17.472C59.3693 17.3013 59.0173 17.0667 58.74 16.768C58.484 16.4693 58.228 16.1493 57.972 15.808C57.716 15.4667 57.4387 15.1573 57.14 14.88C56.9907 14.7307 56.8307 14.592 56.66 14.464C56.4893 14.3147 56.2867 14.24 56.052 14.24C55.924 14.24 55.828 14.2507 55.764 14.272C55.572 14.336 55.412 14.368 55.284 14.368L54.548 14.944C54.356 15.0933 54.1747 15.264 54.004 15.456C53.8333 15.648 53.6627 15.8293 53.492 16C53.4707 16.0213 53.428 16.0747 53.364 16.16C53.3213 16.2667 53.2893 16.32 53.268 16.32C53.076 16.576 52.948 16.8 52.884 16.992C52.884 17.0133 52.9053 17.0773 52.948 17.184C52.9907 17.312 53.0013 17.408 52.98 17.472L52.756 17.824C52.7347 17.8453 52.7027 17.856 52.66 17.856Z" fill="white"/>
</g>
<defs>
<filter id="filter0_d_5_62" x="0.960022" y="0.768005" width="67.284" height="25.536" filterUnits="userSpaceOnUse" color-interpolation-filters="sRGB">
<feFlood flood-opacity="0" result="BackgroundImageFix"/>
<feColorMatrix in="SourceAlpha" type="matrix" values="0 0 0 0 0 0 0 0 0 0 0 0 0 0 0 0 0 0 127 0" result="hardAlpha"/>
<feOffset dy="4"/>
<feGaussianBlur stdDeviation="2"/>
<feComposite in2="hardAlpha" operator="out"/>
<feColorMatrix type="matrix" values="0 0 0 0 0 0 0 0 0 0 0 0 0 0 0 0 0 0 0.25 0"/>
<feBlend mode="normal" in2="BackgroundImageFix" result="effect1_dropShadow_5_62"/>
<feBlend mode="normal" in="SourceGraphic" in2="effect1_dropShadow_5_62" result="shape"/>
</filter>
</defs>
</svg>
