<svg width="20" height="20" viewBox="0 0 20 20" fill="none" xmlns="http://www.w3.org/2000/svg">
<path d="M10 20L8.975 18.9904C7.2122 17.2238 5.75483 15.6998 4.6029 14.4185C3.45097 13.1372 2.53333 11.9918 1.85 10.9823C1.16667 9.97271 0.6875 9.05866 0.4125 8.24011C0.1375 7.42156 0 6.59391 0 5.75716C0 4.11724 0.504167 2.74773 1.5125 1.64865C2.52083 0.549549 3.76667 0 5.25 0C6.2 0 7.07917 0.245566 7.8875 0.736698C8.69583 1.22783 9.4 1.93724 10 2.86494C10.7 1.88267 11.4417 1.15962 12.225 0.695771C13.0083 0.231924 13.85 0 14.75 0C16.2333 0 17.4792 0.549549 18.4875 1.64865C19.4958 2.74773 20 4.11724 20 5.75716C20 6.59391 19.8625 7.42156 19.5875 8.24011C19.3125 9.05866 18.8333 9.97271 18.15 10.9823C17.4667 11.9918 16.549 13.1372 15.3971 14.4185C14.2452 15.6998 12.7878 17.2238 11.025 18.9904L10 20ZM10 17.8445C11.6873 16.1529 13.0757 14.7022 14.1655 13.4926C15.2552 12.2829 16.1208 11.2233 16.7625 10.3138C17.4042 9.40427 17.8542 8.59359 18.1125 7.88172C18.3708 7.16983 18.5 6.46297 18.5 5.76112C18.5 4.55794 18.15 3.5698 17.45 2.79673C16.75 2.02365 15.8519 1.63711 14.7556 1.63711C13.8969 1.63711 13.1021 1.9236 12.3712 2.49659C11.6404 3.06958 11.05 3.87449 10.6 4.91132H9.375C8.94167 3.89268 8.35958 3.09231 7.62875 2.51023C6.8979 1.92815 6.10311 1.63711 5.24437 1.63711C4.14812 1.63711 3.25 2.02365 2.55 2.79673C1.85 3.5698 1.5 4.55949 1.5 5.76578C1.5 6.46945 1.62917 7.18054 1.8875 7.89905C2.14583 8.61755 2.59583 9.43611 3.2375 10.3547C3.87917 11.2733 4.75 12.3329 5.85 13.5334C6.95 14.734 8.33333 16.171 10 17.8445Z" fill="white"/>
</svg>
