<svg width="17" height="17" viewBox="0 0 17 17" fill="none" xmlns="http://www.w3.org/2000/svg">
<path d="M8.50002 8.47394C7.35419 8.47394 6.41669 8.10935 5.68752 7.38019C4.95835 6.65102 4.59377 5.71352 4.59377 4.56769C4.59377 3.42185 4.95835 2.48435 5.68752 1.75519C6.41669 1.02602 7.35419 0.661438 8.50002 0.661438C9.64585 0.661438 10.5834 1.02602 11.3125 1.75519C12.0417 2.48435 12.4063 3.42185 12.4063 4.56769C12.4063 5.71352 12.0417 6.65102 11.3125 7.38019C10.5834 8.10935 9.64585 8.47394 8.50002 8.47394ZM0.166687 16.8333V14.3854C0.166687 13.7257 0.331618 13.1614 0.661479 12.6927C0.99134 12.2239 1.41669 11.868 1.93752 11.625C3.10071 11.1041 4.21617 10.7135 5.28387 10.4531C6.35158 10.1927 7.42363 10.0625 8.50002 10.0625C9.57641 10.0625 10.6441 10.197 11.7031 10.4661C12.7622 10.7352 13.8726 11.1232 15.0344 11.63C15.5778 11.8753 16.0135 12.2309 16.3415 12.6969C16.6694 13.1628 16.8334 13.7257 16.8334 14.3854V16.8333H0.166687ZM1.72919 15.2708H15.2709V14.3854C15.2709 14.1076 15.1884 13.8429 15.0235 13.5911C14.8585 13.3394 14.6545 13.1528 14.4115 13.0312C13.3004 12.493 12.2847 12.1241 11.3646 11.9245C10.4445 11.7248 9.4896 11.625 8.50002 11.625C7.51044 11.625 6.5469 11.7248 5.6094 11.9245C4.6719 12.1241 3.65627 12.493 2.56252 13.0312C2.31946 13.1528 2.11981 13.3394 1.96356 13.5911C1.80731 13.8429 1.72919 14.1076 1.72919 14.3854V15.2708ZM8.50002 6.91144C9.1771 6.91144 9.737 6.69008 10.1797 6.24738C10.6224 5.80467 10.8438 5.24477 10.8438 4.56769C10.8438 3.8906 10.6224 3.33071 10.1797 2.888C9.737 2.44529 9.1771 2.22394 8.50002 2.22394C7.82294 2.22394 7.26304 2.44529 6.82033 2.888C6.37762 3.33071 6.15627 3.8906 6.15627 4.56769C6.15627 5.24477 6.37762 5.80467 6.82033 6.24738C7.26304 6.69008 7.82294 6.91144 8.50002 6.91144Z" fill="white"/>
</svg>
