<svg width="20" height="20" viewBox="0 0 20 20" fill="none" xmlns="http://www.w3.org/2000/svg">
<path d="M6.5 20V14.8605H6.25C4.48333 14.8605 3 14.2674 1.8 13.0814C0.6 11.8953 0 10.4806 0 8.83721C0 7.14729 0.629167 5.71705 1.8875 4.54651C3.14583 3.37597 4.68333 2.7907 6.5 2.7907H7.825L5.9 0.976744L6.95 0L10.7 3.48837L6.95 6.97674L5.9 6L7.825 4.18605H6.5C5.11667 4.18605 3.9375 4.63953 2.9625 5.54651C1.9875 6.45349 1.5 7.55039 1.5 8.83721C1.5 10.1085 1.95417 11.2016 2.8625 12.1163C3.77083 13.031 4.9 13.4884 6.25 13.4884H8V16.6279L11.4 13.4884H13.525C14.9083 13.4884 16.0833 13.0349 17.05 12.1279C18.0167 11.2209 18.5 10.1163 18.5 8.81395C18.5 7.52713 18.0125 6.43411 17.0375 5.53488C16.0625 4.63566 14.8833 4.18605 13.5 4.18605H12.175V2.7907H13.5C15.3 2.7907 16.8333 3.37597 18.1 4.54651C19.3667 5.71705 20 7.13953 20 8.81395C20 10.5039 19.3708 11.938 18.1125 13.1163C16.8542 14.2946 15.325 14.8837 13.525 14.8837H12.025L6.5 20Z" fill="white"/>
</svg>
