<svg width="221" height="35" viewBox="0 0 221 35" fill="none" xmlns="http://www.w3.org/2000/svg">
<g filter="url(#filter0_d_3_147)">
<path d="M30.816 4.184C31.072 3.416 31.2 2.81867 31.2 2.392C31.2 1.51733 30.816 1.048 30.048 0.983999H35.008C34.688 1.048 34.272 1.29333 33.76 1.72C33.2693 2.14667 32.8107 2.97867 32.384 4.216L25.472 23.768L19.296 6.04L12.928 23.768L6.624 4.12C6.06933 2.328 5.25867 1.28267 4.192 0.983999H9.504C8.90667 1.09067 8.608 1.44267 8.608 2.04C8.608 2.33867 8.736 2.872 8.992 3.64L9.344 4.76L13.376 18.104L19.872 0.375999L26.048 17.976L30.816 4.184ZM39.8308 23.288C38.9668 23.288 38.2228 23.08 37.5988 22.664C36.9748 22.232 36.4948 21.68 36.1588 21.008C35.8388 20.32 35.6788 19.592 35.6788 18.824C35.6788 17.832 35.8708 16.976 36.2548 16.256C36.6548 15.536 37.1668 14.992 37.7908 14.624C38.4148 14.256 39.0628 14.072 39.7348 14.072C40.6948 14.072 41.5188 14.424 42.2068 15.128C42.9108 15.816 43.2948 16.776 43.3588 18.008H37.1188C37.1188 18.776 37.2628 19.456 37.5508 20.048C37.8388 20.624 38.2228 21.072 38.7028 21.392C39.1988 21.696 39.7348 21.848 40.3108 21.848C41.8148 21.848 42.8308 21.368 43.3588 20.408C43.2148 21.272 42.8228 21.968 42.1828 22.496C41.5428 23.024 40.7588 23.288 39.8308 23.288ZM39.5668 14.864C38.9428 14.864 38.4068 15.088 37.9588 15.536C37.5108 15.968 37.2388 16.536 37.1428 17.24H41.5108C41.5108 16.504 41.3108 15.928 40.9108 15.512C40.5268 15.08 40.0788 14.864 39.5668 14.864ZM46.2481 8.24C46.2481 7.568 46.1361 7.112 45.9121 6.872C45.7041 6.616 45.4641 6.488 45.1921 6.488H45.0481L47.7841 5.24V20.6C47.7841 21.304 47.8561 21.832 48.0001 22.184C48.1441 22.536 48.3041 22.776 48.4801 22.904C48.6561 23.016 48.7441 23.048 48.7441 23H45.2881C45.2881 23.048 45.3761 23.016 45.5521 22.904C45.7281 22.776 45.8881 22.536 46.0321 22.184C46.1761 21.816 46.2481 21.288 46.2481 20.6V8.24ZM54.9033 23.288C54.0393 23.288 53.2793 23.08 52.6233 22.664C51.9833 22.248 51.4953 21.696 51.1593 21.008C50.8233 20.32 50.6553 19.592 50.6553 18.824C50.6553 18.024 50.8233 17.264 51.1593 16.544C51.5113 15.808 52.0153 15.216 52.6713 14.768C53.3273 14.304 54.1033 14.072 54.9993 14.072C56.0713 14.072 56.8473 14.304 57.3273 14.768C57.8073 15.232 58.1433 15.72 58.3353 16.232L56.7513 17C56.6553 16.424 56.4153 15.936 56.0313 15.536C55.6633 15.136 55.2073 14.936 54.6633 14.936C53.8793 14.936 53.2713 15.24 52.8393 15.848C52.4073 16.456 52.1913 17.2 52.1913 18.08C52.1913 18.704 52.3273 19.312 52.5993 19.904C52.8873 20.48 53.2873 20.952 53.7993 21.32C54.3273 21.688 54.9433 21.872 55.6473 21.872C56.2233 21.872 56.7673 21.744 57.2793 21.488C57.8073 21.216 58.2233 20.856 58.5273 20.408C58.3513 21.304 57.9353 22.008 57.2793 22.52C56.6233 23.032 55.8313 23.288 54.9033 23.288ZM60.2647 18.896C60.2647 18.064 60.4647 17.28 60.8647 16.544C61.2807 15.792 61.8487 15.192 62.5687 14.744C63.2887 14.296 64.0887 14.072 64.9687 14.072C65.8167 14.072 66.5847 14.272 67.2727 14.672C67.9607 15.056 68.4967 15.584 68.8807 16.256C69.2807 16.928 69.4807 17.664 69.4807 18.464C69.4807 19.296 69.2727 20.088 68.8567 20.84C68.4567 21.576 67.8967 22.168 67.1767 22.616C66.4567 23.064 65.6567 23.288 64.7767 23.288C63.9287 23.288 63.1607 23.096 62.4727 22.712C61.7847 22.312 61.2407 21.776 60.8407 21.104C60.4567 20.432 60.2647 19.696 60.2647 18.896ZM67.7527 19.16C67.7527 18.488 67.6247 17.824 67.3687 17.168C67.1127 16.512 66.7527 15.976 66.2887 15.56C65.8247 15.144 65.2887 14.936 64.6807 14.936C63.8327 14.936 63.1687 15.256 62.6887 15.896C62.2247 16.536 61.9927 17.304 61.9927 18.2C61.9927 18.872 62.1207 19.536 62.3767 20.192C62.6327 20.848 62.9927 21.384 63.4567 21.8C63.9207 22.216 64.4567 22.424 65.0647 22.424C65.9127 22.424 66.5687 22.104 67.0327 21.464C67.5127 20.824 67.7527 20.056 67.7527 19.16ZM73.8935 15.704C74.2935 15.208 74.7415 14.816 75.2375 14.528C75.7335 14.224 76.2535 14.072 76.7975 14.072C77.3895 14.072 77.9095 14.216 78.3575 14.504C78.8215 14.776 79.1575 15.176 79.3655 15.704C79.7975 15.16 80.2855 14.752 80.8295 14.48C81.3895 14.208 81.9655 14.072 82.5575 14.072C83.4215 14.072 84.1095 14.352 84.6215 14.912C85.1495 15.456 85.4135 16.248 85.4135 17.288V20.624C85.4135 21.504 85.5255 22.112 85.7495 22.448C85.9735 22.784 86.1735 22.968 86.3495 23H82.9415C83.1335 22.968 83.3335 22.784 83.5415 22.448C83.7655 22.112 83.8775 21.496 83.8775 20.6V17.864C83.8775 17.32 83.8055 16.888 83.6615 16.568C83.5175 16.248 83.3255 15.984 83.0855 15.776C82.7175 15.472 82.2775 15.32 81.7655 15.32C81.2055 15.32 80.7095 15.512 80.2775 15.896C79.8615 16.264 79.6535 16.784 79.6535 17.456V20.6C79.6535 21.496 79.7575 22.112 79.9655 22.448C80.1895 22.784 80.3975 22.968 80.5895 23H77.1815C77.3735 22.968 77.5735 22.784 77.7815 22.448C78.0055 22.112 78.1175 21.496 78.1175 20.6V17.864C78.1175 17.32 78.0455 16.888 77.9015 16.568C77.7575 16.248 77.5655 15.984 77.3255 15.776C76.9575 15.472 76.5175 15.32 76.0055 15.32C75.4295 15.32 74.9335 15.512 74.5175 15.896C74.1015 16.264 73.8935 16.784 73.8935 17.456V20.6C73.8935 21.512 74.0055 22.136 74.2295 22.472C74.4535 22.792 74.6615 22.968 74.8535 23H71.4455C71.6375 22.968 71.8375 22.784 72.0455 22.448C72.2535 22.112 72.3575 21.496 72.3575 20.6V16.976C72.3575 16.304 72.2455 15.848 72.0215 15.608C71.8135 15.352 71.5735 15.224 71.3015 15.224L73.8935 14.072V15.704ZM92.4479 23.288C91.5839 23.288 90.8399 23.08 90.2159 22.664C89.5919 22.232 89.1119 21.68 88.7759 21.008C88.4559 20.32 88.2959 19.592 88.2959 18.824C88.2959 17.832 88.4879 16.976 88.8719 16.256C89.2719 15.536 89.7839 14.992 90.4079 14.624C91.0319 14.256 91.6799 14.072 92.3519 14.072C93.3119 14.072 94.1359 14.424 94.8239 15.128C95.5279 15.816 95.9119 16.776 95.9759 18.008H89.7359C89.7359 18.776 89.8799 19.456 90.1679 20.048C90.4559 20.624 90.8399 21.072 91.3199 21.392C91.8159 21.696 92.3519 21.848 92.9279 21.848C94.4319 21.848 95.4479 21.368 95.9759 20.408C95.8319 21.272 95.4399 21.968 94.7999 22.496C94.1599 23.024 93.3759 23.288 92.4479 23.288ZM92.1839 14.864C91.5599 14.864 91.0239 15.088 90.5759 15.536C90.1279 15.968 89.8559 16.536 89.7599 17.24H94.1279C94.1279 16.504 93.9279 15.928 93.5279 15.512C93.1439 15.08 92.6959 14.864 92.1839 14.864ZM107.382 23.288C106.598 23.288 106.006 23.024 105.606 22.496C105.206 21.952 105.006 21.304 105.006 20.552V15.224H103.662L106.542 11.96V14.264H109.614V15.224H106.542V20.288C106.542 20.896 106.702 21.36 107.022 21.68C107.342 21.984 107.71 22.136 108.126 22.136C108.446 22.136 108.758 22.04 109.062 21.848C109.366 21.656 109.614 21.392 109.806 21.056C109.566 22.544 108.758 23.288 107.382 23.288ZM111.335 18.896C111.335 18.064 111.535 17.28 111.935 16.544C112.351 15.792 112.919 15.192 113.639 14.744C114.359 14.296 115.159 14.072 116.039 14.072C116.887 14.072 117.655 14.272 118.343 14.672C119.031 15.056 119.567 15.584 119.951 16.256C120.351 16.928 120.551 17.664 120.551 18.464C120.551 19.296 120.343 20.088 119.927 20.84C119.527 21.576 118.967 22.168 118.247 22.616C117.527 23.064 116.727 23.288 115.847 23.288C114.999 23.288 114.231 23.096 113.543 22.712C112.855 22.312 112.311 21.776 111.911 21.104C111.527 20.432 111.335 19.696 111.335 18.896ZM118.823 19.16C118.823 18.488 118.695 17.824 118.439 17.168C118.183 16.512 117.823 15.976 117.359 15.56C116.895 15.144 116.359 14.936 115.751 14.936C114.903 14.936 114.239 15.256 113.759 15.896C113.295 16.536 113.063 17.304 113.063 18.2C113.063 18.872 113.191 19.536 113.447 20.192C113.703 20.848 114.063 21.384 114.527 21.8C114.991 22.216 115.527 22.424 116.135 22.424C116.983 22.424 117.639 22.104 118.103 21.464C118.583 20.824 118.823 20.056 118.823 19.16ZM147.848 25.928C147.656 25.928 147.464 25.912 147.272 25.88C147.08 25.88 146.872 25.864 146.648 25.832C146.616 25.832 146.536 25.784 146.408 25.688C146.28 25.624 146.184 25.592 146.12 25.592C145.928 25.592 145.72 25.576 145.496 25.544C145.304 25.544 145.096 25.528 144.872 25.496C144.84 25.464 144.808 25.416 144.776 25.352C144.776 25.32 144.744 25.304 144.68 25.304C144.648 25.304 144.632 25.304 144.632 25.304C144.664 25.336 144.664 25.352 144.632 25.352C144.6 25.352 144.52 25.32 144.392 25.256C144.296 25.192 144.216 25.144 144.152 25.112V25.016C144.024 24.984 143.944 24.936 143.912 24.872C143.88 24.84 143.848 24.824 143.816 24.824H143.72C143.656 24.824 143.624 24.808 143.624 24.776C143.496 24.712 143.336 24.616 143.144 24.488C142.952 24.392 142.824 24.296 142.76 24.2C142.632 24.168 142.552 24.12 142.52 24.056C142.488 24.024 142.44 23.976 142.376 23.912C142.344 23.848 142.312 23.816 142.28 23.816C142.28 23.848 142.264 23.848 142.232 23.816C142.104 23.624 141.944 23.464 141.752 23.336C141.752 23.304 141.736 23.272 141.704 23.24C141.704 23.24 141.704 23.224 141.704 23.192C141.64 23.192 141.592 23.176 141.56 23.144C141.528 23.08 141.512 23.032 141.512 23C141.512 22.936 141.48 22.904 141.416 22.904C141.384 22.744 141.336 22.632 141.272 22.568C141.208 22.504 141.144 22.408 141.08 22.28C141.048 22.216 141.032 22.152 141.032 22.088C141.032 21.992 141 21.944 140.936 21.944V21.896C140.968 21.832 140.92 21.656 140.792 21.368C140.696 21.048 140.648 20.776 140.648 20.552L140.552 20.504C140.456 20.344 140.392 20.152 140.36 19.928C140.36 19.704 140.376 19.48 140.408 19.256C140.472 19 140.472 18.888 140.408 18.92C140.344 18.952 140.344 18.792 140.408 18.44L140.744 17.768C140.744 17.704 140.728 17.64 140.696 17.576C140.664 17.512 140.648 17.464 140.648 17.432C140.648 17.4 140.664 17.368 140.696 17.336C140.728 17.304 140.744 17.272 140.744 17.24C140.776 17.176 140.792 17.08 140.792 16.952C140.792 16.824 140.808 16.744 140.84 16.712C140.872 16.648 140.92 16.6 140.984 16.568C141.048 16.504 141.096 16.456 141.128 16.424L141.368 15.848C141.432 15.784 141.48 15.736 141.512 15.704C141.576 15.64 141.624 15.576 141.656 15.512C141.72 15.416 141.768 15.336 141.8 15.272C141.832 15.176 141.88 15.08 141.944 14.984C141.976 14.92 142.024 14.856 142.088 14.792C142.184 14.728 142.248 14.68 142.28 14.648C142.44 14.552 142.568 14.504 142.664 14.504C142.792 14.504 142.872 14.632 142.904 14.888L142.856 15.128C142.728 15.288 142.6 15.432 142.472 15.56C142.344 15.656 142.2 15.768 142.04 15.896C142.04 15.928 142.024 15.976 141.992 16.04C141.992 16.072 141.992 16.12 141.992 16.184C141.928 16.184 141.896 16.216 141.896 16.28C141.896 16.312 141.88 16.36 141.848 16.424C141.848 16.456 141.8 16.52 141.704 16.616C141.672 16.68 141.64 16.76 141.608 16.856C141.608 16.92 141.592 16.984 141.56 17.048L141.416 17.144L141.368 18.296C141.4 18.328 141.432 18.328 141.464 18.296C141.496 18.36 141.512 18.456 141.512 18.584V18.632L141.464 18.68V19.064C141.432 19.096 141.416 19.128 141.416 19.16C141.416 19.192 141.432 19.24 141.464 19.304C141.496 19.336 141.512 19.384 141.512 19.448C141.48 19.48 141.464 19.528 141.464 19.592C141.464 19.656 141.496 19.72 141.56 19.784V19.928C141.624 20.024 141.704 20.12 141.8 20.216C141.896 20.28 141.976 20.344 142.04 20.408L142.424 20.552C143 20.968 143.432 21.256 143.72 21.416C144.008 21.576 144.488 21.752 145.16 21.944C145.416 22.008 145.672 22.088 145.928 22.184C146.184 22.248 146.44 22.28 146.696 22.28C146.728 22.28 146.744 22.296 146.744 22.328C146.744 22.328 146.76 22.328 146.792 22.328C146.92 22.328 147.032 22.344 147.128 22.376C147.256 22.408 147.384 22.424 147.512 22.424C147.544 22.424 147.576 22.424 147.608 22.424C147.64 22.392 147.672 22.376 147.704 22.376C147.768 22.376 147.816 22.392 147.848 22.424C147.88 22.424 147.912 22.424 147.944 22.424C148.2 22.424 148.456 22.424 148.712 22.424C148.968 22.424 149.208 22.408 149.432 22.376C149.688 22.376 149.944 22.344 150.2 22.28C150.456 22.216 150.696 22.184 150.92 22.184C151.368 22.152 151.8 22.072 152.216 21.944C152.664 21.784 153.096 21.64 153.512 21.512C153.544 21.48 153.816 21.368 154.328 21.176C154.872 20.952 155.432 20.712 156.008 20.456C156.136 20.072 156.2 19.608 156.2 19.064C156.2 18.168 156.008 17.368 155.624 16.664C155.624 16.664 155.544 16.616 155.384 16.52C155.224 16.392 155.128 16.328 155.096 16.328V16.232C155.096 16.072 155.016 15.992 154.856 15.992C154.696 15.96 154.552 15.864 154.424 15.704C154.36 15.608 154.28 15.528 154.184 15.464V15.416C154.088 15.352 154.072 15.304 154.136 15.272C154.232 15.208 154.296 15.16 154.328 15.128L154.232 15.032H154.184C154.12 14.968 154.04 14.92 153.944 14.888C153.848 14.856 153.768 14.792 153.704 14.696L153.464 14.504C153.432 14.44 153.368 14.408 153.272 14.408C153.176 14.408 153.096 14.392 153.032 14.36C152.904 14.264 152.76 14.152 152.6 14.024C152.44 13.896 152.28 13.8 152.12 13.736H152.072C151.944 13.672 151.816 13.592 151.688 13.496C151.592 13.4 151.464 13.32 151.304 13.256C151.272 13.192 151.224 13.192 151.16 13.256C151.128 13.288 151.096 13.288 151.064 13.256C150.936 13.192 150.824 13.096 150.728 12.968C150.632 12.808 150.504 12.728 150.344 12.728H150.296C150.2 12.664 150.12 12.568 150.056 12.44C150.024 12.28 149.976 12.168 149.912 12.104C149.624 11.944 149.336 11.832 149.048 11.768C148.76 11.704 148.472 11.624 148.184 11.528C147.992 11.432 147.752 11.384 147.464 11.384C147.208 11.352 147 11.32 146.84 11.288C146.648 11.224 146.552 11.128 146.552 11C146.552 10.84 146.712 10.68 147.032 10.52C147.16 10.456 147.304 10.424 147.464 10.424C147.624 10.392 147.768 10.376 147.896 10.376C148.248 10.376 148.792 10.28 149.528 10.088C150.296 9.896 151.16 9.64 152.12 9.32C153.08 8.968 154.008 8.6 154.904 8.216C155.096 8.152 155.24 8.088 155.336 8.024C155.464 7.96 155.56 7.976 155.624 8.072C155.56 8.072 155.528 8.12 155.528 8.216C155.688 8.216 155.784 8.168 155.816 8.072C155.88 7.944 155.944 7.816 156.008 7.688H156.056L156.968 7.208C157.096 7.176 157.208 7.192 157.304 7.256C157.432 7.288 157.544 7.272 157.64 7.208C157.608 7.144 157.56 7.096 157.496 7.064C157.464 7 157.496 6.936 157.592 6.872C157.656 6.808 157.704 6.776 157.736 6.776C157.928 6.648 158.104 6.568 158.264 6.536C158.456 6.472 158.6 6.344 158.696 6.152C159.208 5.8 159.64 5.432 159.992 5.048C160.344 4.632 160.52 4.248 160.52 3.896C160.52 3.448 160.2 3.064 159.56 2.744C158.952 2.392 157.848 2.104 156.248 1.88C156.184 1.88 156.12 1.88 156.056 1.88C155.992 1.848 155.928 1.832 155.864 1.832C155.448 1.832 155.048 1.736 154.664 1.544C154.696 1.672 154.632 1.736 154.472 1.736C154.024 1.704 153.576 1.688 153.128 1.688C152.68 1.656 152.248 1.64 151.832 1.64C151.128 1.64 150.472 1.656 149.864 1.688C149.288 1.72 148.872 1.752 148.616 1.784C148.36 1.816 148.088 1.848 147.8 1.88C147.544 1.88 147.288 1.912 147.032 1.976C146.84 1.912 146.648 1.944 146.456 2.072H146.408C146.184 2.104 145.96 2.136 145.736 2.168C145.512 2.2 145.272 2.248 145.016 2.312C144.888 2.344 144.744 2.376 144.584 2.408C144.424 2.408 144.264 2.44 144.104 2.504L143.144 2.696C143.016 2.792 142.872 2.872 142.712 2.936C142.584 2.968 142.44 2.968 142.28 2.936H142.232L141.32 3.176H141.272C141.176 3.176 141.064 3.112 140.936 2.984C140.84 2.824 140.776 2.68 140.744 2.552C140.712 2.744 140.664 2.952 140.6 3.176C140.536 3.4 140.424 3.512 140.264 3.512L138.92 3.944C138.792 3.976 138.648 3.992 138.488 3.992C138.328 3.992 138.168 3.992 138.008 3.992C137.848 3.992 137.72 4.008 137.624 4.04C137.528 4.072 137.464 4.152 137.432 4.28C137.432 4.376 137.384 4.456 137.288 4.52C137.16 4.648 137 4.744 136.808 4.808C136.616 4.84 136.44 4.888 136.28 4.952H136.232C136.168 4.952 136.072 4.92 135.944 4.856C135.848 4.792 135.768 4.776 135.704 4.808C135.672 4.84 135.64 4.92 135.608 5.048C135.576 5.176 135.528 5.256 135.464 5.288V5.336C135.272 5.4 135.064 5.48 134.84 5.576C134.616 5.672 134.408 5.768 134.216 5.864C134.024 5.96 133.8 6.072 133.544 6.2C133.32 6.296 133.128 6.36 132.968 6.392C132.904 6.392 132.872 6.328 132.872 6.2C132.904 6.072 132.888 6.04 132.824 6.104C132.632 6.2 132.44 6.376 132.248 6.632C132.056 6.888 131.88 7.064 131.72 7.16C131.56 7.288 131.384 7.352 131.192 7.352C131.032 7.352 130.872 7.416 130.712 7.544C130.616 7.64 130.52 7.8 130.424 8.024C130.36 8.216 130.28 8.36 130.184 8.456C129.928 8.712 129.672 9.016 129.416 9.368C129.384 9.432 129.336 9.496 129.272 9.56C129.208 9.624 129.176 9.704 129.176 9.8H129.128C128.936 10.184 128.84 10.552 128.84 10.904C128.84 11.608 129.096 12.12 129.608 12.44C130.152 12.76 130.76 13 131.432 13.16C131.56 13.192 131.672 13.24 131.768 13.304C131.896 13.368 132.024 13.384 132.152 13.352C132.28 13.288 132.392 13.256 132.488 13.256C132.648 13.256 132.776 13.32 132.872 13.448L133.592 13.592C133.976 13.688 134.168 13.784 134.168 13.88C134.168 13.944 134.072 14.008 133.88 14.072C133.72 14.104 133.56 14.12 133.4 14.12C132.824 14.12 132.12 14.008 131.288 13.784C130.456 13.528 129.704 13.16 129.032 12.68C128.36 12.168 127.976 11.544 127.88 10.808C127.88 10.776 127.832 10.696 127.736 10.568C127.672 10.44 127.624 10.328 127.592 10.232C127.496 9.944 127.448 9.656 127.448 9.368C127.448 8.824 127.56 8.312 127.784 7.832C128.04 7.352 128.376 6.904 128.792 6.488C128.952 6.328 129.096 6.216 129.224 6.152C129.384 6.088 129.56 5.992 129.752 5.864C129.944 5.736 130.04 5.624 130.04 5.528C130.04 5.432 130.136 5.32 130.328 5.192C130.584 5.032 130.936 4.84 131.384 4.616C131.864 4.392 132.232 4.216 132.488 4.088C132.68 4.088 132.856 4.008 133.016 3.848C133.656 3.56 134.328 3.304 135.032 3.08C135.736 2.824 136.44 2.584 137.144 2.36C137.336 2.264 137.528 2.216 137.72 2.216C137.912 2.216 138.056 2.264 138.152 2.36C138.152 2.296 138.136 2.248 138.104 2.216C138.104 2.152 138.136 2.104 138.2 2.072C139 1.816 139.8 1.608 140.6 1.448C141.4 1.256 142.168 1.096 142.904 0.967999H142.952C143.048 0.967999 143.192 0.935999 143.384 0.871999H143.432C143.496 0.871999 143.544 0.871999 143.576 0.871999C143.64 0.839999 143.704 0.823999 143.768 0.823999C143.96 0.919999 144.152 0.887999 144.344 0.727999C145.208 0.567999 146.008 0.455999 146.744 0.391999C147.48 0.295999 148.104 0.247998 148.616 0.247998H148.76C148.824 0.247998 148.888 0.247998 148.952 0.247998C149.048 0.215999 149.128 0.199999 149.192 0.199999H149.672C149.768 0.167999 149.864 0.167999 149.96 0.199999C150.088 0.199999 150.184 0.199999 150.248 0.199999H150.296C150.68 0.199999 151.08 0.215999 151.496 0.247998C151.944 0.247998 152.392 0.247998 152.84 0.247998H152.888C153.016 0.279999 153.112 0.327999 153.176 0.391999C153.272 0.455999 153.384 0.423999 153.512 0.295999C154.376 0.327999 155.24 0.423999 156.104 0.584C156.584 0.647999 157.16 0.775999 157.832 0.967999C158.536 1.128 159.208 1.368 159.848 1.688C160.488 1.976 161.016 2.344 161.432 2.792C161.88 3.24 162.104 3.784 162.104 4.424C162.104 4.68 162.056 4.952 161.96 5.24C161.864 5.528 161.688 5.8 161.432 6.056C161.176 6.28 160.92 6.52 160.664 6.776L160.088 7.304L159.752 7.4L159.368 7.592C158.664 7.912 157.896 8.28 157.064 8.696C156.232 9.08 155.352 9.384 154.424 9.608L153.992 9.704H153.944V9.752H153.896C153.832 9.784 153.752 9.8 153.656 9.8C153.56 9.768 153.464 9.784 153.368 9.848C151.8 10.264 150.312 10.552 148.904 10.712C148.584 10.744 148.424 10.808 148.424 10.904C148.424 10.968 148.536 11.048 148.76 11.144C149.016 11.208 149.208 11.272 149.336 11.336C149.944 11.528 150.584 11.736 151.256 11.96C151.928 12.152 152.616 12.392 153.32 12.68C153.512 12.712 153.704 12.776 153.896 12.872C154.12 12.968 154.28 13.112 154.376 13.304C154.408 13.24 154.456 13.224 154.52 13.256C154.584 13.288 154.632 13.304 154.664 13.304C155.08 13.496 155.48 13.704 155.864 13.928C156.248 14.152 156.6 14.392 156.92 14.648C156.984 14.808 157.016 14.888 157.016 14.888C157.24 14.888 157.4 14.952 157.496 15.08C157.592 15.208 157.704 15.352 157.832 15.512C158.184 15.896 158.456 16.312 158.648 16.76C158.84 17.176 158.936 17.624 158.936 18.104C158.936 18.232 158.92 18.36 158.888 18.488C158.888 18.616 158.872 18.76 158.84 18.92C159.576 18.504 160.12 17.96 160.472 17.288C160.536 17.192 160.616 17.144 160.712 17.144C160.904 17.144 160.968 17.256 160.904 17.48C160.744 17.896 160.44 18.36 159.992 18.872C159.576 19.352 159.096 19.72 158.552 19.976C158.552 20.008 158.536 20.04 158.504 20.072C158.344 20.456 158.184 20.744 158.024 20.936C157.992 21.064 157.928 21.16 157.832 21.224C157.768 21.288 157.72 21.368 157.688 21.464L157.64 21.512L157.448 21.608C157.416 21.64 157.384 21.688 157.352 21.752C157.352 21.816 157.32 21.88 157.256 21.944C157.32 22.008 157.304 22.04 157.208 22.04C156.408 23 155.384 23.8 154.136 24.44H154.088C153.864 24.568 153.784 24.6 153.848 24.536C153.912 24.504 153.912 24.456 153.848 24.392H153.8C153.544 24.52 153.384 24.616 153.32 24.68C153.224 24.68 153.112 24.712 152.984 24.776C152.888 24.84 152.84 24.872 152.84 24.872H152.6C152.568 24.872 152.488 24.904 152.36 24.968C152.264 25.064 152.184 25.128 152.12 25.16C151.96 25.16 151.848 25.208 151.784 25.304C151.72 25.304 151.64 25.304 151.544 25.304C151.448 25.304 151.352 25.32 151.256 25.352C151.224 25.384 151.064 25.4 150.776 25.4C150.52 25.432 150.36 25.464 150.296 25.496C150.264 25.528 150.152 25.576 149.96 25.64C149.768 25.704 149.64 25.736 149.576 25.736C149.544 25.736 149.512 25.72 149.48 25.688C149.48 25.688 149.464 25.688 149.432 25.688C149.4 25.688 149.368 25.704 149.336 25.736C149.304 25.8 149.256 25.832 149.192 25.832C149.128 25.832 149.064 25.816 149 25.784C148.936 25.752 148.872 25.736 148.808 25.736C148.776 25.736 148.712 25.752 148.616 25.784C148.552 25.848 148.488 25.88 148.424 25.88C148.36 25.88 148.296 25.864 148.232 25.832C148.2 25.832 148.136 25.848 148.04 25.88C147.976 25.912 147.912 25.928 147.848 25.928ZM135.896 26.456C135.672 26.456 135.56 26.216 135.56 25.736C135.56 25.416 135.624 25.016 135.752 24.536C135.912 24.088 136.104 23.56 136.328 22.952C136.584 22.728 136.712 22.44 136.712 22.088C136.776 22.12 136.808 22.12 136.808 22.088C136.84 22.024 136.856 21.992 136.856 21.992C136.92 21.896 136.952 21.8 136.952 21.704C136.952 21.576 136.968 21.464 137 21.368C137.576 19.928 138.312 18.36 139.208 16.664C139.272 16.536 139.336 16.504 139.4 16.568C139.496 16.6 139.56 16.584 139.592 16.52C139.624 16.488 139.64 16.408 139.64 16.28C139.64 16.184 139.624 16.088 139.592 15.992C139.592 15.896 139.64 15.784 139.736 15.656L140.408 14.456C141.336 12.792 142.264 11.192 143.192 9.656C144.152 8.12 145.048 6.936 145.88 6.104L146.024 6.008L146.168 5.768C146.168 5.768 146.2 5.752 146.264 5.72C146.328 5.688 146.376 5.704 146.408 5.768C146.408 5.8 146.376 5.864 146.312 5.96C146.28 6.056 146.264 6.12 146.264 6.152C146.36 6.312 146.472 6.328 146.6 6.2C146.632 6.136 146.632 5.992 146.6 5.768C146.568 5.544 146.568 5.432 146.6 5.432C146.664 5.4 146.696 5.4 146.696 5.432C146.728 5.464 146.76 5.48 146.792 5.48C146.856 5.48 146.888 5.432 146.888 5.336C146.888 5.24 146.904 5.176 146.936 5.144C147.288 5.016 147.608 4.952 147.896 4.952C148.056 4.952 148.28 5.032 148.568 5.192C148.888 5.352 149.048 5.576 149.048 5.864C149.048 6.024 148.968 6.216 148.808 6.44C148.776 6.472 148.744 6.536 148.712 6.632C148.68 6.696 148.632 6.76 148.568 6.824C148.536 6.856 148.504 6.872 148.472 6.872C148.472 6.84 148.44 6.84 148.376 6.872C148.344 6.904 148.296 6.92 148.232 6.92C148.2 6.888 148.152 6.872 148.088 6.872C148.024 6.872 148.008 6.92 148.04 7.016C148.104 7.112 148.12 7.176 148.088 7.208C148.056 7.24 148.024 7.24 147.992 7.208C147.96 7.176 147.912 7.192 147.848 7.256C147.816 7.288 147.832 7.32 147.896 7.352C147.992 7.352 148.008 7.384 147.944 7.448C147.752 7.64 147.512 7.848 147.224 8.072C146.968 8.264 146.712 8.456 146.456 8.648C146.424 8.68 146.392 8.68 146.36 8.648C146.328 8.584 146.296 8.568 146.264 8.6L145.928 9.08C145.608 9.4 145.288 9.736 144.968 10.088C144.648 10.44 144.312 10.84 143.96 11.288C143.864 11.48 143.752 11.656 143.624 11.816C143.496 11.976 143.32 12.04 143.096 12.008C143.096 12.04 143.128 12.088 143.192 12.152C143.256 12.184 143.256 12.248 143.192 12.344C142.648 13.112 142.104 13.912 141.56 14.744C141.016 15.576 140.504 16.44 140.024 17.336C139.8 17.72 139.528 18.216 139.208 18.824L138.776 19.688C138.744 19.784 138.696 19.832 138.632 19.832C138.6 19.8 138.552 19.784 138.488 19.784C138.552 19.912 138.584 20.024 138.584 20.12C138.584 20.376 138.44 20.648 138.152 20.936C137.736 21.896 137.352 22.808 137 23.672C136.648 24.536 136.376 25.336 136.184 26.072C136.12 26.328 136.024 26.456 135.896 26.456ZM148.04 25.112H148.136C148.2 25.144 148.28 25.112 148.376 25.016H148.568C148.696 24.952 148.776 24.92 148.808 24.92C148.872 24.92 148.92 24.952 148.952 25.016C148.984 25.112 149.064 25.112 149.192 25.016L149.384 24.968C149.448 24.904 149.512 24.872 149.576 24.872C149.64 24.872 149.704 24.856 149.768 24.824C149.832 24.792 149.864 24.744 149.864 24.68C149.896 24.648 149.944 24.648 150.008 24.68C150.072 24.68 150.104 24.68 150.104 24.68C150.136 24.712 150.168 24.728 150.2 24.728H150.248C150.344 24.728 150.472 24.68 150.632 24.584C150.792 24.488 150.872 24.44 150.872 24.44C150.936 24.44 151 24.392 151.064 24.296C151.128 24.232 151.176 24.2 151.208 24.2L151.592 24.104C151.784 24.008 151.928 23.96 152.024 23.96C152.056 23.896 152.152 23.832 152.312 23.768C152.472 23.704 152.552 23.656 152.552 23.624C152.616 23.56 152.712 23.512 152.84 23.48C152.968 23.448 153.048 23.416 153.08 23.384C153.208 23.384 153.512 23.192 153.992 22.808C154.504 22.424 154.936 21.928 155.288 21.32C155.32 21.256 155.224 21.272 155 21.368C154.776 21.464 154.536 21.576 154.28 21.704C154.056 21.8 153.928 21.848 153.896 21.848C153.864 21.848 153.784 21.912 153.656 22.04C153.528 22.136 153.448 22.184 153.416 22.184C153.352 22.248 153.288 22.28 153.224 22.28C153.224 22.28 153.16 22.248 153.032 22.184V22.28C152.968 22.28 152.92 22.296 152.888 22.328C152.856 22.328 152.808 22.328 152.744 22.328C152.68 22.328 152.584 22.36 152.456 22.424C152.328 22.488 152.248 22.52 152.216 22.52C152.184 22.52 152.136 22.536 152.072 22.568C152.04 22.568 151.992 22.552 151.928 22.52C151.8 22.648 151.56 22.744 151.208 22.808C150.856 22.872 150.6 22.904 150.44 22.904C150.408 22.904 150.392 22.904 150.392 22.904C150.424 22.872 150.424 22.856 150.392 22.856C150.36 22.856 150.328 22.872 150.296 22.904C150.264 22.904 150.216 22.904 150.152 22.904L150.056 23H149.672C149.576 23 149.464 23.016 149.336 23.048C149.24 23.08 149.16 23.08 149.096 23.048H149C148.968 23.048 148.92 23.048 148.856 23.048C148.824 23.08 148.776 23.096 148.712 23.096C148.68 23.096 148.648 23.08 148.616 23.048C148.616 23.016 148.584 22.984 148.52 22.952C148.488 22.952 148.456 22.968 148.424 23C148.392 23.064 148.344 23.096 148.28 23.096C148.248 23.096 148.216 23.08 148.184 23.048C148.184 23.048 148.168 23.048 148.136 23.048H147.944C147.944 23.08 147.912 23.096 147.848 23.096C147.816 23.096 147.8 23.08 147.8 23.048C147.8 23.048 147.784 23.048 147.752 23.048C147.688 23.048 147.608 23.064 147.512 23.096C147.448 23.128 147.384 23.144 147.32 23.144H147.224C147.224 23.08 147.192 23.032 147.128 23V23.048H146.696C146.504 23.016 146.312 22.952 146.12 22.856C145.928 22.76 145.752 22.696 145.592 22.664C145.56 22.664 145.528 22.68 145.496 22.712C145.496 22.744 145.48 22.76 145.448 22.76C145.416 22.76 145.384 22.744 145.352 22.712C145.352 22.68 145.336 22.664 145.304 22.664C145.272 22.664 145.24 22.68 145.208 22.712C145.208 22.712 145.176 22.68 145.112 22.616C145.048 22.616 144.92 22.584 144.728 22.52C144.728 22.424 144.68 22.376 144.584 22.376C144.584 22.312 144.392 22.232 144.008 22.136C143.624 22.04 143.4 21.976 143.336 21.944C143.304 21.912 143.24 21.864 143.144 21.8C143.08 21.736 143.032 21.736 143 21.8C142.904 21.768 142.776 21.688 142.616 21.56C142.456 21.4 142.328 21.32 142.232 21.32L142.04 21.032H141.992L141.848 21.272C141.848 21.304 141.864 21.384 141.896 21.512C141.96 21.64 141.976 21.736 141.944 21.8C142.008 21.832 142.04 21.896 142.04 21.992C142.04 22.088 142.072 22.136 142.136 22.136C142.136 22.328 142.2 22.52 142.328 22.712C142.328 22.744 142.408 22.808 142.568 22.904C142.76 23 142.84 23.064 142.808 23.096C142.936 23.224 143 23.32 143 23.384C143.128 23.512 143.192 23.608 143.192 23.672C143.224 23.704 143.24 23.72 143.24 23.72C143.272 23.72 143.288 23.72 143.288 23.72C143.32 23.784 143.4 23.896 143.528 24.056C143.688 24.216 143.8 24.296 143.864 24.296H143.96C143.992 24.328 144.056 24.392 144.152 24.488C144.28 24.584 144.36 24.632 144.392 24.632H144.44C144.696 24.632 144.952 24.664 145.208 24.728C145.496 24.824 145.768 24.888 146.024 24.92C146.024 24.92 146.056 24.936 146.12 24.968C146.216 25 146.312 25.032 146.408 25.064C146.664 25.096 146.968 25.096 147.32 25.064C147.672 25.064 147.912 25.08 148.04 25.112ZM165.124 23.096C164.324 23.096 163.62 22.872 163.012 22.424C162.404 21.976 162.1 21.208 162.1 20.12C162.1 19.704 162.148 19.288 162.244 18.872C162.34 18.424 162.452 17.992 162.58 17.576C162.644 17.16 162.74 16.792 162.868 16.472C162.9 16.344 162.916 16.28 162.916 16.28C162.948 16.248 163.028 16.2 163.156 16.136L163.54 15.56V15.368C163.508 15.368 163.492 15.368 163.492 15.368C163.492 15.336 163.492 15.32 163.492 15.32C163.492 15.224 163.572 15.112 163.732 14.984C163.892 14.856 163.972 14.792 163.972 14.792C164.004 14.632 164.052 14.552 164.116 14.552C164.18 14.552 164.26 14.504 164.356 14.408H164.884V14.312C164.884 14.152 164.804 14.088 164.644 14.12C164.516 14.12 164.452 14.104 164.452 14.072C164.452 14.04 164.5 13.976 164.596 13.88C164.724 13.752 164.804 13.672 164.836 13.64C164.932 13.512 165.012 13.4 165.076 13.304C165.14 13.176 165.236 13.08 165.364 13.016C165.94 12.312 166.292 11.864 166.42 11.672C166.58 11.48 166.74 11.336 166.9 11.24C166.964 11.24 167.012 11.272 167.044 11.336C167.108 11.368 167.108 11.416 167.044 11.48C167.108 11.576 167.156 11.592 167.188 11.528C167.252 11.464 167.284 11.432 167.284 11.432L167.476 11.336C167.412 11.272 167.38 11.192 167.38 11.096C167.38 10.936 167.412 10.808 167.476 10.712C167.54 10.584 167.652 10.456 167.812 10.328C168.004 10.2 168.1 10.12 168.1 10.088C168.292 10.024 168.436 9.96 168.532 9.896C168.66 9.832 168.788 9.8 168.916 9.8C169.14 9.8 169.364 9.88 169.588 10.04C170.196 10.36 170.708 10.68 171.124 11C171.54 11.32 171.748 11.768 171.748 12.344C171.748 12.952 171.492 13.48 170.98 13.928C170.5 14.344 169.908 14.696 169.204 14.984C168.5 15.272 167.796 15.512 167.092 15.704C166.42 15.864 165.892 15.992 165.508 16.088C165.284 16.12 165.172 16.216 165.172 16.376C165.204 16.504 165.188 16.648 165.124 16.808L164.788 17.336L164.5 18.008L164.26 18.44C164.036 18.632 163.956 18.776 164.02 18.872C164.084 18.968 164.196 18.952 164.356 18.824C164.388 18.856 164.404 18.904 164.404 18.968C164.404 19.096 164.372 19.256 164.308 19.448C164.244 19.608 164.196 19.736 164.164 19.832C164.132 19.96 164.132 20.024 164.164 20.024C164.228 19.992 164.26 20.056 164.26 20.216L164.308 20.888C164.5 21.496 164.932 21.848 165.604 21.944C165.668 21.944 165.732 21.96 165.796 21.992C165.892 21.992 165.972 21.992 166.036 21.992C166.612 21.992 166.916 21.944 166.948 21.848C167.012 21.752 167.092 21.688 167.188 21.656C167.476 21.592 167.716 21.528 167.908 21.464C168.132 21.4 168.356 21.304 168.58 21.176C168.964 21.016 169.332 20.808 169.684 20.552C170.036 20.296 170.404 20.04 170.788 19.784L171.268 19.448C171.3 19.384 171.3 19.336 171.268 19.304C171.236 19.272 171.236 19.24 171.268 19.208C171.332 19.176 171.38 19.176 171.412 19.208C171.476 19.208 171.524 19.192 171.556 19.16C171.62 19.128 171.684 19.08 171.748 19.016C171.812 18.92 171.876 18.84 171.94 18.776C172.004 18.712 172.036 18.648 172.036 18.584C172.068 18.52 172.116 18.456 172.18 18.392C172.436 18.136 172.692 17.864 172.948 17.576C173.236 17.288 173.476 17.032 173.668 16.808C173.892 16.488 174.068 16.328 174.196 16.328C174.26 16.328 174.292 16.36 174.292 16.424C174.292 16.584 174.18 16.824 173.956 17.144C173.412 17.944 172.788 18.728 172.084 19.496C171.38 20.232 170.612 20.904 169.78 21.512C169.172 21.928 168.452 22.296 167.62 22.616C166.788 22.936 165.956 23.096 165.124 23.096ZM165.844 15.368C166.324 15.336 166.948 15.208 167.716 14.984C168.484 14.728 169.124 14.392 169.636 13.976C170.18 13.528 170.452 13.032 170.452 12.488C170.452 11.976 170.18 11.48 169.636 11C169.188 11.32 168.692 11.784 168.148 12.392C167.636 12.968 167.172 13.544 166.756 14.12C166.34 14.664 166.036 15.08 165.844 15.368ZM181.669 23.144C181.477 23.144 181.381 23.032 181.381 22.808C181.381 22.648 181.429 22.456 181.525 22.232C181.781 21.688 182.069 20.92 182.389 19.928C182.741 18.936 183.173 18.088 183.685 17.384C184.037 16.68 184.357 15.992 184.645 15.32C184.965 14.616 185.269 13.912 185.557 13.208C185.557 13.208 185.525 13.192 185.461 13.16C185.397 13.096 185.365 13.032 185.365 12.968C185.205 12.84 185.013 12.664 184.789 12.44C184.565 12.184 184.549 11.928 184.741 11.672C184.805 11.608 184.837 11.576 184.837 11.576C184.869 11.576 184.885 11.576 184.885 11.576C184.885 11.544 184.869 11.528 184.837 11.528C184.837 11.528 184.837 11.512 184.837 11.48L184.789 11.432C184.757 11.432 184.725 11.432 184.693 11.432C184.693 11.4 184.677 11.384 184.645 11.384C184.517 11.384 184.373 11.416 184.213 11.48C184.053 11.512 183.893 11.528 183.733 11.528C183.541 11.528 183.285 11.608 182.965 11.768C182.645 11.896 182.357 12.008 182.101 12.104C181.973 12.136 181.893 12.152 181.861 12.152C181.861 12.12 181.797 12.136 181.669 12.2C181.637 12.232 181.637 12.184 181.669 12.056C181.733 11.896 181.765 11.784 181.765 11.72C181.765 11.688 181.749 11.672 181.717 11.672C181.653 11.672 181.525 11.768 181.333 11.96C181.141 12.12 181.013 12.216 180.949 12.248C180.917 12.28 180.901 12.328 180.901 12.392C180.933 12.456 180.949 12.52 180.949 12.584C180.949 12.68 180.869 12.792 180.709 12.92C180.549 13.016 180.437 13.096 180.373 13.16C180.245 13.256 180.085 13.32 179.893 13.352C179.733 13.352 179.573 13.416 179.413 13.544C179.221 13.672 179.125 13.768 179.125 13.832C179.157 13.896 179.061 14.008 178.837 14.168C178.549 14.392 178.149 14.728 177.637 15.176C177.157 15.624 176.789 16.024 176.533 16.376C175.925 17.112 175.365 17.96 174.853 18.92C174.373 19.88 174.133 20.632 174.133 21.176C174.133 21.592 174.309 21.8 174.661 21.8C174.725 21.8 174.789 21.8 174.853 21.8C174.917 21.768 174.997 21.736 175.093 21.704L176.341 20.984L176.629 20.936V20.888L176.821 21.032C176.853 21 176.837 20.952 176.773 20.888C176.741 20.792 176.741 20.744 176.773 20.744C176.805 20.744 176.821 20.76 176.821 20.792C176.853 20.792 176.885 20.792 176.917 20.792L177.013 20.648C177.013 20.648 177.061 20.664 177.157 20.696C177.285 20.696 177.381 20.664 177.445 20.6C177.541 20.568 177.557 20.52 177.493 20.456C177.461 20.392 177.413 20.344 177.349 20.312L177.685 20.024C177.717 19.96 177.845 19.896 178.069 19.832C178.613 19.48 179.061 19.064 179.413 18.584C179.797 18.072 180.229 17.608 180.709 17.192H180.757L181.333 16.616L181.285 16.472L181.909 15.752H182.005C182.037 15.688 182.101 15.608 182.197 15.512C182.325 15.416 182.405 15.336 182.437 15.272C182.501 15.24 182.645 15.08 182.869 14.792C183.125 14.472 183.365 14.216 183.589 14.024C183.845 13.832 183.989 13.736 184.021 13.736C184.053 13.736 184.069 13.752 184.069 13.784C184.069 13.88 184.021 14.024 183.925 14.216C183.861 14.408 183.797 14.536 183.733 14.6C183.509 14.952 183.221 15.352 182.869 15.8C182.517 16.216 182.309 16.472 182.245 16.568C181.861 16.984 181.397 17.544 180.853 18.248C180.309 18.92 179.717 19.592 179.077 20.264C178.437 20.936 177.797 21.512 177.157 21.992C176.549 22.44 175.973 22.664 175.429 22.664C174.917 22.664 174.373 22.504 173.797 22.184C173.221 21.864 172.933 21.256 172.933 20.36C172.933 20.072 172.965 19.752 173.029 19.4C173.125 19.016 173.269 18.616 173.461 18.2C173.461 18.2 173.493 18.168 173.557 18.104C173.621 18.008 173.669 17.976 173.701 18.008C173.765 17.912 173.781 17.816 173.749 17.72C173.749 17.592 173.749 17.512 173.749 17.48L173.845 17.384C173.909 17.032 174.149 16.712 174.565 16.424C174.981 16.136 175.205 15.912 175.237 15.752C175.269 15.72 175.285 15.672 175.285 15.608L175.477 14.984V14.792H175.669L175.813 14.6L175.861 14.504C175.797 14.472 175.813 14.424 175.909 14.36C176.037 14.264 176.101 14.216 176.101 14.216C176.133 14.152 176.165 14.104 176.197 14.072C176.261 14.04 176.309 14.008 176.341 13.976H176.677C176.741 13.88 176.709 13.832 176.581 13.832C176.453 13.832 176.389 13.832 176.389 13.832C176.389 13.8 176.389 13.784 176.389 13.784C176.421 13.752 176.437 13.72 176.437 13.688L176.965 13.256C177.125 13.128 177.285 13.016 177.445 12.92C177.605 12.824 177.749 12.712 177.877 12.584C177.973 12.584 177.989 12.632 177.925 12.728C177.957 12.792 177.989 12.792 178.021 12.728C178.085 12.664 178.117 12.632 178.117 12.632L178.357 12.584V12.536C178.357 12.472 178.373 12.376 178.405 12.248C178.437 12.12 178.453 12.04 178.453 12.008C179.125 11.496 179.829 11.048 180.565 10.664C181.301 10.248 182.021 10.04 182.725 10.04C183.557 10.04 184.309 10.36 184.981 11L185.221 11.144C185.253 11.144 185.269 11.128 185.269 11.096C185.333 10.648 185.701 10.312 186.373 10.088C187.077 9.864 187.701 9.752 188.245 9.752C188.821 9.752 189.109 9.832 189.109 9.992C189.109 10.056 189.013 10.168 188.821 10.328C188.725 10.392 188.565 10.536 188.341 10.76C188.117 10.984 187.893 11.256 187.669 11.576C187.637 11.672 187.589 11.768 187.525 11.864C187.461 11.96 187.397 12.056 187.333 12.152C187.301 12.216 187.253 12.296 187.189 12.392C187.157 12.456 187.109 12.52 187.045 12.584C186.501 13.512 186.069 14.296 185.749 14.936C185.429 15.576 185.045 16.392 184.597 17.384C184.533 17.576 184.501 17.688 184.501 17.72C184.501 17.976 184.645 18.104 184.933 18.104C185.125 18.104 185.317 18.056 185.509 17.96L185.989 17.768C186.757 17.064 187.557 16.472 188.389 15.992C188.421 15.992 188.437 15.992 188.437 15.992C188.469 15.96 188.501 15.944 188.533 15.944C188.629 15.944 188.693 16.008 188.725 16.136C188.757 16.232 188.725 16.312 188.629 16.376C187.701 16.888 186.837 17.544 186.037 18.344C186.005 18.408 185.973 18.472 185.941 18.536C185.909 18.6 185.861 18.664 185.797 18.728C185.701 18.792 185.605 18.904 185.509 19.064C185.413 19.224 185.365 19.32 185.365 19.352C185.333 19.448 185.285 19.48 185.221 19.448C185.189 19.416 185.093 19.464 184.933 19.592C184.901 19.624 184.869 19.688 184.837 19.784C184.837 19.88 184.821 19.96 184.789 20.024C184.725 20.12 184.661 20.2 184.597 20.264C184.533 20.296 184.501 20.328 184.501 20.36C184.469 20.488 184.405 20.568 184.309 20.6C184.245 20.6 184.181 20.632 184.117 20.696C184.085 20.696 184.069 20.712 184.069 20.744C184.069 21.032 184.037 21.16 183.973 21.128C183.909 21.096 183.845 21.128 183.781 21.224C183.717 21.352 183.637 21.416 183.541 21.416C183.349 21.48 183.269 21.528 183.301 21.56C183.365 21.592 183.413 21.624 183.445 21.656C183.509 21.656 183.461 21.704 183.301 21.8C183.237 21.832 183.173 21.928 183.109 22.088C183.045 22.216 182.981 22.312 182.917 22.376C182.821 22.44 182.725 22.488 182.629 22.52C182.533 22.552 182.453 22.616 182.389 22.712C182.101 23 181.861 23.144 181.669 23.144ZM189.899 23.144C189.707 23.144 189.611 23.032 189.611 22.808C189.611 22.648 189.659 22.456 189.755 22.232C190.011 21.688 190.299 20.92 190.619 19.928C190.971 18.936 191.403 18.088 191.915 17.384L194.315 12.44C194.123 12.44 193.931 12.488 193.739 12.584C193.579 12.68 193.499 12.76 193.499 12.824C193.499 12.952 193.323 13.08 192.971 13.208C192.619 13.336 192.427 13.416 192.395 13.448C191.915 13.576 191.467 13.72 191.051 13.88C190.731 14.232 190.411 14.584 190.091 14.936C189.803 15.288 189.531 15.64 189.275 15.992C189.243 16.024 189.211 16.04 189.179 16.04C188.891 16.36 188.651 16.6 188.459 16.76C188.267 16.92 188.059 17.064 187.835 17.192C187.707 17.288 187.579 17.32 187.451 17.288C187.291 17.224 187.275 17.16 187.403 17.096C187.563 17.032 187.819 16.808 188.171 16.424C188.523 16.04 188.795 15.752 188.987 15.56C189.147 15.464 189.195 15.464 189.131 15.56C189.099 15.656 189.147 15.64 189.275 15.512L190.475 13.976L190.523 13.928C190.363 13.832 190.283 13.576 190.283 13.16C190.283 12.84 190.347 12.584 190.475 12.392C190.475 12.36 190.507 12.344 190.571 12.344L191.579 12.056C191.675 12.056 191.739 12.04 191.771 12.008C191.835 11.944 191.899 11.864 191.963 11.768C192.059 11.64 192.171 11.48 192.299 11.288L192.875 10.52L193.259 9.992C193.259 9.896 193.323 9.784 193.451 9.656C193.611 9.496 193.739 9.384 193.835 9.32C193.963 9.128 194.043 8.984 194.075 8.888C194.139 8.76 194.235 8.6 194.363 8.408C194.363 8.376 194.411 8.36 194.507 8.36C194.603 8.328 194.651 8.296 194.651 8.264C194.683 7.944 194.731 7.8 194.795 7.832C194.891 7.832 194.939 7.784 194.939 7.688C194.939 7.592 195.003 7.512 195.131 7.448L195.371 7.16C195.371 7.128 195.419 7.064 195.515 6.968V6.92C195.515 6.856 195.515 6.776 195.515 6.68C195.515 6.584 195.547 6.488 195.611 6.392C195.675 6.328 195.723 6.296 195.755 6.296C195.787 6.296 195.803 6.296 195.803 6.296C195.803 6.264 195.787 6.248 195.755 6.248C195.755 6.216 195.755 6.2 195.755 6.2C195.755 6.072 195.819 5.992 195.947 5.96C196.075 5.928 196.139 5.88 196.139 5.816C196.203 5.368 196.587 5.032 197.291 4.808C197.995 4.584 198.619 4.472 199.163 4.472C199.707 4.472 199.979 4.552 199.979 4.712C199.979 4.776 199.883 4.888 199.691 5.048C199.595 5.08 199.435 5.224 199.211 5.48C198.987 5.704 198.779 5.976 198.587 6.296L198.203 6.872C198.171 6.936 198.123 7.016 198.059 7.112C198.027 7.176 197.979 7.24 197.915 7.304C197.691 7.688 197.387 8.232 197.003 8.936C196.651 9.608 196.267 10.36 195.851 11.192L197.099 11.048C197.195 11.048 197.227 11.064 197.195 11.096C197.195 11.128 197.243 11.128 197.339 11.096C197.499 11.096 197.611 11.08 197.675 11.048C197.739 10.984 197.851 10.936 198.011 10.904C198.267 10.872 198.555 10.856 198.875 10.856C199.227 10.824 199.499 10.808 199.691 10.808C199.819 10.808 199.979 10.808 200.171 10.808C200.363 10.808 200.507 10.824 200.603 10.856C200.667 10.856 200.683 10.888 200.651 10.952C200.651 10.984 200.667 11 200.699 11C200.763 11 200.811 10.984 200.843 10.952C200.907 10.92 200.971 10.904 201.035 10.904C201.067 10.872 201.115 10.872 201.179 10.904C201.275 10.904 201.339 10.904 201.371 10.904L201.851 11.048C202.043 11.08 202.139 11.192 202.139 11.384C202.171 11.576 202.091 11.64 201.899 11.576C201.771 11.512 201.659 11.48 201.563 11.48H200.363C200.139 11.48 199.931 11.48 199.739 11.48C199.547 11.48 199.355 11.496 199.163 11.528C199.099 11.56 199.067 11.528 199.067 11.432C199.099 11.336 199.083 11.288 199.019 11.288C198.987 11.288 198.939 11.336 198.875 11.432C198.811 11.496 198.763 11.528 198.731 11.528L198.491 11.672C197.979 11.8 197.435 11.944 196.859 12.104C196.283 12.232 195.723 12.376 195.179 12.536C194.699 13.528 194.235 14.472 193.787 15.368C193.371 16.232 193.051 16.904 192.827 17.384C192.763 17.576 192.731 17.688 192.731 17.72C192.731 17.976 192.875 18.104 193.163 18.104C193.355 18.104 193.547 18.056 193.739 17.96L194.219 17.768C194.987 17.064 195.787 16.472 196.619 15.992C196.651 15.992 196.667 15.992 196.667 15.992C196.699 15.96 196.731 15.944 196.763 15.944C196.859 15.944 196.923 16.008 196.955 16.136C196.987 16.232 196.955 16.312 196.859 16.376C195.931 16.888 195.067 17.544 194.267 18.344C194.235 18.408 194.203 18.472 194.171 18.536C194.139 18.6 194.091 18.664 194.027 18.728C193.963 18.792 193.867 18.904 193.739 19.064C193.643 19.224 193.595 19.32 193.595 19.352C193.563 19.448 193.515 19.48 193.451 19.448C193.419 19.416 193.323 19.464 193.163 19.592C193.131 19.624 193.099 19.688 193.067 19.784C193.067 19.88 193.051 19.96 193.019 20.024C192.955 20.12 192.891 20.2 192.827 20.264C192.763 20.296 192.731 20.328 192.731 20.36C192.699 20.488 192.635 20.568 192.539 20.6C192.475 20.6 192.411 20.632 192.347 20.696C192.315 20.696 192.299 20.712 192.299 20.744C192.299 21.032 192.267 21.16 192.203 21.128C192.139 21.096 192.091 21.128 192.059 21.224C191.931 21.352 191.835 21.416 191.771 21.416C191.579 21.48 191.499 21.528 191.531 21.56C191.595 21.592 191.643 21.624 191.675 21.656C191.739 21.656 191.691 21.704 191.531 21.8C191.467 21.832 191.403 21.928 191.339 22.088C191.275 22.216 191.211 22.312 191.147 22.376C191.051 22.44 190.955 22.488 190.859 22.52C190.763 22.552 190.683 22.616 190.619 22.712C190.331 23 190.091 23.144 189.899 23.144ZM192.635 11.864C192.763 11.832 192.875 11.8 192.971 11.768C193.099 11.736 193.227 11.688 193.355 11.624L194.795 11.384C195.179 10.616 195.515 9.928 195.803 9.32C196.091 8.68 196.299 8.216 196.427 7.928C196.427 7.928 196.395 7.912 196.331 7.88C196.299 7.816 196.283 7.752 196.283 7.688C196.219 7.656 196.139 7.608 196.043 7.544C195.979 7.48 195.915 7.432 195.851 7.4L195.419 7.832L194.891 8.552C194.891 8.584 194.843 8.616 194.747 8.648C194.683 8.648 194.651 8.664 194.651 8.696C194.651 8.792 194.603 8.888 194.507 8.984C194.443 9.08 194.379 9.112 194.315 9.08L194.123 9.56C194.123 9.656 194.075 9.736 193.979 9.8L193.643 10.232C193.643 10.264 193.627 10.296 193.595 10.328C193.595 10.328 193.595 10.36 193.595 10.424C193.563 10.488 193.515 10.568 193.451 10.664C193.387 10.76 193.307 10.856 193.211 10.952C193.179 10.952 193.163 10.968 193.163 11C193.163 11 193.147 11 193.115 11L192.971 11.288C192.843 11.352 192.763 11.384 192.731 11.384L192.683 11.48C192.683 11.672 192.667 11.8 192.635 11.864ZM198.998 25.784C198.87 25.784 198.742 25.72 198.614 25.592C198.486 25.464 198.438 25.384 198.47 25.352C198.502 25.192 198.55 25.032 198.614 24.872C198.678 24.712 198.742 24.568 198.806 24.44C199.158 23.704 199.638 23.016 200.246 22.376C200.886 21.704 201.558 21.064 202.262 20.456C202.006 20.392 201.846 20.36 201.782 20.36C201.494 20.392 201.27 20.456 201.11 20.552C200.982 20.648 200.742 20.744 200.39 20.84C200.262 20.872 200.15 20.904 200.054 20.936C199.958 20.936 199.878 20.936 199.814 20.936C199.558 20.936 199.43 20.856 199.43 20.696C199.43 20.632 199.462 20.552 199.526 20.456C199.622 20.328 199.686 20.248 199.718 20.216C200.102 19.8 200.534 19.448 201.014 19.16C201.494 18.872 202.006 18.728 202.55 18.728C202.998 18.728 203.478 18.856 203.99 19.112L204.566 18.632C204.886 18.376 205.206 18.12 205.526 17.864C205.846 17.576 206.166 17.288 206.486 17C206.358 17 206.342 16.984 206.438 16.952C206.534 16.888 206.518 16.856 206.39 16.856H206.294C205.878 16.856 205.67 16.92 205.67 17.048C205.67 17.112 205.51 17.192 205.19 17.288C204.87 17.352 204.694 17.384 204.662 17.384L203.126 17.72C202.902 17.72 202.79 17.56 202.79 17.24C202.758 17.08 202.806 16.936 202.934 16.808C202.966 16.776 202.998 16.76 203.03 16.76L203.942 16.616C204.134 16.584 204.39 16.552 204.71 16.52C205.03 16.488 205.302 16.44 205.526 16.376L206.918 16.232H207.206C207.558 15.848 207.894 15.512 208.214 15.224C208.278 15.192 208.342 15.208 208.406 15.272C208.47 15.304 208.518 15.304 208.55 15.272C208.614 15.208 208.646 15.128 208.646 15.032C208.678 14.936 208.742 14.856 208.838 14.792C209.158 14.536 209.462 14.232 209.75 13.88C210.07 13.528 210.406 13.192 210.758 12.872H210.614C210.326 12.872 210.07 12.792 209.846 12.632H209.702C209.51 12.632 209.27 12.6 208.982 12.536C208.726 12.44 208.614 12.328 208.646 12.2L208.55 12.056C208.518 12.056 208.47 12.072 208.406 12.104C208.374 12.104 208.326 12.104 208.262 12.104C208.134 12.104 207.846 12.04 207.398 11.912C206.95 11.784 206.502 11.656 206.054 11.528C205.862 11.464 205.67 11.432 205.478 11.432C205.318 11.432 205.206 11.384 205.142 11.288H205.046C204.63 11.512 204.262 11.784 203.942 12.104C203.622 12.392 203.43 12.712 203.366 13.064C203.334 13.192 203.238 13.256 203.078 13.256C202.95 13.224 202.902 13.144 202.934 13.016C202.998 12.568 203.206 12.168 203.558 11.816C203.942 11.464 204.342 11.176 204.758 10.952C204.79 10.92 204.806 10.904 204.806 10.904C204.806 10.872 204.806 10.856 204.806 10.856C204.934 10.664 205.158 10.472 205.478 10.28C205.798 10.056 206.07 9.912 206.294 9.848C206.326 9.784 206.374 9.736 206.438 9.704C206.534 9.672 206.598 9.64 206.63 9.608C206.726 9.544 206.838 9.512 206.966 9.512C207.03 9.512 207.094 9.528 207.158 9.56C207.222 9.56 207.318 9.576 207.446 9.608C207.574 9.544 207.686 9.512 207.782 9.512C207.91 9.48 208.022 9.464 208.118 9.464C208.182 9.464 208.342 9.496 208.598 9.56C208.854 9.592 209.062 9.736 209.222 9.992C210.022 11.08 210.998 11.72 212.15 11.912C212.278 11.944 212.486 11.944 212.774 11.912C213.094 11.88 213.318 11.88 213.446 11.912C214.022 11.592 214.502 11.24 214.886 10.856C215.206 10.6 215.382 10.344 215.414 10.088C215.414 10.024 215.462 9.992 215.558 9.992C215.654 9.96 215.702 9.928 215.702 9.896C215.798 9.768 215.894 9.704 215.99 9.704C216.246 9.704 216.31 9.816 216.182 10.04L215.798 10.52C215.798 10.584 215.75 10.648 215.654 10.712C215.078 11.224 214.534 11.8 214.022 12.44C213.542 13.048 212.982 13.56 212.342 13.976C212.31 14.008 212.246 14.024 212.15 14.024C211.99 14.024 211.798 13.992 211.574 13.928C211.382 13.832 211.222 13.816 211.094 13.88C210.614 14.232 210.134 14.6 209.654 14.984C209.174 15.336 208.678 15.72 208.166 16.136L208.886 16.04C208.982 16.008 209.014 16.008 208.982 16.04C208.982 16.072 209.03 16.088 209.126 16.088C209.286 16.056 209.382 16.04 209.414 16.04C209.478 16.008 209.574 15.992 209.702 15.992C210.278 15.928 210.79 15.896 211.238 15.896C211.366 15.896 211.51 15.896 211.67 15.896C211.83 15.896 211.958 15.912 212.054 15.944C212.118 15.944 212.134 15.96 212.102 15.992C212.102 15.992 212.118 16.008 212.15 16.04C212.214 16.04 212.262 16.04 212.294 16.04C212.326 16.008 212.374 15.976 212.438 15.944C212.47 15.944 212.518 15.944 212.582 15.944C212.646 15.944 212.694 15.96 212.726 15.992C212.95 15.992 213.094 16.008 213.158 16.04C213.318 16.072 213.398 16.136 213.398 16.232C213.43 16.328 213.366 16.36 213.206 16.328C213.174 16.328 213.126 16.328 213.062 16.328C213.03 16.296 212.982 16.28 212.918 16.28H212.582C212.326 16.28 212.022 16.28 211.67 16.28C211.35 16.28 211.046 16.296 210.758 16.328C210.726 16.328 210.71 16.312 210.71 16.28C210.71 16.216 210.678 16.184 210.614 16.184C210.614 16.184 210.582 16.216 210.518 16.28C210.454 16.312 210.406 16.328 210.374 16.328C210.342 16.328 210.31 16.344 210.278 16.376C210.246 16.376 210.198 16.376 210.134 16.376L207.206 16.904L207.158 16.952C206.774 17.336 206.374 17.704 205.958 18.056C205.542 18.408 205.11 18.76 204.662 19.112C204.63 19.144 204.598 19.192 204.566 19.256C204.534 19.288 204.486 19.32 204.422 19.352C204.998 19.736 205.526 20.2 206.006 20.744C206.518 21.288 206.95 21.736 207.302 22.088C208.006 22.76 208.918 23.208 210.038 23.432C211.158 23.656 212.118 23.72 212.918 23.624C213.206 23.56 213.446 23.432 213.638 23.24C213.862 23.048 214.038 22.84 214.166 22.616V22.568C214.166 22.536 214.198 22.488 214.262 22.424C214.358 22.36 214.422 22.36 214.454 22.424C214.486 22.424 214.454 22.488 214.358 22.616C214.294 22.744 214.262 22.808 214.262 22.808C214.326 22.84 214.358 22.904 214.358 23C214.358 23.128 214.374 23.192 214.406 23.192C214.47 23.192 214.534 23.144 214.598 23.048C214.694 22.952 214.742 22.888 214.742 22.856C214.838 22.696 214.902 22.536 214.934 22.376C214.998 22.184 215.046 22.024 215.078 21.896C215.174 21.512 215.222 21.08 215.222 20.6C215.222 20.12 215.142 19.672 214.982 19.256C214.822 18.808 214.518 18.552 214.07 18.488C214.006 18.488 213.974 18.456 213.974 18.392C213.974 18.328 214.022 18.248 214.118 18.152C214.214 18.056 214.31 18.024 214.406 18.056C214.95 18.12 215.302 18.392 215.462 18.872C215.654 19.32 215.75 19.816 215.75 20.36C215.75 20.84 215.702 21.304 215.606 21.752C215.574 21.944 215.51 22.168 215.414 22.424C215.35 22.648 215.238 22.872 215.078 23.096C214.886 23.992 214.454 24.632 213.782 25.016C213.142 25.4 212.438 25.592 211.67 25.592C210.998 25.592 210.342 25.464 209.702 25.208C209.062 24.952 208.534 24.6 208.118 24.152C207.734 23.704 207.35 23.224 206.966 22.712C206.582 22.2 206.166 21.736 205.718 21.32C205.494 21.096 205.254 20.888 204.998 20.696C204.742 20.472 204.438 20.36 204.086 20.36C203.894 20.36 203.75 20.376 203.654 20.408C203.366 20.504 203.126 20.552 202.934 20.552L201.83 21.416C201.542 21.64 201.27 21.896 201.014 22.184C200.758 22.472 200.502 22.744 200.246 23C200.214 23.032 200.15 23.112 200.054 23.24C199.99 23.4 199.942 23.48 199.91 23.48C199.622 23.864 199.43 24.2 199.334 24.488C199.334 24.52 199.366 24.616 199.43 24.776C199.494 24.968 199.51 25.112 199.478 25.208L199.142 25.736C199.11 25.768 199.062 25.784 198.998 25.784Z" fill="black"/>
</g>
<defs>
<filter id="filter0_d_3_147" x="0.192017" y="0.152008" width="220.182" height="34.304" filterUnits="userSpaceOnUse" color-interpolation-filters="sRGB">
<feFlood flood-opacity="0" result="BackgroundImageFix"/>
<feColorMatrix in="SourceAlpha" type="matrix" values="0 0 0 0 0 0 0 0 0 0 0 0 0 0 0 0 0 0 127 0" result="hardAlpha"/>
<feOffset dy="4"/>
<feGaussianBlur stdDeviation="2"/>
<feComposite in2="hardAlpha" operator="out"/>
<feColorMatrix type="matrix" values="0 0 0 0 0 0 0 0 0 0 0 0 0 0 0 0 0 0 0.25 0"/>
<feBlend mode="normal" in2="BackgroundImageFix" result="effect1_dropShadow_3_147"/>
<feBlend mode="normal" in="SourceGraphic" in2="effect1_dropShadow_3_147" result="shape"/>
</filter>
</defs>
</svg>
